<?xml version="1.0" encoding="utf-8"?>
<!-- Generator: Adobe Illustrator 26.0.2, SVG Export Plug-In . SVG Version: 6.00 Build 0)  -->
<svg version="1.1" id="Layer_1" xmlns="http://www.w3.org/2000/svg" xmlns:xlink="http://www.w3.org/1999/xlink" x="0px" y="0px"
	 viewBox="0 0 20 20" style="enable-background:new 0 0 20 20;" xml:space="preserve">
<path d="M18.4,14.1l0-9l-3.8,0l0,0.4l1.7,0l0,5c0,1.8-1.4,3.7-2.8,3.7c-1.3,0-1.3-1.2-1.3-3v-6H8.6v0.5h1.4v3.7H8.8V8.2H8.7v1.2H7.5
	V6.9C7.5,5.4,6.4,5,4.4,5C2.5,5,0.7,6,0.7,7.3c0,0.7,0.5,1.2,1.1,1.2s1-0.5,1-1.1c0-0.6-0.5-0.7-0.5-1c0-0.5,1.1-0.8,1.9-0.8
	c1,0,1.3,0.3,1.3,1.1v2.7c-0.6,0-1.5,0.1-2.5,0.3C1.7,9.9,0,10.7,0,12.5C0,14,1,15,2.3,15C4.2,15,5,14,5.5,13c0,0,0.2,1.9,1.7,1.9
	c1.1,0,1.7-0.6,2-1.1l-0.3-0.3c-0.1,0.1-0.4,0.4-0.7,0.4c-0.5,0-0.6-0.6-0.6-1.2V9.6h1.2v1.2h0.2V9.6h1.2v2c0,1.5,0.1,3.3,2.8,3.3
	c2.1,0,3.1-1.5,3.5-2.5v0.1l0,2.3c0.6-0.1,1.2-0.2,2-0.2l1.6,0l0-0.4H18.4z M5.4,11.1c0,1.4-0.8,3-2,3c-0.9,0-1.3-0.9-1.3-2
	c0-1.4,0.8-1.8,1.9-2.1C4.4,9.8,5,9.8,5.4,9.8L5.4,11.1L5.4,11.1z"/>
</svg>
