<?xml version="1.0" encoding="utf-8"?>
<!-- Generator: Adobe Illustrator 26.0.2, SVG Export Plug-In . SVG Version: 6.00 Build 0)  -->
<svg version="1.1" id="Layer_1" xmlns="http://www.w3.org/2000/svg" xmlns:xlink="http://www.w3.org/1999/xlink" x="0px" y="0px"
	 viewBox="0 0 20 20" style="enable-background:new 0 0 20 20;" xml:space="preserve">
<g>
	<path d="M20,10.1C20,16,15.7,20,9.3,20c-5,0-9.3-4.6-9.3-9.9C0,4.5,4.5,0,10.1,0C16.1,0,20.3,5.3,20,10.1z M10,1.3
		c-4.9,0-8.8,3.9-8.8,8.8c0,4.9,4,8.8,8.8,8.8c4.9,0,8.8-3.9,8.8-8.8C18.8,5.2,14.9,1.2,10,1.3z"/>
	<path d="M11.2,3.7c-0.3,0.7-0.5,1.4-0.7,2.1c-1,2.8-2,5.6-2.9,8.4c-0.2,0.5-0.4,0.6-0.8,0.6c-0.6,0-1.3,0-2,0
		c0.1-0.2,0.1-0.4,0.1-0.5c1.2-3.3,2.5-6.7,3.7-10c0.2-0.4,0.3-0.6,0.8-0.5C9.9,3.7,10.5,3.7,11.2,3.7z"/>
	<path d="M10.4,9.8c0.6,0,1.2,0,1.8,0c-0.2-0.6-0.3-1.1-0.6-1.5c-0.5-0.9-0.2-1.8,0.2-2.7C11.9,5.8,12,5.9,12,6
		c0.8,2.2,1.7,4.4,2.5,6.7c0.2,0.6,0.4,1,1.2,0.8c0.1,0,0.2,0,0.3,0c0,0.4,0,0.7,0,1.1c-1.2,0-2.4,0-3.6,0c0-0.4,0-0.7,0-1.1
		c0.4,0,0.7,0,1.2,0c-0.3-0.8-0.5-1.6-0.9-2.3c-0.1-0.1-0.3-0.2-0.5-0.2c-0.7,0-1.5,0-2.3,0C10.1,10.6,10.2,10.2,10.4,9.8z"/>
</g>
</svg>
