<?xml version="1.0" encoding="utf-8"?>
<!-- Generator: Adobe Illustrator 26.0.2, SVG Export Plug-In . SVG Version: 6.00 Build 0)  -->
<svg version="1.1" id="Layer_1" xmlns="http://www.w3.org/2000/svg" xmlns:xlink="http://www.w3.org/1999/xlink" x="0px" y="0px"
	 viewBox="0 0 20 20" style="enable-background:new 0 0 20 20;" xml:space="preserve">
<path d="M3.8,6.5h1v3.9h3.8v1H4.8v3.9h-1v-3.9H0v-1h3.8V6.5z M11.1,15.3v-0.3c0.2,0,0.4-0.1,0.5-0.3c0.1-0.2,0.2-0.5,0.2-1V6.3
	c0-0.5-0.1-0.8-0.2-1c-0.1-0.2-0.3-0.3-0.5-0.3V4.7h2.9v0.3c-0.2,0-0.4,0.1-0.5,0.3c-0.1,0.2-0.2,0.5-0.2,1v4.6l2.1-2.3
	c1-1.1,1.6-1.8,1.9-2.2c0.3-0.4,0.4-0.6,0.4-0.9c0-0.2,0-0.3-0.1-0.4C17.3,5,17.2,5,17,4.9V4.7h3v0.3c-0.3,0.1-0.6,0.2-0.9,0.5
	c-0.3,0.3-0.9,0.8-1.7,1.7l-1.6,1.8l2.5,4.2c0.1,0.1,0.1,0.2,0.2,0.4c0.6,1,1.1,1.5,1.4,1.6l0,0.3h-3.1v-0.3c0.1,0,0.2,0,0.3-0.1
	c0.1-0.1,0.1-0.2,0.1-0.3c0-0.1,0-0.3-0.1-0.5c-0.1-0.2-0.3-0.5-0.5-1L14.8,10l-1.5,1.6v2.1c0,0.5,0.1,0.8,0.2,1
	c0.1,0.2,0.3,0.3,0.5,0.3v0.3H11.1z"/>
</svg>
