<?xml version="1.0" standalone="no"?>
<!DOCTYPE svg PUBLIC "-//W3C//DTD SVG 1.1//EN" "http://www.w3.org/Graphics/SVG/1.1/DTD/svg11.dtd" >
<svg xmlns="http://www.w3.org/2000/svg" xmlns:xlink="http://www.w3.org/1999/xlink" version="1.1">
<metadata>
Created by FontForge 20200427 at Tue May 24 20:19:23 2016
 By www
Copyright (c) Fabrizio Schiavi - http://www.fsd.it/, 2002. All rights reserved.
</metadata>
<defs>
<font id="SysTTW00-Italic" horiz-adv-x="1066" >
  <font-face 
    font-family="SysTTW00-Italic"
    font-weight="400"
    font-style="italic"
    font-stretch="normal"
    units-per-em="2048"
    panose-1="2 0 4 0 0 0 0 0 0 0"
    ascent="1638"
    descent="-410"
    x-height="1105"
    cap-height="1483"
    bbox="-79 -432 3062 2071"
    underline-thickness="102"
    underline-position="-256"
    slope="-8"
    unicode-range="U+000D-FB02"
  />
<missing-glyph horiz-adv-x="1024" 
d="M128 0v1638h768v-1638h-768zM256 128h512v1382h-512v-1382z" />
    <glyph glyph-name=".notdef" horiz-adv-x="1024" 
d="M128 0v1638h768v-1638h-768zM256 128h512v1382h-512v-1382z" />
    <glyph glyph-name="glyph1" horiz-adv-x="0" 
 />
    <glyph glyph-name="glyph1" horiz-adv-x="0" 
 />
    <glyph glyph-name="uni000D" unicode="&#xd;" horiz-adv-x="520" 
 />
    <glyph glyph-name="space" unicode=" " horiz-adv-x="520" 
 />
    <glyph glyph-name="exclam" unicode="!" horiz-adv-x="540" 
d="M531 1411l-108 -768q-8 -63 -71 -63t-55 63l108 768q9 63 72 63t54 -63zM367 63q0 -83 -83 -83t-83 83v58q0 83 83 83t83 -83v-58z" />
    <glyph glyph-name="quotedbl" unicode="&#x22;" horiz-adv-x="827" 
d="M827 1411l-75 -536q-8 -54 -62 -54t-46 54l75 536q8 54 62 54t46 -54zM504 1411l-75 -536q-8 -54 -62 -54t-46 54l75 536q8 54 62 54t46 -54z" />
    <glyph glyph-name="numbersign" unicode="#" horiz-adv-x="1291" 
d="M1291 1197q0 -63 -63 -63h-251l-128 -339l-78 -103l18 -27l113 45h141q63 0 63 -63t-63 -63h-275l-67 -175q-16 -41 -57 -41q-64 0 -64 61q0 15 4 25l13 34l82 105l-18 27l-130 -36h-128l-66 -175q-15 -41 -57 -41q-65 0 -65 61q0 8 5 25l10 34l82 105l-18 27l-129 -36
h-102q-63 0 -63 63t63 63h254l124 328l82 105l-18 27l-130 -36h-128q-63 0 -63 63t63 63h279l66 174q16 41 57 41q66 0 66 -61q0 -12 -5 -25l-17 -44l-77 -103l18 -27l112 45h145l66 174q16 41 56 41q66 0 66 -61q0 -14 -4 -25l-16 -44l-77 -103l18 -27l112 45h116
q63 0 63 -63zM889 1143l-18 27l-129 -36h-129l-131 -339l-77 -103l18 -27l112 45h146l127 328z" />
    <glyph glyph-name="dollar" unicode="$" horiz-adv-x="1154" 
d="M1210 1420q0 -54 -54 -54h-301l-80 -566l242 -190q107 -84 107 -227q0 -161 -109 -272t-263 -111h-89l-17 -121q-8 -54 -62 -54q-47 0 -47 45q0 4 1 9l17 121h-387q-54 0 -54 54t54 54h402l87 615l-273 216q-89 70 -89 194q0 147 97 245q94 96 232 96h138l17 122
q8 54 62 54q47 0 47 -45q0 -4 -1 -9l-17 -122h286q54 0 54 -54zM747 1366h-123q-78 0 -140 -68.5t-62 -147.5q0 -90 49 -129l92 -73l95 -99l38 18l4 163zM996 367q0 110 -67 161l-64 49l-91 97l-38 -18l-8 -197l-50 -351h74q95 0 170 83q74 80 74 176z" />
    <glyph glyph-name="percent" unicode="%" horiz-adv-x="1475" 
d="M905 1198l-10 -77q-17 -119 -97 -195q-84 -81 -211 -81q-105 0 -176.5 69t-71.5 170q0 19 3 37l10 77q17 119 98 195q86 81 211 81q105 0 176 -69t71 -170q0 -18 -3 -37zM1479 1421q-3 -17 -16 -32l-1167 -1367q-20 -23 -45 -23q-22 0 -37.5 16t-12.5 38q3 17 16 32
l1167 1367q20 23 46 23q22 0 37 -16t12 -38zM1340 351l-10 -77q-17 -120 -97 -195q-85 -79 -213 -79q-105 0 -176 68t-71 169q0 18 3 37l10 77q17 119 98 195q86 81 210 81q105 0 177 -69t72 -171q0 -18 -3 -36zM782 1216q1 10 1 20q0 56 -38 93t-95 37q-62 0 -111 -43.5
t-58 -106.5l-16 -113q-1 -10 -1 -20q0 -55 38.5 -92.5t95.5 -37.5q62 0 110.5 43.5t57.5 106.5zM1217 369q1 10 1 20q0 55 -39 92.5t-96 37.5q-62 0 -110.5 -43.5t-57.5 -106.5l-16 -113q-1 -10 -1 -20q0 -55 38 -91.5t95 -36.5q63 0 112 43t58 105z" />
    <glyph glyph-name="ampersand" unicode="&#x26;" horiz-adv-x="1368" 
d="M1341 675q0 -25 -17 -43l-141 -153l-123 -89l-5 -36l102 -128l98 -136q11 -16 11 -36q0 -63 -63 -63q-34 0 -52 27l-168 247q-293 -278 -478 -278q-139 0 -228 86.5t-89 215.5q0 25 4 50q18 133 150 262q79 77 267 205l-87 129q-50 75 -36 172l14 100q17 122 97 197
q84 79 210 79q105 0 176.5 -69t71.5 -170q0 -19 -2 -37l-14 -100q-21 -147 -260 -323l216 -324l238 259q17 19 45 19q63 0 63 -63zM929 1225q2 12 2 24q0 54 -34 90t-90 36q-63 0 -116.5 -44t-62.5 -106l-16 -118q-9 -62 13 -93l23 -33l46 -116h45q35 46 97 120
q69 71 77 122zM938 390l-93 77l-80 126l-47 126h-54q-34 -34 -107 -96q-222 -161 -239 -284q-3 -18 -3 -37q0 -86 50 -145q53 -63 135 -63q100 0 313 180l120 80z" />
    <glyph glyph-name="quotesingle" unicode="'" horiz-adv-x="553" 
d="M528 1411l-75 -536q-8 -54 -62 -54t-46 54l75 536q8 54 62 54t46 -54z" />
    <glyph glyph-name="parenleft" unicode="(" horiz-adv-x="822" 
d="M885 1600q-3 -21 -22 -38q-394 -340 -462 -825q-12 -82 -12 -162q0 -387 242 -663q14 -17 11 -38q-7 -55 -62 -55q-22 0 -36 16q-264 301 -264 724q0 88 13 178q74 530 504 902q19 16 41 16q21 0 35.5 -16.5t11.5 -38.5z" />
    <glyph glyph-name="parenright" unicode=")" horiz-adv-x="822" 
d="M737 737q-75 -530 -505 -902q-19 -16 -40 -16q-22 0 -36.5 16.5t-11.5 38.5q3 21 23 38q393 340 462 825q11 82 11 162q0 387 -241 663q-15 17 -12 38q8 55 63 55q21 0 35 -16q264 -301 264 -724q0 -88 -12 -178z" />
    <glyph glyph-name="asterisk" unicode="*" horiz-adv-x="1180" 
d="M1188 1007q0 -26 -18.5 -45t-44.5 -18l-175 6l-143 27l-18 -28l80 -114l71 -146q6 -13 6 -27q0 -63 -63 -63q-42 0 -58 40l-57 139l-29 141h-33l-65 -141l-99 -151q-18 -28 -52 -28q-63 0 -63 63q0 22 14 39l104 134l113 114l-11 28l-149 -27l-159 -6q-25 -1 -44 18
t-19 45t18.5 45t44.5 18l175 -6l142 -27l17 29l-90 107l-83 140q-8 14 -8 31q0 63 63 63q40 0 56 -34l65 -137l46 -136h33l76 136l113 149q17 22 48 22q63 0 63 -63q0 -23 -13 -38l-116 -133l-118 -107l8 -29l150 27l159 6q26 1 44.5 -18t18.5 -45z" />
    <glyph glyph-name="plus" unicode="+" horiz-adv-x="1102" 
d="M1094 647q0 -54 -54 -54h-352l-48 -344q-8 -54 -62 -54t-46 54l48 344h-336q-54 0 -54 54t54 54h352l48 344q7 54 61 54t47 -54l-48 -344h336q54 0 54 -54z" />
    <glyph glyph-name="comma" unicode="," horiz-adv-x="534" 
d="M399 67q0 -19 -10 -34l-215 -319q-15 -22 -42 -22q-50 0 -50 50q0 14 6 25l185 298v88q0 63 63 63t63 -63v-86z" />
    <glyph glyph-name="hyphen" unicode="-" horiz-adv-x="805" 
d="M779 647q0 -54 -54 -54h-463q-54 0 -54 54t54 54h463q54 0 54 -54z" />
    <glyph glyph-name="period" unicode="." horiz-adv-x="549" 
d="M385 85q0 -44 -28.5 -69t-66.5 -25q-37 0 -64 24q-30 26 -30 70v58q0 44 30 71q27 24 64 24t65 -24q30 -27 30 -71v-58z" />
    <glyph glyph-name="slash" unicode="/" horiz-adv-x="894" 
d="M995 1422q-1 -9 -9 -23l-779 -1367q-18 -33 -51 -33q-57 0 -50 53q2 12 9 24l778 1366q18 33 52 33q57 0 50 -53z" />
    <glyph glyph-name="zero" unicode="0" 
d="M1076 1094l-101 -714q-22 -163 -144.5 -276t-281.5 -113q-149 0 -252 98t-103 241q0 25 3 50l101 714q23 163 145 276t281 113q149 0 252 -98t103 -241q0 -25 -3 -50zM952 1112q3 18 3 36q0 97 -66 162t-166 65q-116 0 -197.5 -76t-99.5 -197l-105 -740q-3 -18 -3 -37
q0 -96 66 -161t166 -65q109 0 194.5 78t102.5 195z" />
    <glyph glyph-name="one" unicode="1" 
d="M923 1411l-189 -1348q-9 -63 -65 -63q-70 0 -61 63l160 1144l53 186h-36l-137 -159l-222 -202q-22 -20 -47 -20q-26 0 -47.5 20t-18.5 44q4 24 26 44l382 335q22 19 47 19h101q25 0 41.5 -19t12.5 -44z" />
    <glyph glyph-name="two" unicode="2" 
d="M1063 1159q0 -152 -95 -256l-515 -561l-210 -193l-6 -58l231 17h424q54 0 54 -54t-54 -54h-701q-55 0 -55 56q0 4 1 7l13 100q2 21 18 38l701 778q68 76 68 176q0 97 -58 154t-149 57h-339q-54 0 -54 54t54 54h354q138 0 228 -90t90 -225z" />
    <glyph glyph-name="three" unicode="3" 
d="M1063 1138q0 -77 -33 -156q-33 -83 -87 -132q-47 -43 -147 -63v-36q24 -8 44 -19q49 -25 73 -56q59 -77 59 -180q0 -23 -3 -47l-9 -65q-23 -161 -142 -271q-122 -113 -279 -113h-338q-54 0 -54 54t54 54h319q108 0 202.5 76.5t108.5 181.5l13 92q3 19 3 38
q0 94 -61 156.5t-157 62.5h-120q-54 0 -54 54t54 54h129q124 0 211.5 92.5t87.5 220.5q0 102 -63 166t-160 64h-321q-54 0 -54 54t54 54h336q144 0 239 -97.5t95 -238.5z" />
    <glyph glyph-name="four" unicode="4" 
d="M1110 485q0 -54 -54 -54h-180l-52 -368q-9 -63 -65 -63q-70 0 -61 63l52 368h-553q-25 0 -41.5 19t-13.5 44l11 82q2 17 15 35l635 835q21 28 56 28h100q25 0 41.5 -19t12.5 -44l-122 -872h165q54 0 54 -54zM901 1383h-36l-106 -197l-377 -501l-131 -120l-6 -44l196 18
h324l91 647z" />
    <glyph glyph-name="five" unicode="5" 
d="M1079 1420q0 -54 -54 -54h-521l-75 -534h221q145 0 243.5 -95.5t98.5 -235.5q0 -26 -4 -52l-9 -65q-23 -161 -143 -271q-122 -113 -279 -113h-354q-54 0 -54 54t54 54h335q109 0 203.5 76.5t108.5 181.5l15 101q2 20 2 39q0 94 -60 156t-155 62h-301q-25 0 -41.5 19
t-12.5 44l87 624q4 25 25.5 44t46.5 19h569q54 0 54 -54z" />
    <glyph glyph-name="six" unicode="6" 
d="M1087 1420q0 -54 -54 -54h-147q-182 0 -321.5 -129t-165.5 -315l-13 -93h283q145 0 242.5 -96t97.5 -237q0 -26 -4 -52l-9 -70q-23 -161 -143 -271q-121 -113 -278 -113h-32q-138 0 -243 98q-108 100 -108 241q0 22 4 45l74 530q34 241 206 403q177 167 414 167h143
q54 0 54 -54zM882 462q3 20 3 39q0 95 -61 157.5t-160 62.5h-294l-51 -365q-2 -18 -2 -35q0 -95 64.5 -159t162.5 -64h32q106 0 191 75.5t100 182.5z" />
    <glyph glyph-name="seven" unicode="7" 
d="M1136 1411l-18 -128q-1 -10 -7 -20l-660 -1224q-21 -39 -61 -39q-27 0 -48 17.5t-17 43.5q1 11 9 26l580 1059l129 173l2 68l-183 -21h-481q-54 0 -54 54t54 54h701q26 0 42 -18.5t12 -44.5z" />
    <glyph glyph-name="eight" unicode="8" 
d="M1074 1196q0 -185 -171 -293q-32 -20 -139 -77l-4 -30q38 -13 112 -51q159 -111 159 -289q0 -184 -112 -314q-122 -142 -325 -142h-102q-146 0 -245 96t-99 237q0 291 254 420q40 21 128 43l4 30q-46 32 -119 85q-100 78 -100 204q0 175 110 278q106 100 273 100h60
q133 0 224.5 -82t91.5 -215zM948 1192q0 88 -51 140.5t-135 52.5h-60q-116 0 -187.5 -72.5t-71.5 -192.5q0 -87 60 -146q37 -35 122 -107h60l154 117q109 82 109 208zM904 449q0 130 -95 203q-35 28 -140 95h-60q-51 -29 -167 -99q-169 -108 -169 -320q0 -93 63.5 -156.5
t153.5 -63.5h102q141 0 229 104q83 97 83 237z" />
    <glyph glyph-name="nine" unicode="9" 
d="M1078 1100l-75 -529q-33 -238 -216 -404.5t-418 -166.5h-129q-54 0 -54 54t54 54h120q187 0 338 130.5t177 314.5l13 92h-290q-145 0 -239.5 95t-94.5 236q0 27 4 54l10 70q22 160 146 272t282 112h32q145 0 244 -96t99 -237q0 -25 -3 -51zM954 1118q3 20 3 40
q0 93 -58 155.5t-150 62.5h-32q-114 0 -205 -75.5t-106 -182.5l-15 -106q-2 -19 -2 -38q0 -95 60.5 -158t156.5 -63h297z" />
    <glyph glyph-name="colon" unicode=":" horiz-adv-x="553" 
d="M516 962q0 -44 -28.5 -69t-65.5 -25q-38 0 -65 24q-30 26 -30 70v58q0 44 30 71q27 24 65 24q37 0 64 -24q30 -27 30 -71v-58zM389 85q0 -44 -28.5 -69t-65.5 -25q-38 0 -65 24q-30 26 -30 70v58q0 44 30 71q28 24 65 24t64 -24q30 -27 30 -71v-58z" />
    <glyph glyph-name="semicolon" unicode=";" horiz-adv-x="534" 
d="M524 962q0 -44 -28.5 -69t-65.5 -25q-38 0 -65 24q-30 26 -30 70v58q0 44 30 71q27 24 65 24q37 0 64 -24q30 -27 30 -71v-58zM399 67q0 -19 -10 -34l-215 -319q-15 -22 -42 -22q-50 0 -50 50q0 14 6 25l185 298v88q0 63 63 63t63 -63v-86z" />
    <glyph glyph-name="less" unicode="&#x3c;" horiz-adv-x="922" 
d="M887 1061q0 -30 -22 -48l-247 -201l-214 -149l-8 -54l168 -145l178 -187q16 -17 16 -42q0 -63 -63 -63q-29 0 -46 20l-354 412q-16 18 -12 44t24 44l478 418q15 14 39 14q63 0 63 -63z" />
    <glyph glyph-name="equal" unicode="=" horiz-adv-x="1106" 
d="M1037 827q0 -54 -54 -54h-629q-54 0 -54 54t54 54h629q54 0 54 -54zM986 465q0 -54 -54 -54h-629q-54 0 -54 54t54 54h629q54 0 54 -54z" />
    <glyph glyph-name="greater" unicode="&#x3e;" horiz-adv-x="922" 
d="M822 648q-3 -25 -25 -44l-474 -417q-18 -15 -42 -15q-63 0 -63 63q0 30 22 48l252 202l208 145l8 54l-172 149l-175 184q-17 19 -17 44q0 63 63 63q29 0 46 -20l356 -412q17 -19 13 -44z" />
    <glyph glyph-name="question" unicode="?" horiz-adv-x="946" 
d="M876 854l-320 -329q-25 -25 -52 -25q-54 0 -46 54q2 18 20 37l300 325q101 110 101 236q0 97 -58.5 155.5t-149.5 58.5h-368q-54 0 -54 54t54 54h383q138 0 228.5 -90.5t90.5 -224.5q0 -172 -129 -305zM530 63q0 -83 -83 -83t-83 83v58q0 83 83 83t83 -83v-58z" />
    <glyph glyph-name="at" unicode="@" horiz-adv-x="1684" 
d="M1578 668l-85 -605q-4 -25 -25.5 -44t-46.5 -19h-564q-118 0 -200.5 77.5t-82.5 191.5q0 19 3 39l43 306q19 135 103 218q90 90 233 90q119 0 201 -77.5t82 -191.5q0 -19 -3 -39l-71 -506h208l81 578q6 37 6 73q0 189 -127 315.5t-321 126.5q-219 0 -389 -150t-201 -365
l-62 -441q-4 -34 -4 -68q0 -189 130.5 -318.5t318.5 -129.5h216q54 0 54 -54t-54 -54h-216q-244 0 -409 160t-165 396q0 43 6 86l57 405q39 275 230 454q200 187 488 187q244 0 408 -159.5t164 -394.5q0 -43 -6 -87zM1113 632q2 13 2 26q0 66 -45 111t-114 45
q-82 0 -141 -53q-55 -51 -66 -129l-48 -342q-2 -12 -2 -24q0 -66 46.5 -112t111.5 -46h182z" />
    <glyph glyph-name="A" unicode="A" horiz-adv-x="1218" 
d="M1154 51q-8 -60 -64 -60q-53 0 -60 44l-74 466h-547l-205 -471q-17 -39 -58 -39q-64 0 -64 63q0 13 6 25l605 1351q20 44 66 44h108q16 0 34 -14.5t21 -29.5l231 -1357q2 -13 1 -22zM947 627l-33 124l-45 282l-30 360h-68l-131 -360l-124 -282l-69 -124l9 -36l165 18h149
l158 -18z" />
    <glyph glyph-name="B" unicode="B" horiz-adv-x="1159" 
d="M1119 1028q-29 -74 -93 -132q-41 -38 -155 -75v-40q32 -8 59 -18q64 -25 90 -59q69 -88 69 -187q0 -19 -3 -38l-13 -95q-25 -178 -143 -282q-114 -102 -276 -102h-402q-25 0 -41.5 19t-12.5 44l189 1348q4 25 25.5 44t46.5 19h362q142 0 231.5 -90t89.5 -229
q0 -69 -23 -127zM1016 1150q0 91 -59.5 155.5t-149.5 64.5h-299l-73 -519h299q109 0 196 96q86 93 86 203zM962 490q2 14 2 29q0 91 -68.5 159.5t-166.5 68.5h-309l-90 -639h329q107 0 188.5 73.5t96.5 180.5z" />
    <glyph glyph-name="C" unicode="C" horiz-adv-x="995" 
d="M1106 1420q0 -54 -54 -54h-217q-151 0 -277 -107t-147 -256l-75 -532q-4 -27 -4 -54q0 -132 85.5 -220.5t220.5 -88.5h240q54 0 54 -54t-54 -54h-245q-184 0 -304.5 121t-120.5 300q0 34 5 68l69 496q29 203 188 346t360 143h222q54 0 54 -54z" />
    <glyph glyph-name="D" unicode="D" horiz-adv-x="1202" 
d="M1193 897l-45 -320q-34 -241 -216 -408q-185 -169 -422 -169h-258q-25 0 -41.5 19t-12.5 44l189 1348q4 25 25.5 44t46.5 19h228q219 0 365.5 -143.5t146.5 -355.5q0 -39 -6 -78zM1070 915q4 33 4 66q0 165 -107 275t-275 110h-185l-177 -1258h175q185 0 337 136t178 315
z" />
    <glyph glyph-name="E" unicode="E" horiz-adv-x="1043" 
d="M1135 1420q0 -54 -54 -54h-574l-67 -480h515q54 0 54 -54t-54 -54h-531l-94 -670h559q54 0 54 -54t-54 -54h-637q-25 0 -41.5 19t-12.5 44l189 1348q4 25 25.5 44t46.5 19h622q54 0 54 -54z" />
    <glyph glyph-name="F" unicode="F" horiz-adv-x="1025" 
d="M1118 1420q0 -54 -54 -54h-557l-69 -489h496q54 0 54 -54t-54 -54h-511l-100 -715q-9 -63 -65 -63q-70 0 -61 63l190 1357q4 25 25.5 44t46.5 19h605q54 0 54 -54z" />
    <glyph glyph-name="G" unicode="G" horiz-adv-x="1255" 
d="M1267 1420q0 -54 -54 -54h-360q-152 0 -276 -106q-127 -106 -148 -257l-85 -604q-3 -21 -3 -42q0 -107 70.5 -178t182.5 -71h361l84 594h-238q-54 0 -54 54t54 54h316q25 0 41.5 -19t12.5 -44l-96 -684q-4 -25 -25.5 -44t-46.5 -19h-424q-154 0 -259 110
q-103 107 -103 255q0 26 4 52l79 568q31 216 194 355q158 134 364 134h355q54 0 54 -54z" />
    <glyph glyph-name="H" unicode="H" horiz-adv-x="1243" 
d="M1254 1420l-192 -1366q-9 -63 -65 -63q-70 0 -61 63l101 720h-613l-101 -720q-9 -63 -65 -63q-70 0 -61 63l192 1366q8 63 64 63q70 0 62 -63l-76 -538h613l76 538q8 63 64 63q70 0 62 -63z" />
    <glyph glyph-name="I" unicode="I" horiz-adv-x="504" 
d="M515 1420l-192 -1366q-9 -63 -65 -63q-70 0 -61 63l192 1366q8 63 64 63q70 0 62 -63z" />
    <glyph glyph-name="J" unicode="J" horiz-adv-x="756" 
d="M768 1430l-161 -1147q-17 -120 -103 -200q-90 -83 -211 -83h-233q-54 0 -54 54t54 54h228q67 0 124 46.5t66 110.5l164 1165q9 63 65 63q70 0 61 -63z" />
    <glyph glyph-name="K" unicode="K" horiz-adv-x="1122" 
d="M1219 1432q0 -26 -17 -44l-511 -504l-166 -122l-5 -38l122 -106l388 -530q10 -14 10 -34q0 -63 -63 -63q-32 0 -49 23l-501 688h-13l-91 -648q-9 -63 -65 -63q-70 0 -61 63l193 1376q9 63 65 63q70 0 61 -63l-91 -637h13l108 117l568 569q16 16 42 16q63 0 63 -63z" />
    <glyph glyph-name="L" unicode="L" horiz-adv-x="881" 
d="M844 54q0 -54 -54 -54h-538q-25 0 -41.5 19t-12.5 44l192 1367q9 63 65 63q70 0 61 -63l-186 -1322h460q54 0 54 -54z" />
    <glyph glyph-name="M" unicode="M" horiz-adv-x="1454" 
d="M1463 1411l-190 -1357q-9 -63 -65 -63q-26 0 -44 16q-21 18 -17 47l139 994l80 319h-54l-149 -237l-269 -345q-25 -32 -57 -32q-33 0 -49 32l-171 345l-83 237h-54l-18 -319l-139 -994q-9 -63 -65 -63q-26 0 -44 16q-21 18 -17 47l190 1357q9 63 72 63h98q35 0 49 -29
l151 -312l69 -229h54l133 229l239 312q22 29 57 29h100q26 0 42 -18.5t12 -44.5z" />
    <glyph glyph-name="N" unicode="N" horiz-adv-x="1345" 
d="M1356 1420l-191 -1357q-4 -25 -25.5 -44t-46.5 -19h-90q-12 0 -30.5 12.5t-21.5 22.5l-330 959l-92 374h-54l-27 -425l-125 -889q-10 -66 -66 -66q-70 0 -60 66l190 1357q9 63 72 63h90q12 0 30.5 -12.5t21.5 -22.5l313 -907l107 -426h54l31 436l124 878q8 63 64 63
q70 0 62 -63z" />
    <glyph glyph-name="O" unicode="O" horiz-adv-x="1163" 
d="M1174 1104l-103 -734q-23 -166 -136.5 -268t-268.5 -102h-142q-140 0 -235.5 95t-95.5 229q0 23 3 46l103 734q23 165 137 267.5t268 102.5h142q140 0 235.5 -94t95.5 -229q0 -23 -3 -47zM1051 1122q2 19 2 38q0 90 -56 147q-59 59 -156 59h-128q-114 0 -192.5 -70
t-92.5 -174l-109 -770q-2 -19 -2 -38q0 -89 57.5 -147.5t154.5 -58.5h128q112 0 193 71q78 69 92 173z" />
    <glyph glyph-name="P" unicode="P" horiz-adv-x="1093" 
d="M1136 1091l-17 -125q-26 -182 -145 -285q-115 -100 -286 -100h-291l-74 -527q-9 -63 -65 -63q-70 0 -61 63l190 1357q4 25 25.5 44t46.5 19h337q146 0 245 -95.5t99 -236.5q0 -25 -4 -51zM1013 1109q2 17 2 34q0 95 -66.5 159t-164.5 64h-277l-95 -677h277
q112 0 199 75.5t102 183.5z" />
    <glyph glyph-name="Q" unicode="Q" horiz-adv-x="1190" 
d="M1174 1104l-103 -734q-23 -166 -136.5 -268t-268.5 -102h-8l-19 -135q-9 -63 -65 -63q-70 0 -61 63l19 135q-142 0 -240.5 92.5t-98.5 229.5q0 24 3 48l103 734q23 165 137 267.5t268 102.5h142q140 0 235.5 -94t95.5 -229q0 -23 -3 -47zM1051 1122q2 19 2 38
q0 90 -56 147q-59 59 -156 59h-128q-114 0 -192.5 -70t-92.5 -174l-109 -770q-2 -19 -2 -38q0 -89 57.5 -147.5t154.5 -58.5h18l30 211q9 63 65 63q70 0 61 -63l-30 -211q107 6 181 75t88 169z" />
    <glyph glyph-name="R" unicode="R" horiz-adv-x="1120" 
d="M1153 1091q-37 -267 -279 -356q-54 -20 -124 -9l-24 -33l61 -91l216 -526q4 -8 4 -23q0 -63 -63 -63q-44 0 -58 38l-263 678h-209l-91 -652q-9 -63 -65 -63q-70 0 -61 63l190 1357q4 25 25.5 44t46.5 19h384q141 0 230 -96q84 -92 84 -230q0 -28 -4 -57zM1027 1091
q4 27 4 52q0 98 -52 160.5t-147 62.5h-325l-78 -552h294q111 0 197 75q90 78 107 202z" />
    <glyph glyph-name="S" unicode="S" horiz-adv-x="1010" 
d="M1047 1420q0 -54 -54 -54h-369q-82 0 -142.5 -59t-60.5 -141q0 -77 47 -127l431 -457q81 -86 81 -222q0 -163 -104 -261.5t-268 -98.5h-439q-54 0 -54 54t54 54h439q106 0 175.5 71.5t69.5 177.5q0 92 -48 143l-442 465q-67 70 -67 194q0 138 94.5 226.5t233.5 88.5h369
q54 0 54 -54z" />
    <glyph glyph-name="T" unicode="T" horiz-adv-x="976" 
d="M1121 1420q0 -54 -54 -54h-324l-184 -1312q-9 -63 -65 -63q-70 0 -61 63l184 1312h-310q-54 0 -54 54t54 54h760q54 0 54 -54z" />
    <glyph glyph-name="U" unicode="U" horiz-adv-x="1256" 
d="M1268 1430l-145 -1032q-24 -169 -156.5 -288t-299.5 -119h-65q-154 0 -257.5 101.5t-103.5 250.5q0 27 4 55l145 1032q9 63 65 63q70 0 61 -63l-148 -1050q-3 -21 -3 -41q0 -103 66.5 -171.5t171.5 -68.5h65q117 0 213.5 82.5t112.5 198.5l148 1050q9 63 65 63
q70 0 61 -63z" />
    <glyph glyph-name="V" unicode="V" horiz-adv-x="1182" 
d="M1288 1420q0 -13 -4 -22l-567 -1352q-6 -16 -28.5 -31t-38.5 -15h-108q-16 0 -34 15t-21 31l-198 1366q-4 28 15 49.5t47 21.5q56 0 62 -52l122 -927l42 -423h50l154 425l386 939q16 38 58 38q63 0 63 -63z" />
    <glyph glyph-name="W" unicode="W" horiz-adv-x="1954" 
d="M2042 1420q0 -11 -2 -18l-473 -1353q-6 -18 -28.5 -33.5t-40.5 -15.5h-108q-17 0 -34 15.5t-19 31.5l-132 1016l-1 321h-66l-92 -321l-409 -1016q-7 -16 -29 -31.5t-39 -15.5h-108q-18 0 -35.5 15.5t-18.5 33.5l-99 1358q-6 76 62 76q57 0 61 -49l66 -946l-4 -407h63
l124 409l377 928q19 47 60 47h108q17 0 38.5 -15.5t23.5 -31.5l116 -928l16 -409h63l104 407l336 957q13 38 57 38q63 0 63 -63z" />
    <glyph glyph-name="X" unicode="X" horiz-adv-x="1153" 
d="M1238 1420q0 -21 -11 -36l-463 -624q-8 -10 -34 -23q23 -13 27 -22l292 -636q6 -12 6 -26q0 -63 -63 -63q-42 0 -59 39l-180 421l-48 193h-58l-103 -195l-309 -431q-19 -27 -51 -27q-63 0 -63 63q0 21 12 37l462 625q7 9 35 22q-23 13 -28 23l-293 632q-7 14 -7 28
q0 63 63 63q42 0 56 -34l191 -439l42 -179h58l92 179l323 451q16 22 48 22q63 0 63 -63z" />
    <glyph glyph-name="Y" unicode="Y" horiz-adv-x="1080" 
d="M1204 1420q0 -17 -8 -31l-459 -785q-14 -23 -54 -35l-73 -515q-9 -63 -65 -63q-70 0 -61 63l73 515q-37 12 -44 35l-242 798q-3 9 -3 18q0 63 63 63q47 0 59 -40l171 -597l31 -189h67l86 189l342 607q17 30 54 30q63 0 63 -63z" />
    <glyph glyph-name="Z" unicode="Z" horiz-adv-x="1012" 
d="M1074 1411l-12 -95q-9 -25 -13 -30l-713 -1032l-107 -99l-7 -47h644q54 0 54 -54t-54 -54h-704q-25 0 -41.5 19t-12.5 44l13 95q8 26 12 31l712 1031l110 108l6 47l-146 -9h-448q-54 0 -54 54t54 54h653q25 0 41.5 -19t12.5 -44z" />
    <glyph glyph-name="bracketleft" unicode="[" horiz-adv-x="692" 
d="M778 1610q0 -49 -49 -49h-213l-231 -1647h200q49 0 49 -49t-49 -49h-259q-25 0 -41.5 19t-12.5 44l241 1717q4 25 25.5 44t46.5 19h244q49 0 49 -49z" />
    <glyph glyph-name="backslash" unicode="\" horiz-adv-x="894" 
d="M802 52q-7 -53 -64 -53q-34 0 -44 33l-393 1367q-4 12 -2 23q7 53 64 53q33 0 43 -33l394 -1366q4 -14 2 -24z" />
    <glyph glyph-name="bracketright" unicode="]" horiz-adv-x="692" 
d="M727 1596l-241 -1717q-4 -25 -25.5 -44t-46.5 -19h-244q-49 0 -49 49t49 49h213l231 1647h-199q-49 0 -49 49t49 49h258q25 0 41.5 -19t12.5 -44z" />
    <glyph glyph-name="asciicircum" unicode="^" horiz-adv-x="1064" 
d="M1062 615q0 -63 -63 -63q-47 0 -59 46l-117 445l-63 350h-54l-158 -350l-249 -459q-18 -32 -55 -32q-64 0 -64 63q0 17 7 28l443 792q6 12 28.5 25.5t35.5 13.5h90q13 0 31 -13.5t22 -25.5l222 -799q3 -12 3 -21z" />
    <glyph glyph-name="underscore" unicode="_" horiz-adv-x="922" 
d="M969 -121q0 -63 -63 -63h-922q-63 0 -63 63t63 63h922q63 0 63 -63z" />
    <glyph glyph-name="grave" unicode="`" horiz-adv-x="737" 
d="M769 1378q0 -45 -45 -45q-13 0 -25 7l-271 161q-26 16 -26 46q0 54 54 54q15 0 30 -10l262 -174q21 -15 21 -39z" />
    <glyph glyph-name="a" unicode="a" horiz-adv-x="1083" 
d="M1025 1052l-129 -916q-6 -46 30 -46q47 0 47 -54t-54 -54q-137 0 -148 131l42 78l-33 18q-24 -43 -78 -116q-100 -102 -245 -102q-116 0 -195 66q-87 73 -87 200q0 26 4 54l68 484q21 153 129 241q97 79 224 79q60 0 121 -28q66 -29 99 -78q23 -34 47 -121l37 9l-13 97
l8 58q9 63 64 63q27 0 46.5 -19t15.5 -44zM858 758q-3 100 -78.5 174.5t-179.5 74.5q-84 0 -144 -48q-67 -52 -81 -146l-73 -520q-2 -19 -2 -37q0 -157 172 -157q103 0 201 82q96 78 127 180z" />
    <glyph glyph-name="b" unicode="b" horiz-adv-x="1039" 
d="M1016 795l-68 -484q-45 -320 -358 -320q-129 0 -214 96q-26 29 -58 131l-38 -9l24 -97l-8 -58q-9 -63 -65 -63q-70 0 -61 63l190 1357q10 66 66 66q70 0 60 -66l-56 -402l-40 -94l33 -18q20 43 69 116q100 102 231 102q118 0 202 -67q94 -75 94 -203q0 -24 -3 -50z
M892 813q3 18 3 35q0 77 -51 120q-47 39 -121 39q-104 0 -201 -77t-128 -178l-54 -376q3 -103 76 -188q77 -89 179 -89q83 0 144 48q67 52 80 146z" />
    <glyph glyph-name="c" unicode="c" horiz-adv-x="814" 
d="M881 1052q0 -54 -54 -54h-200q-93 0 -168.5 -66t-89.5 -160l-61 -438q-2 -16 -2 -32q0 -83 55.5 -138.5t140.5 -55.5h184q54 0 54 -54t-54 -54h-199q-136 0 -224 96q-82 89 -82 212q0 22 3 44l57 402q24 171 140 265q107 87 261 87h185q54 0 54 -54z" />
    <glyph glyph-name="d" unicode="d" horiz-adv-x="1039" 
d="M1075 1411l-190 -1357q-9 -63 -65 -63q-70 0 -61 63l8 58l50 97l-34 9q-27 -50 -91 -131q-113 -96 -235 -96q-113 0 -195 74q-87 79 -87 200q0 23 4 46l68 484q45 320 368 320q121 0 208 -102q22 -26 55 -116l39 18l-24 94l56 402q10 66 66 66q70 0 60 -66zM859 767
q-3 99 -78.5 169.5t-180.5 70.5q-84 0 -145 -48q-67 -52 -80 -146l-73 -520q-2 -18 -2 -35q0 -77 51 -120q46 -39 121 -39q103 0 200 86q94 84 131 202z" />
    <glyph glyph-name="e" unicode="e" horiz-adv-x="1002" 
d="M984 763l-23 -166q-4 -25 -25.5 -44t-46.5 -19h-553l-28 -200q-2 -16 -2 -32q0 -83 55.5 -138.5t140.5 -55.5h293q54 0 54 -54t-54 -54h-308q-132 0 -219 87.5t-87 216.5q0 24 3 48l58 411q24 171 141 265q107 87 261 87h39q132 0 218.5 -86.5t86.5 -215.5q0 -25 -4 -50z
M861 781q2 16 2 32q0 83 -55.5 138.5t-139.5 55.5h-39q-94 0 -169.5 -66t-88.5 -160l-20 -139h490z" />
    <glyph glyph-name="f" unicode="f" horiz-adv-x="676" 
d="M867 1605q0 -54 -54 -54q-88 0 -152.5 -53.5t-76.5 -139.5l-36 -252h154q54 0 54 -54t-54 -54h-169l-132 -944q-9 -63 -65 -63q-70 0 -61 63l132 944h-153q-54 0 -54 54t54 54h168l33 234q45 319 358 319q54 0 54 -54z" />
    <glyph glyph-name="g" unicode="g" horiz-adv-x="1039" 
d="M1025 1052l-152 -1083q-20 -138 -143.5 -238t-265.5 -100h-261q-54 0 -54 54t54 54h257q90 0 182.5 72t104.5 158l33 238l40 94l-33 18q-21 -43 -69 -116q-94 -102 -229 -102q-123 0 -206 66q-93 74 -93 202q0 25 4 52l53 374q45 320 360 320q137 0 223 -106
q22 -28 37 -121l37 9l-13 97l8 58q9 63 65 63q70 0 61 -63zM858 758q-3 101 -75.5 175t-175.5 74q-85 0 -148 -48q-71 -53 -84 -146l-57 -410q-3 -18 -3 -34q0 -78 52 -121q47 -39 122 -39q121 0 216 93q80 79 115 192z" />
    <glyph glyph-name="h" unicode="h" horiz-adv-x="1039" 
d="M1016 795l-104 -741q-9 -63 -65 -63q-70 0 -61 63l106 759q3 20 3 38q0 156 -162 156q-103 0 -210 -96q-103 -92 -136 -204l-91 -653q-9 -63 -65 -63q-70 0 -61 63l190 1357q10 66 66 66q70 0 60 -66l-59 -420l-31 -103l35 -9q16 47 71 132q106 104 236 104
q116 0 194 -66q88 -73 88 -200q0 -26 -4 -54z" />
    <glyph glyph-name="i" unicode="i" horiz-adv-x="457" 
d="M493 1411l-8 -57q-9 -63 -65 -63q-70 0 -61 63l8 57q9 63 65 63q70 0 61 -63zM436 1052l-140 -998q-9 -63 -65 -63q-70 0 -61 63l140 998q9 63 65 63q70 0 61 -63z" />
    <glyph glyph-name="j" unicode="j" horiz-adv-x="515" 
d="M551 1411l-8 -57q-9 -63 -65 -63q-70 0 -61 63l8 57q9 63 65 63q70 0 61 -63zM494 1052l-155 -1102q-21 -148 -115.5 -233.5t-242.5 -85.5q-54 0 -54 54t54 54q83 0 150.5 56.5t78.5 136.5l158 1120q9 63 65 63q70 0 61 -63z" />
    <glyph glyph-name="k" unicode="k" horiz-adv-x="944" 
d="M1006 1052q0 -27 -18 -44l-358 -336l-154 -94l-8 -58l137 -106l270 -312q16 -19 16 -43q0 -28 -20 -48t-48 -20q-32 0 -50 22l-391 492h-23l-63 -451q-9 -63 -65 -63q-70 0 -61 63l190 1357q9 63 65 63q70 0 61 -63l-113 -803h21l502 486q21 21 47 21q63 0 63 -63z" />
    <glyph glyph-name="l" unicode="l" horiz-adv-x="494" 
d="M488 1420l-181 -1284q-6 -46 30 -46q54 0 54 -54t-54 -54q-155 0 -155 144q0 14 2 28l178 1266q8 63 64 63q70 0 62 -63z" />
    <glyph glyph-name="m" unicode="m" horiz-adv-x="1592" 
d="M1561 795l-104 -741q-9 -63 -65 -63q-70 0 -61 63l106 759q3 19 3 36q0 77 -50 119q-45 39 -119 39q-160 0 -297 -238l-98 -715q-9 -63 -65 -63q-70 0 -61 63l106 759q3 19 3 36q0 77 -50 119q-45 39 -119 39q-151 0 -296 -238l-98 -715q-9 -63 -65 -63q-70 0 -61 63
l139 995q10 66 66 66q70 0 60 -66l-6 -49l-32 -105l35 -7q16 45 63 124q94 103 195 103q167 0 237 -119q23 -38 10 -126h36q16 45 54 119q43 57 117 93q68 33 127 33q118 0 200 -67q93 -74 93 -202q0 -25 -3 -51z" />
    <glyph glyph-name="n" unicode="n" horiz-adv-x="1048" 
d="M1016 795l-104 -741q-9 -63 -65 -63q-70 0 -61 63l105 743q3 23 3 43q0 167 -171 167q-102 0 -203 -87q-96 -84 -128 -187l-96 -679q-9 -63 -65 -63q-70 0 -61 63l139 995q10 66 66 66q70 0 60 -66l-6 -49l-32 -103l35 -9q16 48 71 132q99 95 220 95q123 0 205 -66
q92 -73 92 -202q0 -25 -4 -52z" />
    <glyph glyph-name="o" unicode="o" horiz-adv-x="1012" 
d="M984 763l-58 -411q-24 -171 -129 -264q-100 -88 -251 -88h-49q-133 0 -224.5 90t-91.5 218q0 22 3 44l58 411q21 150 123 249q107 103 259 103h49q132 0 223 -91.5t91 -217.5q0 -22 -3 -43zM859 781q2 16 2 32q0 83 -55.5 138.5t-139.5 55.5h-29q-101 0 -178 -66
t-90 -160l-63 -447q-2 -17 -2 -33q0 -84 55.5 -138.5t140.5 -54.5h29q100 0 172 57q80 61 95 169z" />
    <glyph glyph-name="p" unicode="p" horiz-adv-x="1039" 
d="M1016 795l-68 -484q-24 -166 -133 -250q-92 -70 -225 -70q-138 0 -217 102q-21 26 -47 116l-38 -18l14 -94l-58 -411q-9 -66 -65 -66q-70 0 -61 66l192 1366q9 63 65 63q70 0 61 -63l-8 -58l-41 -97l35 -9q20 42 72 121q94 106 234 106q118 0 199 -66q92 -75 92 -203
q0 -25 -3 -51zM892 813q3 18 3 35q0 77 -51 120q-47 39 -121 39q-102 0 -204 -90q-97 -85 -129 -189l-52 -362q3 -102 77 -183q77 -84 180 -84q83 0 144 48q67 52 80 146z" />
    <glyph glyph-name="q" unicode="q" horiz-adv-x="1039" 
d="M1025 1052l-192 -1366q-9 -66 -66 -66q-69 0 -60 66l58 411l40 94l-34 18q-19 -44 -69 -116q-116 -102 -235 -102q-121 0 -204 73q-88 76 -88 200q0 23 4 47l68 484q22 158 132 244q96 76 226 76q144 0 215 -106q22 -33 47 -121l37 9l-13 97l8 58q9 63 65 63q70 0 61 -63
zM858 758q-3 100 -78.5 174.5t-179.5 74.5q-84 0 -145 -48q-67 -52 -80 -146l-73 -520q-2 -18 -2 -35q0 -77 51 -120q46 -39 121 -39q105 0 200.5 70.5t126.5 169.5z" />
    <glyph glyph-name="r" unicode="r" horiz-adv-x="701" 
d="M833 1052q0 -63 -63 -63h-40q-104 0 -206 -77.5t-133 -177.5l-94 -671q-9 -63 -65 -63q-70 0 -61 63l138 986q10 66 66 66q70 0 60 -66l-5 -40l-43 -114l35 -9q23 51 80 133q106 96 236 96h32q63 0 63 -63z" />
    <glyph glyph-name="s" unicode="s" horiz-adv-x="785" 
d="M810 1052q0 -54 -54 -54h-264q-50 0 -92 -35q-46 -37 -54 -95q-9 -63 30 -104l306 -319q53 -56 53 -156q0 -125 -81.5 -207t-207.5 -82h-304q-54 0 -54 54t54 54h299q60 0 108 38q52 42 63 114q9 70 -39 121l-302 317q-49 51 -49 144q0 113 76 188.5t189 75.5h269
q54 0 54 -54z" />
    <glyph glyph-name="t" unicode="t" horiz-adv-x="643" 
d="M737 1052q0 -54 -54 -54h-159l-132 -944q-9 -63 -65 -63q-70 0 -61 63l132 944h-143q-54 0 -54 54t54 54h158l43 305q9 63 65 63q70 0 61 -63l-43 -305h144q54 0 54 -54z" />
    <glyph glyph-name="u" unicode="u" 
d="M1052 1052l-140 -995q-9 -66 -65 -66q-70 0 -61 66l7 49l41 103l-34 9q-23 -46 -82 -132q-90 -95 -224 -95q-129 0 -209 72q-83 74 -83 197q0 25 4 51l104 741q9 63 65 63q70 0 61 -63l-107 -759q-2 -18 -2 -35q0 -77 51 -120q46 -39 121 -39q101 0 202 89q96 84 128 188
l97 676q9 63 65 63q70 0 61 -63z" />
    <glyph glyph-name="v" unicode="v" horiz-adv-x="958" 
d="M1034 1028l-437 -984q-6 -15 -28 -29.5t-38 -14.5h-90q-16 0 -34 14.5t-21 29.5l-174 989q-1 7 -1 13q0 69 68 69q52 0 60 -52l107 -733l16 -249h56l80 251l318 742q17 41 59 41q26 0 45 -19.5t19 -45.5q0 -12 -5 -22z" />
    <glyph glyph-name="w" unicode="w" horiz-adv-x="1534" 
d="M1587 1033l-379 -985q-7 -17 -29 -32.5t-39 -15.5h-90q-18 0 -36 16t-19 33l-64 729l5 247h-56l-58 -247l-263 -729q-6 -17 -28.5 -33t-40.5 -16h-90q-17 0 -34.5 15.5t-19.5 32.5l-107 1004q-3 25 16.5 44t46.5 19q57 0 62 -54l62 -683l-1 -297h56l77 293l246 683
q6 17 28 33t39 16h93q18 0 36 -16t20 -33l59 -683l-3 -293h56l79 297l255 689q18 48 61 48q26 0 45 -18.5t19 -43.5q0 -10 -4 -20z" />
    <glyph glyph-name="x" unicode="x" horiz-adv-x="922" 
d="M975 1052q0 -21 -11 -35l-347 -444l246 -489q8 -15 8 -30q0 -63 -63 -63q-41 0 -57 36l-150 327l-49 149h-38l-72 -149l-252 -338q-19 -25 -50 -25q-63 0 -63 63q0 22 13 38l377 481l-228 455q-4 11 -4 24q0 63 63 63q40 0 56 -34l135 -299l45 -138h38l61 136l227 309
q20 26 52 26q63 0 63 -63z" />
    <glyph glyph-name="y" unicode="y" horiz-adv-x="949" 
d="M1024 1026l-673 -1362q-16 -33 -55 -33q-63 0 -63 62q0 18 9 33l242 449h-16q-13 0 -31.5 13.5t-21.5 26.5l-203 820q-2 9 -2 17q0 63 63 63q50 0 60 -46l127 -546l35 -267h61l89 267l265 557q17 35 56 35q27 0 45.5 -19t18.5 -44q0 -14 -6 -26z" />
    <glyph glyph-name="z" unicode="z" horiz-adv-x="915" 
d="M943 1043l-13 -100q-3 -20 -17 -37l-527 -605l-183 -148l-8 -55l158 10h416q54 0 54 -54t-54 -54h-620q-25 0 -40.5 18.5t-12.5 43.5l13 101q2 20 17 37l480 551l219 192l9 64l-172 -10h-347q-54 0 -54 54t54 54h574q25 0 41 -18.5t13 -43.5z" />
    <glyph glyph-name="braceleft" unicode="{" horiz-adv-x="815" 
d="M892 1610q0 -49 -49 -49h-81q-45 0 -83.5 -34.5t-45.5 -78.5l-75 -536q-12 -88 -47 -117q-28 -23 -113 -35l-7 -54q24 -6 44 -13q46 -16 57 -34q25 -40 17 -98l-76 -537q-6 -44 23 -78t75 -34h67q49 0 49 -49t-49 -49h-67q-90 0 -147 58t-57 145q0 18 2 35l73 514
q1 8 1 16q0 41 -27.5 68.5t-70.5 27.5q-58 0 -50 58q9 58 67 58q46 0 83.5 33t43.5 80l73 513q33 239 240 239h81q49 0 49 -49z" />
    <glyph glyph-name="bar" unicode="|" horiz-adv-x="568" 
d="M597 1843l-311 -2212q-7 -54 -61 -54t-47 54l311 2212q8 54 62 54t46 -54z" />
    <glyph glyph-name="braceright" unicode="}" horiz-adv-x="815" 
d="M766 736q-8 -58 -66 -58q-46 0 -83.5 -32.5t-43.5 -79.5l-73 -514q-14 -102 -78 -168q-68 -70 -164 -70h-79q-49 0 -49 49t49 49h79q44 0 84 33.5t46 78.5l76 537q11 77 48 113q33 32 112 38l7 54q-22 4 -41 10q-44 15 -58 37q-27 41 -19 99l75 536q2 7 2 15
q0 41 -30 69.5t-73 28.5h-63q-49 0 -49 49t49 49h63q92 0 150 -58.5t58 -145.5q0 -18 -2 -35l-73 -513q-1 -8 -1 -16q0 -41 27.5 -69t70.5 -28q58 0 49 -58z" />
    <glyph glyph-name="asciitilde" unicode="~" horiz-adv-x="1291" 
d="M1253 1043l-38 -265q-13 -93 -88 -159t-168 -66q-115 0 -171 97l-169 292q-22 38 -72 38q-43 0 -83 -29q-43 -30 -48 -70l-37 -265q-8 -54 -62 -54t-46 54l37 265q13 93 88 159t168 66q115 0 168 -91l168 -292q25 -44 76 -44q43 0 84.5 29.5t46.5 69.5l38 265q7 54 61 54
t47 -54z" />
    <glyph glyph-name="uni00A0" unicode="&#xa0;" horiz-adv-x="553" 
 />
    <glyph glyph-name="exclamdown" unicode="&#xa1;" horiz-adv-x="540" 
d="M496 985q0 -83 -83 -83t-83 83v58q0 83 83 83t83 -83v-58zM398 463l-108 -768q-9 -63 -72 -63t-54 63l108 768q9 63 72 63t54 -63z" />
    <glyph glyph-name="cent" unicode="&#xa2;" horiz-adv-x="958" 
d="M1022 1032q0 -54 -54 -54h-344q-93 0 -168.5 -66t-88.5 -160l-30 -214q-3 -16 -3 -32q0 -83 56 -138.5t141 -55.5h328q54 0 54 -54t-54 -54h-166l-21 -150q-9 -63 -72 -63t-54 63l21 150h-36q-134 0 -227.5 92t-93.5 218q0 21 3 42l25 178q22 156 130.5 254t255.5 98h67
l21 151q9 63 72 63t54 -63l-21 -151h151q54 0 54 -54z" />
    <glyph glyph-name="sterling" unicode="&#xa3;" horiz-adv-x="1048" 
d="M1176 1420q0 -54 -54 -54h-158q-150 0 -271.5 -106.5t-142.5 -256.5l-16 -114h320q54 0 54 -54t-54 -54h-335l-95 -673h506q54 0 54 -54t-54 -54h-796q-54 0 -54 54t54 54h164l95 673h-150q-54 0 -54 54t54 54h165l13 96q29 206 185.5 347.5t357.5 141.5h158q54 0 54 -54
z" />
    <glyph glyph-name="currency" unicode="&#xa4;" horiz-adv-x="1253" 
d="M1332 1198q0 -59 -59 -59q-36 0 -53 32q-102 204 -304 204q-150 0 -271.5 -106.5t-142.5 -256.5l-8 -60h351q54 0 54 -54t-54 -54h-366l-29 -204h351q54 0 54 -54t-54 -54h-366l-10 -70q-3 -24 -3 -47q0 -131 89.5 -223.5t225.5 -92.5q113 0 203 63q64 44 149 151
q18 22 46 22q59 0 59 -59q0 -19 -12 -36q-173 -249 -445 -249q-186 0 -313 122.5t-127 302.5q0 32 4 64l8 52h-101q-54 0 -54 54t54 54h116l29 204h-101q-54 0 -54 54t54 54h116l6 42q30 215 184 352t358 137q140 0 252.5 -71.5t158.5 -188.5q5 -14 5 -25z" />
    <glyph glyph-name="yen" unicode="&#xa5;" horiz-adv-x="1067" 
d="M1188 1422q0 -27 -17 -44l-442 -440l-13 -94h280q54 0 54 -54t-54 -54h-296l-28 -201h281q54 0 54 -54t-54 -54h-296l-52 -373q-9 -63 -72 -63t-54 63l52 373h-280q-54 0 -54 54t54 54h295l28 201h-280q-54 0 -54 54t54 54h296l13 94l-325 447q-12 17 -12 37q0 63 63 63
q33 0 54 -30l161 -235l106 -199h54l137 199l238 245q20 20 46 20q63 0 63 -63z" />
    <glyph glyph-name="brokenbar" unicode="&#xa6;" horiz-adv-x="553" 
d="M598 1843l-121 -859q-9 -63 -72 -63t-54 63l121 859q9 63 72 63t54 -63zM408 490l-121 -859q-9 -63 -72 -63t-54 63l121 859q9 63 72 63t54 -63z" />
    <glyph glyph-name="section" unicode="&#xa7;" horiz-adv-x="1099" 
d="M1090 1420q0 -54 -54 -54h-361q-84 0 -142.5 -62t-58.5 -147q0 -93 82 -135l335 -172q131 -67 131 -234q0 -86 -50 -168q-48 -78 -123 -127q84 -79 84 -184q0 -136 -95 -228.5t-233 -92.5h-360q-54 0 -54 54t54 54h360q85 0 142.5 60.5t57.5 146.5q0 44 -25.5 86
t-61.5 60l-329 162q-131 64 -131 234q0 86 50 169q48 78 123 127q-85 80 -85 184q0 136 96 228.5t233 92.5h361q54 0 54 -54zM895 609q0 100 -73 138l-179 92l-99 94h-45l-78 -129q-36 -59 -36 -123q0 -100 75 -138l163 -83l113 -104h45l62 107q52 69 52 146z" />
    <glyph glyph-name="dieresis" unicode="&#xa8;" horiz-adv-x="968" 
d="M946 1408q0 -63 -63 -63h-57q-63 0 -63 63t63 63h57q63 0 63 -63zM600 1408q0 -63 -63 -63h-57q-63 0 -63 63t63 63h57q63 0 63 -63z" />
    <glyph glyph-name="copyright" unicode="&#xa9;" horiz-adv-x="1843" 
d="M1770 836q0 -365 -250 -605q-241 -231 -583 -231q-279 0 -467.5 183.5t-188.5 454.5q0 350 250 595q246 241 583 241q279 0 467.5 -183.5t188.5 -454.5zM1661 825q0 231 -155 386t-392 155q-298 0 -511.5 -214.5t-213.5 -502.5q0 -231 155.5 -386t392.5 -155
q306 0 518 216q206 211 206 501zM1403 978q0 -55 -55 -55q-31 0 -45 22q-83 126 -232 126q-154 0 -256 -122q-96 -116 -96 -271q0 -121 67 -196q71 -79 191 -79q79 0 144 40q38 23 111 91q16 16 38 16q55 0 55 -55q0 -20 -11 -33q-139 -168 -337 -168q-167 0 -275.5 109
t-108.5 271q0 200 138 351q141 155 340 155q210 0 320 -167q12 -17 12 -35z" />
    <glyph glyph-name="ordfeminine" unicode="&#xaa;" horiz-adv-x="870" 
d="M907 1241q0 -19 -3 -38l-82 -587q-9 -63 -72 -63q-55 0 -55 52v24l43 99l-25 9q-12 -20 -59 -81q-93 -103 -207 -103q-105 0 -167 61.5t-62 164.5q0 152 125 254q120 97 286 97h139l13 91q1 10 1 20q0 53 -36 89t-90 36h-173q-54 0 -54 54t54 54h173q112 0 181.5 -66.5
t69.5 -166.5zM753 1022h-124q-115 0 -196 -63q-88 -68 -88 -180q0 -118 112 -118q88 0 180.5 94.5t105.5 192.5z" />
    <glyph glyph-name="guillemotleft" unicode="&#xab;" horiz-adv-x="1079" 
d="M1063 868q0 -25 -20 -42l-188 -158l-150 -106l-5 -36l111 -100l137 -150q15 -17 15 -38q0 -54 -54 -54q-26 0 -42 19l-267 314q-13 15 -10 37q3 24 20 39l362 315q16 14 37 14q54 0 54 -54zM695 868q0 -25 -20 -42l-188 -158l-150 -106l-5 -36l111 -100l137 -150
q15 -17 15 -38q0 -54 -54 -54q-26 0 -42 19l-267 314q-13 15 -10 37q3 24 20 39l362 315q16 14 37 14q54 0 54 -54z" />
    <glyph glyph-name="logicalnot" unicode="&#xac;" horiz-adv-x="904" 
d="M869 647l-52 -366q-8 -59 -67 -59q-58 0 -50 59l44 308h-505q-58 0 -58 59q0 58 58 58h579q24 0 39 -18t12 -41z" />
    <glyph glyph-name="registered" unicode="&#xae;" horiz-adv-x="918" 
d="M1043 1111q0 -192 -145 -335.5t-339 -143.5q-163 0 -274.5 111t-111.5 270q0 192 145.5 336t339.5 144q163 0 274 -111.5t111 -270.5zM965 1111q0 130 -87 217t-220 87q-167 0 -286.5 -120.5t-119.5 -281.5q0 -130 87 -216.5t220 -86.5q172 0 291 121q115 117 115 280z
M803 1169q0 -107 -120 -140l-8 -20l51 -59l34 -78q3 -9 3 -17q0 -21 -17.5 -35.5t-37.5 -14.5q-26 0 -35 24l-73 185h-75l-23 -163q-7 -46 -52 -46q-40 0 -40 38q0 5 1 8l57 410q7 46 53 46h144q57 0 97.5 -39t40.5 -99zM712 1169q0 56 -47 56h-111l-18 -130h111q25 0 45 24
t20 50z" />
    <glyph glyph-name="macron" unicode="&#xaf;" horiz-adv-x="958" 
d="M987 1487q0 -54 -54 -54h-490q-54 0 -54 54t54 54h490q54 0 54 -54z" />
    <glyph glyph-name="degree" unicode="&#xb0;" horiz-adv-x="999" 
d="M449 1130q0 -77 52 -129t131 -52q97 0 170.5 72.5t73.5 168.5q0 77 -52.5 129.5t-131.5 52.5q-96 0 -169.5 -73t-73.5 -169zM692 1480q125 0 208.5 -84.5t83.5 -205.5q0 -141 -105.5 -245t-246.5 -104q-125 0 -208 84t-83 205q0 141 105 245.5t246 104.5z" />
    <glyph glyph-name="plusminus" unicode="&#xb1;" horiz-adv-x="1093" 
d="M1085 647q0 -49 -50 -49h-355l-58 -414h341q50 0 50 -49q0 -50 -50 -50h-795q-50 0 -50 50q0 49 50 49h355l58 414h-342q-49 0 -49 50q0 49 49 49h356l49 348q7 49 56 49q50 0 43 -49l-49 -348h341q50 0 50 -50z" />
    <glyph glyph-name="uni00B2" unicode="&#xb2;" horiz-adv-x="718" 
d="M776 1191q-16 -57 -53 -95l-251 -263l-190 -154l-6 -45l209 27h182q54 0 46 -54q-7 -54 -61 -54h-421q-26 0 -42 18.5t-12 44.5l7 53q3 21 18 38l433 467q26 28 26 85q0 107 -99 107h-217q-54 0 -46 54q7 54 61 54h217q91 0 151 -58.5t60 -147.5q0 -37 -12 -77z" />
    <glyph glyph-name="uni00B3" unicode="&#xb3;" horiz-adv-x="628" 
d="M711 1232q-8 -58 -53 -107q-34 -37 -119 -68l-7 -45q26 -11 47 -24q49 -30 64 -62q19 -42 14 -80l-6 -41q-15 -104 -99 -178t-188 -74h-187q-54 0 -47 54q8 54 62 54h187q52 0 94 37t50 89l9 68q1 9 1 17q0 46 -31 77t-78 31h-66q-54 0 -47 54q8 54 62 54h66q54 0 95 36
t50 99q2 14 2 28q0 115 -108 115h-187q-54 0 -46 54q7 54 61 54h187q96 0 158.5 -58.5t62.5 -148.5q0 -17 -3 -35z" />
    <glyph glyph-name="acute" unicode="&#xb4;" horiz-adv-x="737" 
d="M800 1547q0 -34 -29 -48l-337 -166q-10 -5 -19 -5q-45 0 -45 46q0 27 24 40l325 180q13 7 27 7q54 0 54 -54z" />
    <glyph glyph-name="uni00B5" unicode="&#xb5;" 
d="M1052 1052l-140 -995q-9 -66 -72 -66t-54 66l7 49l41 103l-34 9q-23 -47 -84 -132q-95 -95 -232 -95q-160 0 -177 142l-29 -9l2 -180l-36 -258q-9 -66 -72 -66t-54 66l192 1366q9 63 72 63t54 -63l-107 -759q-2 -13 -2 -26q0 -71 50 -119.5t122 -48.5q117 0 228 136
q101 122 117 238l82 579q9 63 72 63t54 -63z" />
    <glyph glyph-name="paragraph" unicode="&#xb6;" horiz-adv-x="1158" 
d="M1167 1411l-190 -1357q-9 -63 -72 -63t-54 63l184 1312h-219l-184 -1312q-9 -63 -72 -63t-54 63l95 678q-132 6 -219 104t-87 234q0 26 4 52q21 152 146 253q122 99 278 99h390q25 0 41.5 -19t12.5 -44z" />
    <glyph glyph-name="periodcentered" unicode="&#xb7;" horiz-adv-x="549" 
d="M463 629q0 -44 -31 -70q-27 -24 -64 -24q-38 0 -64 24q-30 26 -30 70v58q0 44 30 70q26 24 64 24q37 0 64 -24q31 -26 31 -70v-58z" />
    <glyph glyph-name="cedilla" unicode="&#xb8;" horiz-adv-x="722" 
d="M470 -87q0 -15 -12 -30l-195 -240q-13 -16 -35 -16q-47 0 -47 47q0 17 11 31l196 239q13 16 35 16q47 0 47 -47z" />
    <glyph glyph-name="uni00B9" unicode="&#xb9;" horiz-adv-x="645" 
d="M681 1411l-111 -795q-9 -63 -72 -63t-54 63l71 507l76 225l-50 22l-148 -180l-83 -81q-21 -20 -47 -20q-25 0 -42 19.5t-14 45.5q3 23 26 43l294 258q22 19 47 19h53q25 0 41.5 -19t12.5 -44z" />
    <glyph glyph-name="ordmasculine" unicode="&#xba;" horiz-adv-x="905" 
d="M936 1178l-47 -333q-18 -127 -111.5 -214t-216.5 -87h-33q-116 0 -196.5 76t-80.5 186q0 20 3 39l47 333q17 127 110.5 214.5t217.5 87.5h33q115 0 195.5 -76t80.5 -187q0 -20 -2 -39zM812 1196q2 13 2 25q0 64 -43 107.5t-109 43.5h-33q-73 0 -131.5 -51.5t-68.5 -124.5
l-52 -369q-2 -13 -2 -25q0 -64 43.5 -107t109.5 -43h33q72 0 130.5 51t68.5 124z" />
    <glyph glyph-name="guillemotright" unicode="&#xbb;" horiz-adv-x="1079" 
d="M1013 554q-3 -22 -20 -37l-365 -320q-15 -13 -35 -13q-54 0 -54 54q0 25 20 42l199 167l139 100l5 36l-118 108l-134 144q-11 12 -11 33q0 54 55 54q24 0 39 -17l270 -312q13 -15 10 -39zM645 554q-3 -22 -20 -37l-365 -320q-15 -13 -35 -13q-54 0 -54 54q0 25 20 42
l199 167l139 100l5 36l-118 108l-134 144q-11 12 -11 33q0 54 55 54q24 0 39 -17l270 -312q13 -15 10 -39z" />
    <glyph glyph-name="onequarter" unicode="&#xbc;" horiz-adv-x="1801" 
d="M1753 298q-8 -54 -62 -54h-97l-26 -190q-9 -63 -72 -63t-54 63l26 190h-324q-25 0 -41 19t-13 44l8 53q2 20 15 35l404 499q22 28 57 28h53q25 0 41 -19t13 -44l-72 -507h97q54 0 47 -54zM1528 1431q-2 -14 -12 -28l-969 -1384q-21 -29 -49 -29q-57 0 -50 53q2 14 12 28
l969 1384q21 29 50 29q57 0 49 -53zM726 1411l-111 -795q-9 -63 -72 -63t-54 63l71 507l76 225l-50 22l-148 -180l-83 -81q-21 -20 -47 -20q-25 0 -42 19.5t-14 45.5q3 23 26 43l294 258q22 19 47 19h53q25 0 41.5 -19t12.5 -44zM1592 803l-44 9l-134 -214l-81 -107
l-155 -139l13 -36l194 36h98l29 204z" />
    <glyph glyph-name="onehalf" unicode="&#xbd;" horiz-adv-x="1835" 
d="M1818 648q-16 -62 -56 -104l-251 -263l-189 -155l-7 -45l209 27h182q54 0 47 -54q-8 -54 -62 -54h-421q-26 0 -42 18.5t-12 44.5l7 53q3 22 19 39l432 466q26 28 26 85q0 108 -99 108h-217q-54 0 -46 54t62 54h217q91 0 150.5 -59t59.5 -148q0 -32 -9 -67zM1528 1431
q-2 -14 -12 -28l-969 -1384q-21 -29 -49 -29q-57 0 -50 53q2 14 12 28l969 1384q21 29 50 29q57 0 49 -53zM726 1411l-111 -795q-9 -63 -72 -63t-54 63l71 507l76 225l-50 22l-148 -180l-83 -81q-21 -20 -47 -20q-25 0 -42 19.5t-14 45.5q3 23 26 43l294 258q22 19 47 19h53
q25 0 41.5 -19t12.5 -44z" />
    <glyph glyph-name="threequarters" unicode="&#xbe;" horiz-adv-x="1801" 
d="M1753 298q-8 -54 -62 -54h-97l-26 -190q-9 -63 -72 -63t-54 63l26 190h-324q-25 0 -41 19t-13 44l8 53q2 20 15 35l404 499q22 28 57 28h53q25 0 41 -19t13 -44l-72 -507h97q54 0 47 -54zM1528 1431q-2 -14 -12 -28l-969 -1384q-21 -29 -49 -29q-57 0 -50 53q2 14 12 28
l969 1384q21 29 50 29q57 0 49 -53zM756 1232q-8 -58 -53 -107q-34 -37 -119 -68l-7 -45q26 -11 47 -24q49 -30 64 -62q19 -42 14 -80l-6 -41q-15 -104 -99 -178t-188 -74h-187q-54 0 -47 54q8 54 62 54h187q52 0 94 37t50 89l9 68q1 9 1 17q0 46 -31 77t-78 31h-66
q-54 0 -47 54q8 54 62 54h66q54 0 95 36t50 99q2 14 2 28q0 115 -108 115h-187q-54 0 -46 54q7 54 61 54h187q96 0 158.5 -58.5t62.5 -148.5q0 -17 -3 -35zM1592 803l-44 9l-134 -214l-81 -107l-155 -139l13 -36l194 36h98l29 204z" />
    <glyph glyph-name="questiondown" unicode="&#xbf;" horiz-adv-x="846" 
d="M740 985q0 -83 -83 -83t-83 83v58q0 83 83 83t83 -83v-58zM852 -314q0 -54 -54 -54h-383q-138 0 -228.5 90.5t-90.5 224.5q0 172 129 305l321 329q24 25 51 25q54 0 47 -54q-3 -18 -21 -37l-299 -325q-101 -110 -101 -236q0 -97 58 -155.5t149 -58.5h368q54 0 54 -54z
" />
    <glyph glyph-name="Agrave" unicode="&#xc0;" horiz-adv-x="1218" 
d="M1154 51q-8 -60 -64 -60q-53 0 -60 44l-74 466h-547l-205 -471q-17 -39 -58 -39q-64 0 -64 63q0 13 6 25l605 1351q20 44 66 44h108q16 0 34 -14.5t21 -29.5l231 -1357q2 -13 1 -22zM947 627l-33 124l-45 282l-30 360h-68l-131 -360l-124 -282l-69 -124l9 -36l165 18h149
l158 -18zM909 1748q0 -45 -45 -45q-13 0 -25 7l-271 161q-26 16 -26 46q0 54 54 54q15 0 30 -10l262 -174q21 -15 21 -39z" />
    <glyph glyph-name="Aacute" unicode="&#xc1;" horiz-adv-x="1219" 
d="M1154 51q-8 -60 -64 -60q-53 0 -60 44l-74 466h-547l-205 -471q-17 -39 -58 -39q-64 0 -64 63q0 13 6 25l605 1351q20 44 66 44h108q16 0 34 -14.5t21 -29.5l231 -1357q2 -13 1 -22zM947 627l-33 124l-45 282l-30 360h-68l-131 -360l-124 -282l-69 -124l9 -36l165 18h149
l158 -18zM1090 1927q0 -34 -29 -48l-337 -166q-10 -5 -19 -5q-45 0 -45 46q0 27 24 40l325 180q13 7 27 7q54 0 54 -54z" />
    <glyph glyph-name="Acircumflex" unicode="&#xc2;" horiz-adv-x="1219" 
d="M1092 1754q0 -48 -48 -48q-22 0 -37 17l-93 108l-67 117h-18l-102 -117l-134 -114q-13 -11 -30 -11q-48 0 -48 48q0 22 14 35l270 245q19 17 41 17q23 0 37 -17l202 -247q13 -16 13 -33zM1154 51q-8 -60 -64 -60q-53 0 -60 44l-74 466h-547l-205 -471q-17 -39 -58 -39
q-64 0 -64 63q0 13 6 25l605 1351q20 44 66 44h108q16 0 34 -14.5t21 -29.5l231 -1357q2 -13 1 -22zM947 627l-33 124l-45 282l-30 360h-68l-131 -360l-124 -282l-69 -124l9 -36l165 18h149l158 -18z" />
    <glyph glyph-name="Atilde" unicode="&#xc3;" horiz-adv-x="1218" 
d="M1152 1917q0 -11 -6 -22l-44 -80q-65 -116 -163 -116q-58 0 -94 37q-21 21 -54 85q-26 49 -61 49q-37 0 -75 -67l-51 -90q-12 -22 -38 -22q-44 0 -44 44q0 12 6 23l47 81q70 121 166 121q60 0 96 -37q18 -19 53 -85q26 -49 60 -49t54 34l68 119q11 19 36 19q44 0 44 -44z
M1154 51q-8 -60 -64 -60q-53 0 -60 44l-74 466h-547l-205 -471q-17 -39 -58 -39q-64 0 -64 63q0 13 6 25l605 1351q20 44 66 44h108q16 0 34 -14.5t21 -29.5l231 -1357q2 -13 1 -22zM947 627l-33 124l-45 282l-30 360h-68l-131 -360l-124 -282l-69 -124l9 -36l165 18h149
l158 -18z" />
    <glyph glyph-name="Adieresis" unicode="&#xc4;" horiz-adv-x="1218" 
d="M1085 1798q0 -63 -63 -63h-57q-63 0 -63 63t63 63h57q63 0 63 -63zM739 1798q0 -63 -63 -63h-57q-63 0 -63 63t63 63h57q63 0 63 -63zM1154 51q-8 -60 -64 -60q-53 0 -60 44l-74 466h-547l-205 -471q-17 -39 -58 -39q-64 0 -64 63q0 13 6 25l605 1351q20 44 66 44h108
q16 0 34 -14.5t21 -29.5l231 -1357q2 -13 1 -22zM947 627l-33 124l-45 282l-30 360h-68l-131 -360l-124 -282l-69 -124l9 -36l165 18h149l158 -18z" />
    <glyph glyph-name="Aring" unicode="&#xc5;" horiz-adv-x="1218" 
d="M634 1853q0 88 65.5 153t153.5 65q79 0 133.5 -54t54.5 -132q0 -89 -66 -154t-154 -65q-80 0 -133.5 54.5t-53.5 132.5zM724 1853q0 -41 27.5 -69t69.5 -28q51 0 90.5 39t39.5 90q0 41 -28 68.5t-70 27.5q-51 0 -90 -38.5t-39 -89.5zM1154 51q-8 -60 -64 -60
q-53 0 -60 44l-74 466h-547l-205 -471q-17 -39 -58 -39q-64 0 -64 63q0 13 6 25l605 1351q20 44 66 44h108q16 0 34 -14.5t21 -29.5l231 -1357q2 -13 1 -22zM947 627l-33 124l-45 282l-30 360h-68l-131 -360l-124 -282l-69 -124l9 -36l165 18h149l158 -18z" />
    <glyph glyph-name="AE" unicode="&#xc6;" horiz-adv-x="1659" 
d="M1750 1420q0 -54 -54 -54h-557l-67 -480h496q54 0 54 -54t-54 -54h-511l-94 -670h541q54 0 54 -54t-54 -54h-620q-63 0 -54 63l61 429h-441l-240 -467q-18 -35 -58 -35q-65 0 -65 65q0 16 8 31l683 1347q7 13 28.5 27t36.5 14h853q54 0 54 -54zM1013 1366h-167l-129 -332
l-215 -434h404z" />
    <glyph glyph-name="Ccedilla" unicode="&#xc7;" horiz-adv-x="995" 
d="M1106 1420q0 -54 -54 -54h-217q-151 0 -277 -107t-147 -256l-75 -532q-4 -27 -4 -54q0 -132 85.5 -220.5t220.5 -88.5h240q54 0 54 -54t-54 -54h-245q-184 0 -304.5 121t-120.5 300q0 34 5 68l69 496q29 203 188 346t360 143h222q54 0 54 -54zM650 -87q0 -15 -12 -30
l-195 -240q-13 -16 -35 -16q-47 0 -47 47q0 17 11 31l196 239q13 16 35 16q47 0 47 -47z" />
    <glyph glyph-name="Egrave" unicode="&#xc8;" horiz-adv-x="1043" 
d="M1135 1420q0 -54 -54 -54h-574l-67 -480h515q54 0 54 -54t-54 -54h-531l-94 -670h559q54 0 54 -54t-54 -54h-637q-25 0 -41.5 19t-12.5 44l189 1348q4 25 25.5 44t46.5 19h622q54 0 54 -54zM869 1748q0 -45 -45 -45q-13 0 -25 7l-271 161q-26 16 -26 46q0 54 54 54
q15 0 30 -10l262 -174q21 -15 21 -39z" />
    <glyph glyph-name="Eacute" unicode="&#xc9;" horiz-adv-x="1043" 
d="M1135 1420q0 -54 -54 -54h-574l-67 -480h515q54 0 54 -54t-54 -54h-531l-94 -670h559q54 0 54 -54t-54 -54h-637q-25 0 -41.5 19t-12.5 44l189 1348q4 25 25.5 44t46.5 19h622q54 0 54 -54zM1000 1927q0 -34 -29 -48l-337 -166q-10 -5 -19 -5q-45 0 -45 46q0 27 24 40
l325 180q13 7 27 7q54 0 54 -54z" />
    <glyph glyph-name="Ecircumflex" unicode="&#xca;" horiz-adv-x="1043" 
d="M1135 1420q0 -54 -54 -54h-574l-67 -480h515q54 0 54 -54t-54 -54h-531l-94 -670h559q54 0 54 -54t-54 -54h-637q-25 0 -41.5 19t-12.5 44l189 1348q4 25 25.5 44t46.5 19h622q54 0 54 -54zM1042 1754q0 -48 -48 -48q-22 0 -37 17l-93 108l-67 117h-18l-102 -117
l-134 -114q-13 -11 -30 -11q-48 0 -48 48q0 22 14 35l270 245q19 17 41 17q23 0 37 -17l202 -247q13 -16 13 -33z" />
    <glyph glyph-name="Edieresis" unicode="&#xcb;" horiz-adv-x="1043" 
d="M1013 1798q0 -63 -63 -63h-57q-63 0 -63 63t63 63h57q63 0 63 -63zM667 1798q0 -63 -63 -63h-57q-63 0 -63 63t63 63h57q63 0 63 -63zM1135 1420q0 -54 -54 -54h-574l-67 -480h515q54 0 54 -54t-54 -54h-531l-94 -670h559q54 0 54 -54t-54 -54h-637q-25 0 -41.5 19
t-12.5 44l189 1348q4 25 25.5 44t46.5 19h622q54 0 54 -54z" />
    <glyph glyph-name="Igrave" unicode="&#xcc;" horiz-adv-x="504" 
d="M515 1420l-192 -1366q-9 -63 -65 -63q-70 0 -61 63l192 1366q8 63 64 63q70 0 62 -63zM570 1748q0 -45 -45 -45q-13 0 -25 7l-271 161q-26 16 -26 46q0 54 54 54q15 0 30 -10l262 -174q21 -15 21 -39z" />
    <glyph glyph-name="Iacute" unicode="&#xcd;" horiz-adv-x="504" 
d="M515 1420l-192 -1366q-9 -63 -65 -63q-70 0 -61 63l192 1366q8 63 64 63q70 0 62 -63zM800 1927q0 -34 -29 -48l-337 -166q-10 -5 -19 -5q-45 0 -45 46q0 27 24 40l325 180q13 7 27 7q54 0 54 -54z" />
    <glyph glyph-name="Icircumflex" unicode="&#xce;" horiz-adv-x="504" 
d="M761 1754q0 -48 -48 -48q-22 0 -37 17l-93 108l-67 117h-18l-102 -117l-134 -114q-13 -11 -30 -11q-48 0 -48 48q0 22 14 35l270 245q19 17 41 17q23 0 37 -17l202 -247q13 -16 13 -33zM515 1420l-192 -1366q-9 -63 -65 -63q-70 0 -61 63l192 1366q8 63 64 63
q70 0 62 -63z" />
    <glyph glyph-name="Idieresis" unicode="&#xcf;" horiz-adv-x="504" 
d="M735 1798q0 -63 -63 -63h-57q-63 0 -63 63t63 63h57q63 0 63 -63zM389 1798q0 -63 -63 -63h-57q-63 0 -63 63t63 63h57q63 0 63 -63zM515 1420l-192 -1366q-9 -63 -65 -63q-70 0 -61 63l192 1366q8 63 64 63q70 0 62 -63z" />
    <glyph glyph-name="Eth" unicode="&#xd0;" horiz-adv-x="1201" 
d="M1193 897l-45 -320q-34 -241 -216 -408q-185 -169 -422 -169h-258q-25 0 -41.5 19t-12.5 44l189 1348q4 25 25.5 44t46.5 19h228q219 0 365.5 -143.5t146.5 -355.5q0 -39 -6 -78zM1070 915q4 33 4 66q0 165 -107 275t-275 110h-185l-67 -480h235q54 0 54 -54t-54 -54
h-251l-94 -670h175q185 0 337 136t178 315z" />
    <glyph glyph-name="Ntilde" unicode="&#xd1;" horiz-adv-x="1345" 
d="M1222 1907q0 -11 -6 -22l-44 -80q-65 -116 -163 -116q-58 0 -94 37q-21 21 -54 85q-26 49 -61 49q-37 0 -75 -67l-51 -90q-12 -22 -38 -22q-44 0 -44 44q0 12 6 23l47 81q70 121 166 121q60 0 96 -37q18 -19 53 -85q26 -49 60 -49t54 34l68 119q11 19 36 19q44 0 44 -44z
M1356 1420l-191 -1357q-4 -25 -25.5 -44t-46.5 -19h-90q-12 0 -30.5 12.5t-21.5 22.5l-330 959l-92 374h-54l-27 -425l-125 -889q-10 -66 -66 -66q-70 0 -60 66l190 1357q9 63 72 63h90q12 0 30.5 -12.5t21.5 -22.5l313 -907l107 -426h54l31 436l124 878q8 63 64 63
q70 0 62 -63z" />
    <glyph glyph-name="Ograve" unicode="&#xd2;" horiz-adv-x="1163" 
d="M1174 1104l-103 -734q-23 -166 -136.5 -268t-268.5 -102h-142q-140 0 -235.5 95t-95.5 229q0 23 3 46l103 734q23 165 137 267.5t268 102.5h142q140 0 235.5 -94t95.5 -229q0 -23 -3 -47zM1051 1122q2 19 2 38q0 90 -56 147q-59 59 -156 59h-128q-114 0 -192.5 -70
t-92.5 -174l-109 -770q-2 -19 -2 -38q0 -89 57.5 -147.5t154.5 -58.5h128q112 0 193 71q78 69 92 173zM929 1748q0 -45 -45 -45q-13 0 -25 7l-271 161q-26 16 -26 46q0 54 54 54q15 0 30 -10l262 -174q21 -15 21 -39z" />
    <glyph glyph-name="Oacute" unicode="&#xd3;" horiz-adv-x="1163" 
d="M1174 1104l-103 -734q-23 -166 -136.5 -268t-268.5 -102h-142q-140 0 -235.5 95t-95.5 229q0 23 3 46l103 734q23 165 137 267.5t268 102.5h142q140 0 235.5 -94t95.5 -229q0 -23 -3 -47zM1051 1122q2 19 2 38q0 90 -56 147q-59 59 -156 59h-128q-114 0 -192.5 -70
t-92.5 -174l-109 -770q-2 -19 -2 -38q0 -89 57.5 -147.5t154.5 -58.5h128q112 0 193 71q78 69 92 173zM1070 1927q0 -34 -29 -48l-337 -166q-10 -5 -19 -5q-45 0 -45 46q0 27 24 40l325 180q13 7 27 7q54 0 54 -54z" />
    <glyph glyph-name="Ocircumflex" unicode="&#xd4;" horiz-adv-x="1163" 
d="M1081 1754q0 -48 -48 -48q-22 0 -37 17l-93 108l-67 117h-18l-102 -117l-134 -114q-13 -11 -30 -11q-48 0 -48 48q0 22 14 35l270 245q19 17 41 17q23 0 37 -17l202 -247q13 -16 13 -33zM1174 1104l-103 -734q-23 -166 -136.5 -268t-268.5 -102h-142q-140 0 -235.5 95
t-95.5 229q0 23 3 46l103 734q23 165 137 267.5t268 102.5h142q140 0 235.5 -94t95.5 -229q0 -23 -3 -47zM1051 1122q2 19 2 38q0 90 -56 147q-59 59 -156 59h-128q-114 0 -192.5 -70t-92.5 -174l-109 -770q-2 -19 -2 -38q0 -89 57.5 -147.5t154.5 -58.5h128q112 0 193 71
q78 69 92 173z" />
    <glyph glyph-name="Otilde" unicode="&#xd5;" horiz-adv-x="1163" 
d="M1106 1917q0 -11 -6 -22l-44 -80q-65 -116 -163 -116q-58 0 -94 37q-21 21 -54 85q-26 49 -61 49q-37 0 -75 -67l-51 -90q-12 -22 -38 -22q-44 0 -44 44q0 12 6 23l47 81q70 121 166 121q60 0 96 -37q18 -19 53 -85q26 -49 60 -49t54 34l68 119q11 19 36 19q44 0 44 -44z
M1174 1104l-103 -734q-23 -166 -136.5 -268t-268.5 -102h-142q-140 0 -235.5 95t-95.5 229q0 23 3 46l103 734q23 165 137 267.5t268 102.5h142q140 0 235.5 -94t95.5 -229q0 -23 -3 -47zM1051 1122q2 19 2 38q0 90 -56 147q-59 59 -156 59h-128q-114 0 -192.5 -70
t-92.5 -174l-109 -770q-2 -19 -2 -38q0 -89 57.5 -147.5t154.5 -58.5h128q112 0 193 71q78 69 92 173z" />
    <glyph glyph-name="Odieresis" unicode="&#xd6;" horiz-adv-x="1163" 
d="M1054 1798q0 -63 -63 -63h-57q-63 0 -63 63t63 63h57q63 0 63 -63zM708 1798q0 -63 -63 -63h-57q-63 0 -63 63t63 63h57q63 0 63 -63zM1174 1104l-103 -734q-23 -166 -136.5 -268t-268.5 -102h-142q-140 0 -235.5 95t-95.5 229q0 23 3 46l103 734q23 165 137 267.5
t268 102.5h142q140 0 235.5 -94t95.5 -229q0 -23 -3 -47zM1051 1122q2 19 2 38q0 90 -56 147q-59 59 -156 59h-128q-114 0 -192.5 -70t-92.5 -174l-109 -770q-2 -19 -2 -38q0 -89 57.5 -147.5t154.5 -58.5h128q112 0 193 71q78 69 92 173z" />
    <glyph glyph-name="multiply" unicode="&#xd7;" horiz-adv-x="920" 
d="M989 981q0 -30 -22 -47l-198 -165l-154 -104l-5 -36l125 -103l155 -170q18 -20 18 -43q0 -63 -63 -63q-30 0 -49 23l-140 173l-83 139h-36l-123 -140l-194 -179q-17 -16 -42 -16q-63 0 -63 63q0 29 22 47l196 165l154 103l5 36l-124 103l-158 174q-14 16 -14 40
q0 63 63 63q30 0 50 -25l140 -172l83 -139h36l120 140l195 181q16 15 43 15q63 0 63 -63z" />
    <glyph glyph-name="Oslash" unicode="&#xd8;" horiz-adv-x="1164" 
d="M1175 1104l-104 -734q-21 -155 -136.5 -262.5t-267.5 -107.5h-135q-142 0 -240.5 93.5t-98.5 229.5q0 23 3 47l104 734q21 155 136.5 262.5t267.5 107.5h135q142 0 240.5 -93.5t98.5 -229.5q0 -23 -3 -47zM1050 1139q4 92 -56 150.5t-155 58.5h-135q-101 0 -182.5 -71.5
t-95.5 -172.5l-53 -372l-49 -230l42 -18l101 137zM1048 981l-42 18l-117 -158l-569 -505q-4 -92 56.5 -151t155.5 -59h135q101 0 182.5 71.5t95.5 172.5l58 413z" />
    <glyph glyph-name="Ugrave" unicode="&#xd9;" horiz-adv-x="1256" 
d="M1268 1430l-145 -1032q-24 -169 -156.5 -288t-299.5 -119h-65q-154 0 -257.5 101.5t-103.5 250.5q0 27 4 55l145 1032q9 63 65 63q70 0 61 -63l-148 -1050q-3 -21 -3 -41q0 -103 66.5 -171.5t171.5 -68.5h65q117 0 213.5 82.5t112.5 198.5l148 1050q9 63 65 63
q70 0 61 -63zM899 1748q0 -45 -45 -45q-13 0 -25 7l-271 161q-26 16 -26 46q0 54 54 54q15 0 30 -10l262 -174q21 -15 21 -39z" />
    <glyph glyph-name="Uacute" unicode="&#xda;" horiz-adv-x="1256" 
d="M1268 1430l-145 -1032q-24 -169 -156.5 -288t-299.5 -119h-65q-154 0 -257.5 101.5t-103.5 250.5q0 27 4 55l145 1032q9 63 65 63q70 0 61 -63l-148 -1050q-3 -21 -3 -41q0 -103 66.5 -171.5t171.5 -68.5h65q117 0 213.5 82.5t112.5 198.5l148 1050q9 63 65 63
q70 0 61 -63zM1120 1927q0 -34 -29 -48l-337 -166q-10 -5 -19 -5q-45 0 -45 46q0 27 24 40l325 180q13 7 27 7q54 0 54 -54z" />
    <glyph glyph-name="Ucircumflex" unicode="&#xdb;" horiz-adv-x="1256" 
d="M1116 1754q0 -48 -48 -48q-22 0 -37 17l-93 108l-67 117h-18l-102 -117l-134 -114q-13 -11 -30 -11q-48 0 -48 48q0 22 14 35l270 245q19 17 41 17q23 0 37 -17l202 -247q13 -16 13 -33zM1268 1430l-145 -1032q-24 -169 -156.5 -288t-299.5 -119h-65q-154 0 -257.5 101.5
t-103.5 250.5q0 27 4 55l145 1032q9 63 65 63q70 0 61 -63l-148 -1050q-3 -21 -3 -41q0 -103 66.5 -171.5t171.5 -68.5h65q117 0 213.5 82.5t112.5 198.5l148 1050q9 63 65 63q70 0 61 -63z" />
    <glyph glyph-name="Udieresis" unicode="&#xdc;" horiz-adv-x="1256" 
d="M1106 1798q0 -63 -63 -63h-57q-63 0 -63 63t63 63h57q63 0 63 -63zM760 1798q0 -63 -63 -63h-57q-63 0 -63 63t63 63h57q63 0 63 -63zM1268 1430l-145 -1032q-24 -169 -156.5 -288t-299.5 -119h-65q-154 0 -257.5 101.5t-103.5 250.5q0 27 4 55l145 1032q9 63 65 63
q70 0 61 -63l-148 -1050q-3 -21 -3 -41q0 -103 66.5 -171.5t171.5 -68.5h65q117 0 213.5 82.5t112.5 198.5l148 1050q9 63 65 63q70 0 61 -63z" />
    <glyph glyph-name="Yacute" unicode="&#xdd;" horiz-adv-x="1079" 
d="M1204 1420q0 -17 -8 -31l-459 -785q-14 -23 -54 -35l-73 -515q-9 -63 -65 -63q-70 0 -61 63l73 515q-37 12 -44 35l-242 798q-3 9 -3 18q0 63 63 63q47 0 59 -40l171 -597l31 -189h67l86 189l342 607q17 30 54 30q63 0 63 -63zM1099 1927q0 -34 -29 -48l-337 -166
q-10 -5 -19 -5q-45 0 -45 46q0 27 24 40l325 180q13 7 27 7q54 0 54 -54z" />
    <glyph glyph-name="Thorn" unicode="&#xde;" horiz-adv-x="1063" 
d="M1091 839l-18 -125q-24 -173 -143 -279t-280 -106h-289l-38 -275q-9 -63 -72 -63t-54 63l192 1366q8 63 71 63t55 -63l-28 -198h259q147 0 248 -93.5t101 -236.5q0 -26 -4 -53zM967 857q3 18 3 36q0 94 -63.5 157.5t-160.5 63.5h-274l-96 -677h274q107 0 193.5 76
t101.5 183z" />
    <glyph glyph-name="germandbls" unicode="&#xdf;" horiz-adv-x="1224" 
d="M885 0h-294q-54 0 -54 54t54 54h289q60 0 108 38q52 42 63 114q9 70 -39 121l-302 317q-49 51 -49 144q0 113 76 188.5t189 75.5h76l12 82q2 12 2 25q0 65 -44.5 109t-111.5 44h-175q-74 0 -133.5 -52t-69.5 -126l-159 -1134q-9 -63 -72 -63t-54 63l156 1116
q20 141 113 224q90 80 219 80h175q117 0 198.5 -76.5t81.5 -188.5q0 -20 -3 -39l-15 -109q-3 -25 -25 -44t-47 -19h-119q-50 0 -92 -35q-46 -37 -54 -95q-9 -63 30 -104l306 -319q53 -56 53 -156q0 -125 -81.5 -207t-207.5 -82z" />
    <glyph glyph-name="agrave" unicode="&#xe0;" horiz-adv-x="1083" 
d="M1025 1052l-129 -916q-6 -46 30 -46q47 0 47 -54t-54 -54q-137 0 -148 131l42 78l-33 18q-24 -43 -78 -116q-100 -102 -245 -102q-116 0 -195 66q-87 73 -87 200q0 26 4 54l68 484q21 153 129 241q97 79 224 79q60 0 121 -28q66 -29 99 -78q23 -34 47 -121l37 9l-13 97
l8 58q9 63 64 63q27 0 46.5 -19t15.5 -44zM858 758q-3 100 -78.5 174.5t-179.5 74.5q-84 0 -144 -48q-67 -52 -81 -146l-73 -520q-2 -19 -2 -37q0 -157 172 -157q103 0 201 82q96 78 127 180zM839 1378q0 -45 -45 -45q-13 0 -25 7l-271 161q-26 16 -26 46q0 54 54 54
q15 0 30 -10l262 -174q21 -15 21 -39z" />
    <glyph glyph-name="aacute" unicode="&#xe1;" horiz-adv-x="1083" 
d="M1025 1052l-129 -916q-6 -46 30 -46q47 0 47 -54t-54 -54q-137 0 -148 131l42 78l-33 18q-24 -43 -78 -116q-100 -102 -245 -102q-116 0 -195 66q-87 73 -87 200q0 26 4 54l68 484q21 153 129 241q97 79 224 79q60 0 121 -28q66 -29 99 -78q23 -34 47 -121l37 9l-13 97
l8 58q9 63 64 63q27 0 46.5 -19t15.5 -44zM858 758q-3 100 -78.5 174.5t-179.5 74.5q-84 0 -144 -48q-67 -52 -81 -146l-73 -520q-2 -19 -2 -37q0 -157 172 -157q103 0 201 82q96 78 127 180zM950 1547q0 -34 -29 -48l-337 -166q-10 -5 -19 -5q-45 0 -45 46q0 27 24 40
l325 180q13 7 27 7q54 0 54 -54z" />
    <glyph glyph-name="acircumflex" unicode="&#xe2;" horiz-adv-x="1083" 
d="M1025 1052l-129 -916q-6 -46 30 -46q47 0 47 -54t-54 -54q-137 0 -148 131l42 78l-33 18q-24 -43 -78 -116q-100 -102 -245 -102q-116 0 -195 66q-87 73 -87 200q0 26 4 54l68 484q21 153 129 241q97 79 224 79q60 0 121 -28q66 -29 99 -78q23 -34 47 -121l37 9l-13 97
l8 58q9 63 64 63q27 0 46.5 -19t15.5 -44zM858 758q-3 100 -78.5 174.5t-179.5 74.5q-84 0 -144 -48q-67 -52 -81 -146l-73 -520q-2 -19 -2 -37q0 -157 172 -157q103 0 201 82q96 78 127 180zM986 1384q0 -48 -48 -48q-22 0 -37 17l-93 108l-67 117h-18l-102 -117l-134 -114
q-13 -11 -30 -11q-48 0 -48 48q0 22 14 35l270 245q19 17 41 17q23 0 37 -17l202 -247q13 -16 13 -33z" />
    <glyph glyph-name="atilde" unicode="&#xe3;" horiz-adv-x="1083" 
d="M1025 1052l-129 -916q-6 -46 30 -46q47 0 47 -54t-54 -54q-137 0 -148 131l42 78l-33 18q-24 -43 -78 -116q-100 -102 -245 -102q-116 0 -195 66q-87 73 -87 200q0 26 4 54l68 484q21 153 129 241q97 79 224 79q60 0 121 -28q66 -29 99 -78q23 -34 47 -121l37 9l-13 97
l8 58q9 63 64 63q27 0 46.5 -19t15.5 -44zM858 758q-3 100 -78.5 174.5t-179.5 74.5q-84 0 -144 -48q-67 -52 -81 -146l-73 -520q-2 -19 -2 -37q0 -157 172 -157q103 0 201 82q96 78 127 180zM1023 1587q0 -11 -6 -22l-44 -80q-65 -116 -163 -116q-58 0 -94 37
q-21 21 -54 85q-26 49 -61 49q-37 0 -75 -67l-51 -90q-12 -22 -38 -22q-44 0 -44 44q0 12 6 23l47 81q70 121 166 121q60 0 96 -37q18 -19 53 -85q26 -49 60 -49t54 34l68 119q11 19 36 19q44 0 44 -44z" />
    <glyph glyph-name="adieresis" unicode="&#xe4;" horiz-adv-x="1083" 
d="M1025 1052l-129 -916q-6 -46 30 -46q47 0 47 -54t-54 -54q-137 0 -148 131l42 78l-33 18q-24 -43 -78 -116q-100 -102 -245 -102q-116 0 -195 66q-87 73 -87 200q0 26 4 54l68 484q21 153 129 241q97 79 224 79q60 0 121 -28q66 -29 99 -78q23 -34 47 -121l37 9l-13 97
l8 58q9 63 64 63q27 0 46.5 -19t15.5 -44zM858 758q-3 100 -78.5 174.5t-179.5 74.5q-84 0 -144 -48q-67 -52 -81 -146l-73 -520q-2 -19 -2 -37q0 -157 172 -157q103 0 201 82q96 78 127 180zM937 1408q0 -63 -63 -63h-57q-63 0 -63 63t63 63h57q63 0 63 -63zM591 1408
q0 -63 -63 -63h-57q-63 0 -63 63t63 63h57q63 0 63 -63z" />
    <glyph glyph-name="aring" unicode="&#xe5;" horiz-adv-x="1083" 
d="M1025 1052l-129 -916q-6 -46 30 -46q47 0 47 -54t-54 -54q-137 0 -148 131l42 78l-33 18q-24 -43 -78 -116q-100 -102 -245 -102q-116 0 -195 66q-87 73 -87 200q0 26 4 54l68 484q21 153 129 241q97 79 224 79q60 0 121 -28q66 -29 99 -78q23 -34 47 -121l37 9l-13 97
l8 58q9 63 64 63q27 0 46.5 -19t15.5 -44zM858 758q-3 100 -78.5 174.5t-179.5 74.5q-84 0 -144 -48q-67 -52 -81 -146l-73 -520q-2 -19 -2 -37q0 -157 172 -157q103 0 201 82q96 78 127 180zM514 1493q0 88 65.5 153t153.5 65q79 0 133.5 -54t54.5 -132q0 -89 -66 -154
t-154 -65q-80 0 -133.5 54.5t-53.5 132.5zM604 1493q0 -41 27.5 -69t69.5 -28q51 0 90.5 39t39.5 90q0 41 -28 68.5t-70 27.5q-51 0 -90 -38.5t-39 -89.5z" />
    <glyph glyph-name="ae" unicode="&#xe6;" horiz-adv-x="1566" 
d="M1551 808q0 -22 -3 -45l-23 -161q-3 -25 -24.5 -44t-47.5 -19h-527l-28 -205q-3 -16 -3 -32q0 -83 56 -138.5t141 -55.5h257q54 0 54 -54t-54 -54h-257q-135 0 -199 71q-45 49 -51 125h-54q-12 -28 -26 -52q-33 -56 -67 -79q-95 -65 -180 -65h-45q-134 0 -214 74.5
t-80 190.5q0 185 156 291q135 91 328 91h156l22 158q2 14 2 27q0 71 -47.5 118.5t-119.5 47.5h-196q-54 0 -54 54t54 54h196q85 0 149 -46t77 -138h45q12 27 26 51q33 56 69 82q82 60 179 60h12q135 0 228 -88.5t93 -218.5zM1427 813q0 83 -56 138.5t-141 55.5h-12
q-93 0 -168.5 -66t-88.5 -160l-19 -134h464l19 134q2 16 2 32zM800 539h-140q-145 0 -241 -58q-116 -71 -116 -209q0 -164 167 -164h45q92 0 169 74t90 170z" />
    <glyph glyph-name="ccedilla" unicode="&#xe7;" horiz-adv-x="814" 
d="M881 1052q0 -54 -54 -54h-200q-93 0 -168.5 -66t-89.5 -160l-61 -438q-2 -16 -2 -32q0 -83 55.5 -138.5t140.5 -55.5h184q54 0 54 -54t-54 -54h-199q-136 0 -224 96q-82 89 -82 212q0 22 3 44l57 402q24 171 140 265q107 87 261 87h185q54 0 54 -54zM590 -87
q0 -15 -12 -30l-195 -240q-13 -16 -35 -16q-47 0 -47 47q0 17 11 31l196 239q13 16 35 16q47 0 47 -47z" />
    <glyph glyph-name="egrave" unicode="&#xe8;" horiz-adv-x="1002" 
d="M984 763l-23 -166q-4 -25 -25.5 -44t-46.5 -19h-553l-28 -200q-2 -16 -2 -32q0 -83 55.5 -138.5t140.5 -55.5h293q54 0 54 -54t-54 -54h-308q-132 0 -219 87.5t-87 216.5q0 24 3 48l58 411q24 171 141 265q107 87 261 87h39q132 0 218.5 -86.5t86.5 -215.5q0 -25 -4 -50z
M861 781q2 16 2 32q0 83 -55.5 138.5t-139.5 55.5h-39q-94 0 -169.5 -66t-88.5 -160l-20 -139h490zM859 1378q0 -45 -45 -45q-13 0 -25 7l-271 161q-26 16 -26 46q0 54 54 54q15 0 30 -10l262 -174q21 -15 21 -39z" />
    <glyph glyph-name="eacute" unicode="&#xe9;" horiz-adv-x="1002" 
d="M984 763l-23 -166q-4 -25 -25.5 -44t-46.5 -19h-553l-28 -200q-2 -16 -2 -32q0 -83 55.5 -138.5t140.5 -55.5h293q54 0 54 -54t-54 -54h-308q-132 0 -219 87.5t-87 216.5q0 24 3 48l58 411q24 171 141 265q107 87 261 87h39q132 0 218.5 -86.5t86.5 -215.5q0 -25 -4 -50z
M861 781q2 16 2 32q0 83 -55.5 138.5t-139.5 55.5h-39q-94 0 -169.5 -66t-88.5 -160l-20 -139h490zM980 1547q0 -34 -29 -48l-337 -166q-10 -5 -19 -5q-45 0 -45 46q0 27 24 40l325 180q13 7 27 7q54 0 54 -54z" />
    <glyph glyph-name="ecircumflex" unicode="&#xea;" horiz-adv-x="1007" 
d="M997 1384q0 -48 -48 -48q-22 0 -37 17l-93 108l-67 117h-18l-102 -117l-134 -114q-13 -11 -30 -11q-48 0 -48 48q0 22 14 35l270 245q19 17 41 17q23 0 37 -17l202 -247q13 -16 13 -33zM984 763l-23 -166q-4 -25 -25.5 -44t-46.5 -19h-553l-28 -200q-2 -16 -2 -32
q0 -83 55.5 -138.5t140.5 -55.5h293q54 0 54 -54t-54 -54h-308q-132 0 -219 87.5t-87 216.5q0 24 3 48l58 411q24 171 141 265q107 87 261 87h39q132 0 218.5 -86.5t86.5 -215.5q0 -25 -4 -50zM861 781q2 16 2 32q0 83 -55.5 138.5t-139.5 55.5h-39q-94 0 -169.5 -66
t-88.5 -160l-20 -139h490z" />
    <glyph glyph-name="edieresis" unicode="&#xeb;" horiz-adv-x="1002" 
d="M984 763l-23 -166q-4 -25 -25.5 -44t-46.5 -19h-553l-28 -200q-2 -16 -2 -32q0 -83 55.5 -138.5t140.5 -55.5h293q54 0 54 -54t-54 -54h-308q-132 0 -219 87.5t-87 216.5q0 24 3 48l58 411q24 171 141 265q107 87 261 87h39q132 0 218.5 -86.5t86.5 -215.5q0 -25 -4 -50z
M861 781q2 16 2 32q0 83 -55.5 138.5t-139.5 55.5h-39q-94 0 -169.5 -66t-88.5 -160l-20 -139h490zM956 1408q0 -63 -63 -63h-57q-63 0 -63 63t63 63h57q63 0 63 -63zM610 1408q0 -63 -63 -63h-57q-63 0 -63 63t63 63h57q63 0 63 -63z" />
    <glyph glyph-name="igrave" unicode="&#xec;" horiz-adv-x="450" 
d="M436 1052l-140 -998q-9 -63 -72 -63t-54 63l140 998q9 63 72 63t54 -63zM480 1378q0 -45 -45 -45q-13 0 -25 7l-271 161q-26 16 -26 46q0 54 54 54q15 0 30 -10l262 -174q21 -15 21 -39z" />
    <glyph glyph-name="iacute" unicode="&#xed;" horiz-adv-x="452" 
d="M436 1052l-140 -998q-9 -63 -72 -63t-54 63l140 998q9 63 72 63t54 -63zM741 1547q0 -34 -29 -48l-337 -166q-10 -5 -19 -5q-45 0 -45 46q0 27 24 40l325 180q13 7 27 7q54 0 54 -54z" />
    <glyph glyph-name="icircumflex" unicode="&#xee;" horiz-adv-x="450" 
d="M436 1052l-140 -998q-9 -63 -72 -63t-54 63l140 998q9 63 72 63t54 -63zM714 1384q0 -48 -48 -48q-22 0 -37 17l-93 108l-67 117h-18l-102 -117l-134 -114q-13 -11 -30 -11q-48 0 -48 48q0 22 14 35l270 245q19 17 41 17q23 0 37 -17l202 -247q13 -16 13 -33z" />
    <glyph glyph-name="idieresis" unicode="&#xef;" horiz-adv-x="508" 
d="M672 1407q0 -29 -20.5 -49.5t-49.5 -20.5h-34q-29 0 -49.5 20.5t-20.5 49.5t20.5 49.5t49.5 20.5h34q29 0 49.5 -20.5t20.5 -49.5zM406 1407q0 -29 -20.5 -49.5t-49.5 -20.5h-34q-29 0 -49.5 20.5t-20.5 49.5t20.5 49.5t49.5 20.5h34q29 0 49.5 -20.5t20.5 -49.5z
M465 1052l-140 -998q-9 -63 -72 -63t-54 63l140 998q9 63 72 63t54 -63z" />
    <glyph glyph-name="eth" unicode="&#xf0;" horiz-adv-x="1105" 
d="M1217 1174q0 -54 -54 -54h-129l-108 -768q-20 -147 -130.5 -249.5t-254.5 -102.5h-39q-134 0 -227.5 88.5t-93.5 218.5q0 22 3 45l26 182q21 147 131.5 249.5t254.5 102.5h280l32 234h-172q-54 0 -54 54t54 54h188l27 192q8 63 71 63t55 -63l-27 -192h113q54 0 54 -54z
M860 778h-264q-93 0 -168.5 -66t-88.5 -160l-31 -218q-2 -16 -2 -32q0 -83 55.5 -138.5t140.5 -55.5h39q94 0 169 66t88 160z" />
    <glyph glyph-name="ntilde" unicode="&#xf1;" horiz-adv-x="1078" 
d="M1048 1587q0 -11 -6 -22l-44 -80q-65 -116 -163 -116q-58 0 -94 37q-21 21 -54 85q-26 49 -61 49q-37 0 -75 -67l-51 -90q-12 -22 -38 -22q-44 0 -44 44q0 12 6 23l47 81q70 121 166 121q60 0 96 -37q18 -19 53 -85q26 -49 60 -49t54 34l68 119q11 19 36 19q44 0 44 -44z
M1016 795l-104 -741q-9 -63 -65 -63q-70 0 -61 63l105 743q3 23 3 43q0 167 -171 167q-102 0 -203 -87q-96 -84 -128 -187l-96 -679q-9 -63 -65 -63q-70 0 -61 63l139 995q10 66 66 66q70 0 60 -66l-6 -49l-32 -103l35 -9q16 48 71 132q99 95 220 95q123 0 205 -66
q92 -73 92 -202q0 -25 -4 -52z" />
    <glyph glyph-name="ograve" unicode="&#xf2;" horiz-adv-x="1012" 
d="M984 763l-58 -411q-24 -171 -129 -264q-100 -88 -251 -88h-49q-133 0 -224.5 90t-91.5 218q0 22 3 44l58 411q21 150 123 249q107 103 259 103h49q132 0 223 -91.5t91 -217.5q0 -22 -3 -43zM859 781q2 16 2 32q0 83 -55.5 138.5t-139.5 55.5h-29q-101 0 -178 -66
t-90 -160l-63 -447q-2 -17 -2 -33q0 -84 55.5 -138.5t140.5 -54.5h29q100 0 172 57q80 61 95 169zM859 1378q0 -45 -45 -45q-13 0 -25 7l-271 161q-26 16 -26 46q0 54 54 54q15 0 30 -10l262 -174q21 -15 21 -39z" />
    <glyph glyph-name="oacute" unicode="&#xf3;" horiz-adv-x="1012" 
d="M984 763l-58 -411q-24 -171 -129 -264q-100 -88 -251 -88h-49q-133 0 -224.5 90t-91.5 218q0 22 3 44l58 411q21 150 123 249q107 103 259 103h49q132 0 223 -91.5t91 -217.5q0 -22 -3 -43zM859 781q2 16 2 32q0 83 -55.5 138.5t-139.5 55.5h-29q-101 0 -178 -66
t-90 -160l-63 -447q-2 -17 -2 -33q0 -84 55.5 -138.5t140.5 -54.5h29q100 0 172 57q80 61 95 169zM980 1547q0 -34 -29 -48l-337 -166q-10 -5 -19 -5q-45 0 -45 46q0 27 24 40l325 180q13 7 27 7q54 0 54 -54z" />
    <glyph glyph-name="ocircumflex" unicode="&#xf4;" horiz-adv-x="1017" 
d="M997 1384q0 -48 -48 -48q-22 0 -37 17l-93 108l-67 117h-18l-102 -117l-134 -114q-13 -11 -30 -11q-48 0 -48 48q0 22 14 35l270 245q19 17 41 17q23 0 37 -17l202 -247q13 -16 13 -33zM984 763l-58 -411q-24 -171 -129 -264q-100 -88 -251 -88h-49q-133 0 -224.5 90
t-91.5 218q0 22 3 44l58 411q21 150 123 249q107 103 259 103h49q132 0 223 -91.5t91 -217.5q0 -22 -3 -43zM859 781q2 16 2 32q0 83 -55.5 138.5t-139.5 55.5h-29q-101 0 -178 -66t-90 -160l-63 -447q-2 -17 -2 -33q0 -84 55.5 -138.5t140.5 -54.5h29q100 0 172 57
q80 61 95 169z" />
    <glyph glyph-name="otilde" unicode="&#xf5;" horiz-adv-x="1058" 
d="M1032 1587q0 -11 -6 -22l-44 -80q-65 -116 -163 -116q-58 0 -94 37q-21 21 -54 85q-26 49 -61 49q-37 0 -75 -67l-51 -90q-12 -22 -38 -22q-44 0 -44 44q0 12 6 23l47 81q70 121 166 121q60 0 96 -37q18 -19 53 -85q26 -49 60 -49t54 34l68 119q11 19 36 19q44 0 44 -44z
M984 763l-58 -411q-24 -171 -129 -264q-100 -88 -251 -88h-49q-133 0 -224.5 90t-91.5 218q0 22 3 44l58 411q21 150 123 249q107 103 259 103h49q132 0 223 -91.5t91 -217.5q0 -22 -3 -43zM859 781q2 16 2 32q0 83 -55.5 138.5t-139.5 55.5h-29q-101 0 -178 -66t-90 -160
l-63 -447q-2 -17 -2 -33q0 -84 55.5 -138.5t140.5 -54.5h29q100 0 172 57q80 61 95 169z" />
    <glyph glyph-name="odieresis" unicode="&#xf6;" horiz-adv-x="1012" 
d="M971 1408q0 -63 -63 -63h-57q-63 0 -63 63t63 63h57q63 0 63 -63zM625 1408q0 -63 -63 -63h-57q-63 0 -63 63t63 63h57q63 0 63 -63zM984 763l-58 -411q-24 -171 -129 -264q-100 -88 -251 -88h-49q-133 0 -224.5 90t-91.5 218q0 22 3 44l58 411q21 150 123 249
q107 103 259 103h49q132 0 223 -91.5t91 -217.5q0 -22 -3 -43zM859 781q2 16 2 32q0 83 -55.5 138.5t-139.5 55.5h-29q-101 0 -178 -66t-90 -160l-63 -447q-2 -17 -2 -33q0 -84 55.5 -138.5t140.5 -54.5h29q100 0 172 57q80 61 95 169z" />
    <glyph glyph-name="divide" unicode="&#xf7;" horiz-adv-x="1102" 
d="M787 963q0 -44 -28.5 -69.5t-65.5 -25.5q-38 0 -65 24q-30 27 -30 71v58q0 44 30 70q27 24 65 24q37 0 65.5 -25t28.5 -69v-58zM1080 551q0 -54 -54 -54h-796q-54 0 -54 54t54 54h796q54 0 54 -54zM660 86q0 -44 -28.5 -69.5t-65.5 -25.5q-38 0 -65 24q-30 27 -30 71v58
q0 44 30 70q27 24 65 24q37 0 65.5 -25t28.5 -69v-58z" />
    <glyph glyph-name="oslash" unicode="&#xf8;" horiz-adv-x="1013" 
d="M985 763l-58 -411q-21 -147 -131.5 -249.5t-254.5 -102.5h-38q-135 0 -228 88.5t-93 218.5q0 22 3 45l58 411q20 147 131 249.5t255 102.5h38q134 0 227.5 -88.5t93.5 -218.5q0 -22 -3 -45zM852 882q-45 125 -185 125h-38q-94 0 -169.5 -66t-88.5 -160l-33 -238l-56 -204
l26 -9l124 163zM888 779l-26 9l-122 -160l-423 -392q44 -128 186 -128h38q93 0 168.5 66t88.5 160l38 265z" />
    <glyph glyph-name="ugrave" unicode="&#xf9;" 
d="M1052 1052l-140 -995q-9 -66 -65 -66q-70 0 -61 66l7 49l41 103l-34 9q-23 -46 -82 -132q-90 -95 -224 -95q-129 0 -209 72q-83 74 -83 197q0 25 4 51l104 741q9 63 65 63q70 0 61 -63l-107 -759q-2 -18 -2 -35q0 -77 51 -120q46 -39 121 -39q101 0 202 89q96 84 128 188
l97 676q9 63 65 63q70 0 61 -63zM849 1378q0 -45 -45 -45q-13 0 -25 7l-271 161q-26 16 -26 46q0 54 54 54q15 0 30 -10l262 -174q21 -15 21 -39z" />
    <glyph glyph-name="uacute" unicode="&#xfa;" horiz-adv-x="1067" 
d="M1052 1052l-140 -995q-9 -66 -65 -66q-70 0 -61 66l7 49l41 103l-34 9q-23 -46 -82 -132q-90 -95 -224 -95q-129 0 -209 72q-83 74 -83 197q0 25 4 51l104 741q9 63 65 63q70 0 61 -63l-107 -759q-2 -18 -2 -35q0 -77 51 -120q46 -39 121 -39q101 0 202 89q96 84 128 188
l97 676q9 63 65 63q70 0 61 -63zM1060 1547q0 -34 -29 -48l-337 -166q-10 -5 -19 -5q-45 0 -45 46q0 27 24 40l325 180q13 7 27 7q54 0 54 -54z" />
    <glyph glyph-name="ucircumflex" unicode="&#xfb;" 
d="M1027 1384q0 -48 -48 -48q-22 0 -37 17l-93 108l-67 117h-18l-102 -117l-134 -114q-13 -11 -30 -11q-48 0 -48 48q0 22 14 35l270 245q19 17 41 17q23 0 37 -17l202 -247q13 -16 13 -33zM1052 1052l-140 -995q-9 -66 -65 -66q-70 0 -61 66l7 49l41 103l-34 9
q-23 -46 -82 -132q-90 -95 -224 -95q-129 0 -209 72q-83 74 -83 197q0 25 4 51l104 741q9 63 65 63q70 0 61 -63l-107 -759q-2 -18 -2 -35q0 -77 51 -120q46 -39 121 -39q101 0 202 89q96 84 128 188l97 676q9 63 65 63q70 0 61 -63z" />
    <glyph glyph-name="udieresis" unicode="&#xfc;" 
d="M1001 1408q0 -63 -63 -63h-57q-63 0 -63 63t63 63h57q63 0 63 -63zM655 1408q0 -63 -63 -63h-57q-63 0 -63 63t63 63h57q63 0 63 -63zM1052 1052l-140 -995q-9 -66 -65 -66q-70 0 -61 66l7 49l41 103l-34 9q-23 -46 -82 -132q-90 -95 -224 -95q-129 0 -209 72
q-83 74 -83 197q0 25 4 51l104 741q9 63 65 63q70 0 61 -63l-107 -759q-2 -18 -2 -35q0 -77 51 -120q46 -39 121 -39q101 0 202 89q96 84 128 188l97 676q9 63 65 63q70 0 61 -63z" />
    <glyph glyph-name="yacute" unicode="&#xfd;" horiz-adv-x="950" 
d="M1024 1026l-673 -1362q-16 -33 -55 -33q-63 0 -63 62q0 18 9 33l242 449h-16q-13 0 -31.5 13.5t-21.5 26.5l-203 820q-2 9 -2 17q0 63 63 63q50 0 60 -46l127 -546l35 -267h61l89 267l265 557q17 35 56 35q27 0 45.5 -19t18.5 -44q0 -14 -6 -26zM990 1547q0 -34 -29 -48
l-337 -166q-10 -5 -19 -5q-45 0 -45 46q0 27 24 40l325 180q13 7 27 7q54 0 54 -54z" />
    <glyph glyph-name="thorn" unicode="&#xfe;" horiz-adv-x="1039" 
d="M1016 795l-68 -484q-24 -166 -133 -250q-92 -70 -225 -70q-138 0 -217 102q-21 26 -47 116l-38 -18l14 -94l-58 -411q-9 -66 -65 -66q-70 0 -61 66l244 1734q8 63 71 63t55 -63l-60 -426l-41 -97l35 -9q20 42 72 121q94 106 234 106q117 0 199 -66q92 -75 92 -203
q0 -25 -3 -51zM892 813q3 18 3 35q0 77 -51 120q-47 39 -121 39q-102 0 -204 -90q-97 -85 -129 -189l-52 -362q3 -102 77 -183q77 -84 180 -84q83 0 144 48q67 52 80 146z" />
    <glyph glyph-name="ydieresis" unicode="&#xff;" horiz-adv-x="949" 
d="M936 1408q0 -63 -63 -63h-57q-63 0 -63 63t63 63h57q63 0 63 -63zM590 1408q0 -63 -63 -63h-57q-63 0 -63 63t63 63h57q63 0 63 -63zM1024 1026l-673 -1362q-16 -33 -55 -33q-63 0 -63 62q0 18 9 33l242 449h-16q-13 0 -31.5 13.5t-21.5 26.5l-203 820q-2 9 -2 17
q0 63 63 63q50 0 60 -46l127 -546l35 -267h61l89 267l265 557q17 35 56 35q27 0 45.5 -19t18.5 -44q0 -14 -6 -26z" />
    <glyph glyph-name="dotlessi" unicode="&#x131;" horiz-adv-x="450" 
d="M436 1052l-140 -998q-9 -63 -72 -63t-54 63l140 998q9 63 72 63t54 -63z" />
    <glyph glyph-name="Lslash" unicode="&#x141;" horiz-adv-x="1063" 
d="M1073 1096q-4 -28 -31 -48l-495 -368l-81 -572h461q54 0 54 -54t-54 -54h-539q-25 0 -41.5 19t-12.5 44l52 373l40 158l-33 18l-113 -130l-61 -45q-20 -15 -42 -15q-25 0 -41.5 20t-13.5 45q4 28 31 48l276 205l97 689q9 63 72 63t54 -63l-54 -382l-49 -221l34 -18
l142 151l251 187q20 15 42 15q26 0 42.5 -20t12.5 -45z" />
    <glyph glyph-name="lslash" unicode="&#x142;" horiz-adv-x="791" 
d="M853 1009l-284 -198l-95 -675q-6 -46 30 -46q54 0 46 -54t-62 -54q-65 0 -104 44q-35 40 -35 101q0 14 2 27l58 417l49 152l-34 18l-121 -116l-64 -45q-21 -14 -42 -14q-55 0 -55 57q0 33 32 56l278 194l77 547q8 63 71 63t55 -63l-43 -302l-50 -166l33 -18l122 123
l73 52q20 15 41 15q55 0 55 -58q0 -34 -33 -57z" />
    <glyph glyph-name="OE" unicode="&#x152;" horiz-adv-x="1627" 
d="M1727 1420q0 -54 -54 -54h-556l-67 -480h496q54 0 54 -54t-54 -54h-511l-94 -670h540q54 0 54 -54t-54 -54h-951q-149 0 -243 91t-94 228q0 25 3 51l104 734q23 163 137.5 266.5t268.5 103.5h967q54 0 54 -54zM991 1366h-285q-101 0 -182.5 -71.5t-95.5 -172.5l-108 -770
q-3 -17 -3 -34q0 -90 60.5 -150t152.5 -60h285z" />
    <glyph glyph-name="oe" unicode="&#x153;" horiz-adv-x="1565" 
d="M1547 763l-24 -175q-4 -25 -25.5 -44t-46.5 -19h-527l-27 -191q-2 -16 -2 -32q0 -83 55.5 -138.5t140.5 -55.5h274q54 0 47 -54q-8 -54 -62 -54h-259q-112 0 -186 68q-60 54 -70 146h-36q-11 -31 -23 -57q-31 -62 -68 -89q-92 -68 -194 -68h-12q-134 0 -227.5 88.5
t-93.5 218.5q0 22 3 45l58 411q22 156 131 254t256 98h12q105 0 179 -63q65 -56 76 -151h36q10 30 23 55q31 61 68 91q85 68 195 68h12q135 0 228 -86.5t93 -217.5q0 -24 -4 -48zM1424 781q2 16 2 32q0 83 -55.5 138.5t-140.5 55.5h-12q-94 0 -169.5 -66t-88.5 -160
l-21 -148h464zM834 781q2 16 2 32q0 83 -55.5 138.5t-139.5 55.5h-12q-94 0 -169.5 -66t-88.5 -160l-63 -447q-2 -16 -2 -32q0 -83 55.5 -138.5t140.5 -55.5h12q94 0 169 66t88 160z" />
    <glyph glyph-name="Scaron" unicode="&#x160;" horiz-adv-x="1010" 
d="M1020 2003q0 -22 -14 -35l-270 -245q-19 -17 -42 -17q-22 0 -36 17l-202 247q-13 16 -13 33q0 48 48 48q22 0 37 -17l92 -108l68 -117h18l101 117l135 114q12 11 30 11q48 0 48 -48zM1047 1420q0 -54 -54 -54h-369q-82 0 -142.5 -59t-60.5 -141q0 -77 47 -127l431 -457
q81 -86 81 -222q0 -163 -104 -261.5t-268 -98.5h-439q-54 0 -54 54t54 54h439q106 0 175.5 71.5t69.5 177.5q0 92 -48 143l-442 465q-67 70 -67 194q0 138 94.5 226.5t233.5 88.5h369q54 0 54 -54z" />
    <glyph glyph-name="scaron" unicode="&#x161;" horiz-adv-x="876" 
d="M896 1623q0 -22 -14 -35l-270 -245q-19 -17 -42 -17q-22 0 -36 17l-202 247q-13 16 -13 33q0 48 48 48q22 0 37 -17l92 -108l68 -117h18l101 117l135 114q12 11 30 11q48 0 48 -48zM810 1052q0 -54 -54 -54h-264q-50 0 -92 -35q-46 -37 -54 -95q-9 -63 30 -104l306 -319
q53 -56 53 -156q0 -125 -81.5 -207t-207.5 -82h-304q-54 0 -54 54t54 54h299q60 0 108 38q52 42 63 114q9 70 -39 121l-302 317q-49 51 -49 144q0 113 76 188.5t189 75.5h269q54 0 54 -54z" />
    <glyph glyph-name="Ydieresis" unicode="&#x178;" horiz-adv-x="1080" 
d="M1008 1798q0 -63 -63 -63h-57q-63 0 -63 63t63 63h57q63 0 63 -63zM662 1798q0 -63 -63 -63h-57q-63 0 -63 63t63 63h57q63 0 63 -63zM1204 1420q0 -17 -8 -31l-459 -785q-14 -23 -54 -35l-73 -515q-9 -63 -65 -63q-70 0 -61 63l73 515q-37 12 -44 35l-242 798
q-3 9 -3 18q0 63 63 63q47 0 59 -40l171 -597l31 -189h67l86 189l342 607q17 30 54 30q63 0 63 -63z" />
    <glyph glyph-name="Zcaron" unicode="&#x17d;" horiz-adv-x="1012" 
d="M1025 2003q0 -22 -14 -35l-270 -245q-19 -17 -42 -17q-22 0 -36 17l-202 247q-13 16 -13 33q0 48 48 48q22 0 37 -17l92 -108l68 -117h18l101 117l135 114q12 11 30 11q48 0 48 -48zM1074 1411l-12 -95q-9 -25 -13 -30l-713 -1032l-107 -99l-7 -47h644q54 0 54 -54
t-54 -54h-704q-25 0 -41.5 19t-12.5 44l13 95q8 26 12 31l712 1031l110 108l6 47l-146 -9h-448q-54 0 -54 54t54 54h653q25 0 41.5 -19t12.5 -44z" />
    <glyph glyph-name="zcaron" unicode="&#x17e;" horiz-adv-x="947" 
d="M970 1623q0 -22 -14 -35l-270 -245q-19 -17 -42 -17q-22 0 -36 17l-202 247q-13 16 -13 33q0 48 48 48q22 0 37 -17l92 -108l68 -117h18l101 117l135 114q12 11 30 11q48 0 48 -48zM943 1043l-13 -100q-3 -20 -17 -37l-527 -605l-183 -148l-8 -55l158 10h416q54 0 54 -54
t-54 -54h-620q-25 0 -40.5 18.5t-12.5 43.5l13 101q2 20 17 37l480 551l219 192l9 64l-172 -10h-347q-54 0 -54 54t54 54h574q25 0 41 -18.5t13 -43.5z" />
    <glyph glyph-name="florin" unicode="&#x192;" horiz-adv-x="743" 
d="M915 1614q0 -54 -54 -54h-73q-54 0 -100 -43.5t-54 -99.5l-45 -320h174q54 0 54 -54t-54 -54h-189l-156 -1107q-16 -119 -94 -189.5t-187 -70.5h-75q-54 0 -54 54t54 54h75q56 0 100.5 39.5t52.5 94.5l158 1125h-174q-54 0 -54 54t54 54h189l44 311q17 120 94.5 190
t186.5 70h73q54 0 54 -54z" />
    <glyph glyph-name="circumflex" unicode="&#x2c6;" horiz-adv-x="956" 
d="M966 1384q0 -48 -48 -48q-22 0 -37 17l-93 108l-67 117h-18l-102 -117l-134 -114q-13 -11 -30 -11q-48 0 -48 48q0 22 14 35l270 245q19 17 41 17q23 0 37 -17l202 -247q13 -16 13 -33z" />
    <glyph glyph-name="caron" unicode="&#x2c7;" horiz-adv-x="956" 
d="M990 1623q0 -22 -14 -35l-270 -245q-19 -17 -42 -17q-22 0 -36 17l-202 247q-13 16 -13 33q0 48 48 48q22 0 37 -17l92 -108l68 -117h18l101 117l135 114q12 11 30 11q48 0 48 -48z" />
    <glyph glyph-name="breve" unicode="&#x2d8;" horiz-adv-x="985" 
d="M1027 1594q0 -8 -2 -16q-32 -115 -131.5 -192.5t-217.5 -77.5q-117 0 -194.5 80.5t-77.5 203.5q0 53 51 53q52 0 51 -51q-1 -78 45.5 -128t124.5 -50q86 0 157.5 54.5t92.5 136.5q10 38 50 38q51 0 51 -51z" />
    <glyph glyph-name="dotaccent" unicode="&#x2d9;" horiz-adv-x="549" 
d="M580 1470q0 -44 -28.5 -69t-66.5 -25q-37 0 -64 24q-30 26 -30 70v58q0 44 30 70q27 24 64 24q38 0 66.5 -25t28.5 -69v-58z" />
    <glyph glyph-name="ring" unicode="&#x2da;" horiz-adv-x="931" 
d="M474 1493q0 88 65.5 153t153.5 65q79 0 133.5 -54t54.5 -132q0 -89 -66 -154t-154 -65q-80 0 -133.5 54.5t-53.5 132.5zM564 1493q0 -41 27.5 -69t69.5 -28q51 0 90.5 39t39.5 90q0 41 -28 68.5t-70 27.5q-51 0 -90 -38.5t-39 -89.5z" />
    <glyph glyph-name="ogonek" unicode="&#x2db;" horiz-adv-x="722" 
d="M443 -326q0 -47 -47 -47q-29 0 -42 24l-127 240q-6 10 -6 22q0 47 47 47q29 0 41 -23l128 -241q6 -10 6 -22z" />
    <glyph glyph-name="tilde" unicode="&#x2dc;" horiz-adv-x="956" 
d="M973 1587q0 -11 -6 -22l-44 -80q-65 -116 -163 -116q-58 0 -94 37q-21 21 -54 85q-26 49 -61 49q-37 0 -75 -67l-51 -90q-12 -22 -38 -22q-44 0 -44 44q0 12 6 23l47 81q70 121 166 121q60 0 96 -37q18 -19 53 -85q26 -49 60 -49t54 34l68 119q11 19 36 19q44 0 44 -44z
" />
    <glyph glyph-name="hungarumlaut" unicode="&#x2dd;" horiz-adv-x="1109" 
d="M1161 1654q-2 -20 -22 -37l-296 -260q-20 -17 -41 -17q-22 0 -36 16.5t-11 38.5q3 21 21 37l297 260q20 18 40 18q22 0 37 -17t11 -39zM782 1654q-3 -21 -21 -37l-296 -260q-20 -17 -41 -17q-22 0 -36.5 16.5t-11.5 38.5q3 20 22 37l297 260q20 18 40 18q22 0 36.5 -17
t10.5 -39z" />
    <glyph glyph-name="pi" unicode="&#x3c0;" horiz-adv-x="1843" 
d="M1770 836q0 -365 -250 -605q-241 -231 -583 -231q-279 0 -467.5 183.5t-188.5 454.5q0 350 250 595q246 241 583 241q280 0 468 -183.5t188 -454.5zM1661 825q0 231 -155 386t-392 155q-298 0 -511.5 -214.5t-213.5 -502.5q0 -231 155.5 -386t392.5 -155q306 0 518 216
q206 211 206 501zM1407 950q0 -121 -83 -198.5t-204 -77.5h-230l-45 -321q-9 -63 -72 -63q-27 0 -42.5 18.5t-11.5 44.5l107 766q8 54 62 54h269q105 0 177.5 -64.5t72.5 -158.5zM1280 943q0 52 -35 87t-88 35h-212l-40 -283h212q67 0 115 45t48 116z" />
    <glyph glyph-name="endash" unicode="&#x2013;" horiz-adv-x="737" 
d="M837 647q0 -54 -54 -54h-647q-54 0 -54 54t54 54h647q54 0 54 -54z" />
    <glyph glyph-name="emdash" unicode="&#x2014;" horiz-adv-x="919" 
d="M1019 647q0 -54 -54 -54h-829q-54 0 -54 54t54 54h829q54 0 54 -54z" />
    <glyph glyph-name="quoteleft" unicode="&#x2018;" horiz-adv-x="460" 
d="M499 996q2 -6 2 -12q0 -51 -50 -51q-37 0 -47 35l-124 422q-3 9 -3 19q0 62 62 62q49 0 59 -45z" />
    <glyph glyph-name="quoteright" unicode="&#x2019;" horiz-adv-x="460" 
d="M573 1409q0 -17 -7 -29l-245 -423q-14 -24 -43 -24q-50 0 -50 50q0 12 6 23l221 431q18 34 56 34q62 0 62 -62z" />
    <glyph glyph-name="quotesinglbase" unicode="&#x201a;" horiz-adv-x="460" 
d="M419 218q0 -17 -7 -29l-245 -423q-13 -24 -42 -24q-50 0 -50 50q0 12 5 23l222 431q18 34 55 34q62 0 62 -62z" />
    <glyph glyph-name="quotedblleft" unicode="&#x201c;" horiz-adv-x="829" 
d="M870 996q1 -6 1 -12q0 -51 -50 -51q-37 0 -47 35l-124 422q-3 9 -3 19q0 62 62 62q49 0 60 -45zM499 996q2 -6 2 -12q0 -51 -50 -51q-37 0 -47 35l-124 422q-3 9 -3 19q0 62 62 62q49 0 59 -45z" />
    <glyph glyph-name="quotedblright" unicode="&#x201d;" horiz-adv-x="829" 
d="M942 1409q0 -17 -7 -29l-245 -423q-14 -24 -43 -24q-50 0 -50 50q0 12 6 23l221 431q18 34 56 34q62 0 62 -62zM573 1409q0 -17 -7 -29l-245 -423q-14 -24 -43 -24q-50 0 -50 50q0 12 6 23l221 431q18 34 56 34q62 0 62 -62z" />
    <glyph glyph-name="quotedblbase" unicode="&#x201e;" horiz-adv-x="829" 
d="M788 218q0 -17 -7 -29l-245 -423q-13 -24 -42 -24q-50 0 -50 50q0 12 5 23l222 431q18 34 55 34q62 0 62 -62zM419 218q0 -17 -7 -29l-245 -423q-13 -24 -42 -24q-50 0 -50 50q0 12 5 23l222 431q18 34 55 34q62 0 62 -62z" />
    <glyph glyph-name="dagger" unicode="&#x2020;" horiz-adv-x="922" 
d="M967 1024q0 -54 -54 -54h-253l-128 -916q-9 -63 -72 -63t-54 63l128 916h-237q-54 0 -54 54t54 54h252l49 342q8 63 71 63t55 -63l-49 -342h238q54 0 54 -54z" />
    <glyph glyph-name="daggerdbl" unicode="&#x2021;" horiz-adv-x="922" 
d="M967 1024q0 -54 -54 -54h-253l-65 -466h237q54 0 54 -54t-54 -54h-252l-48 -342q-9 -63 -72 -63t-54 63l48 342h-238q-54 0 -54 54t54 54h253l65 466h-237q-54 0 -54 54t54 54h252l49 342q8 63 71 63t55 -63l-49 -342h238q54 0 54 -54z" />
    <glyph glyph-name="bullet" unicode="&#x2022;" horiz-adv-x="1092" 
d="M1001 776q0 -158 -116 -272.5t-274 -114.5q-131 0 -222 91t-91 218q0 158 116 272.5t274 114.5q131 0 222 -91t91 -218z" />
    <glyph glyph-name="ellipsis" unicode="&#x2026;" horiz-adv-x="1282" 
d="M1111 63q0 -90 -90 -90t-90 90v58q0 90 90 90t90 -90v-58zM746 63q0 -94 -90 -94t-90 94v58q0 93 90 93t90 -93v-58zM380 63q0 -90 -90 -90t-90 90v58q0 90 90 90t90 -90v-58z" />
    <glyph glyph-name="perthousand" unicode="&#x2030;" horiz-adv-x="1903" 
d="M905 1198l-10 -77q-17 -119 -97 -195q-84 -81 -211 -81q-105 0 -176.5 69t-71.5 170q0 19 3 37l10 77q17 119 98 195q86 81 211 81q105 0 176 -69t71 -170q0 -18 -3 -37zM1767 351l-10 -77q-17 -118 -96 -194q-83 -80 -201 -80q-80 0 -129 43q-42 37 -49 102h-54
q-13 -30 -70 -96q-62 -49 -144 -49q-101 0 -171 68.5t-70 168.5q0 18 3 37l10 77q17 118 97 195q83 81 199 81q78 0 123 -42q38 -35 57 -104h54q14 31 73 97q64 49 139 49q104 0 173 -68.5t69 -169.5q0 -19 -3 -38zM1479 1421q-3 -17 -16 -32l-1167 -1367q-20 -23 -45 -23
q-22 0 -37.5 16t-12.5 38q3 17 16 32l1167 1367q20 23 46 23q22 0 37 -16t12 -38zM1644 369q1 10 1 20q0 55 -39 92.5t-96 37.5q-62 0 -110.5 -43.5t-57.5 -106.5l-16 -113q-1 -10 -1 -20q0 -55 38 -91.5t95 -36.5q63 0 112 43t58 105zM782 1216q1 10 1 20q0 56 -38 93
t-95 37q-62 0 -111 -43.5t-58 -106.5l-16 -113q-1 -10 -1 -20q0 -55 38.5 -92.5t95.5 -37.5q62 0 110.5 43.5t57.5 106.5zM1217 369q1 10 1 20q0 55 -39 92.5t-96 37.5q-62 0 -110.5 -43.5t-57.5 -106.5l-16 -113q-1 -10 -1 -20q0 -55 38 -91.5t95 -36.5q63 0 112 43t58 105
z" />
    <glyph glyph-name="guilsinglleft" unicode="&#x2039;" horiz-adv-x="711" 
d="M695 868q0 -25 -20 -42l-188 -158l-150 -106l-5 -36l111 -100l137 -150q15 -17 15 -38q0 -54 -54 -54q-26 0 -42 19l-267 314q-13 15 -10 37q3 24 20 39l362 315q16 14 37 14q54 0 54 -54z" />
    <glyph glyph-name="guilsinglright" unicode="&#x203a;" horiz-adv-x="711" 
d="M645 554q-3 -22 -20 -37l-365 -320q-15 -13 -35 -13q-54 0 -54 54q0 25 20 42l199 167l139 100l5 36l-118 108l-134 144q-11 12 -11 33q0 54 55 54q24 0 39 -17l270 -312q13 -15 10 -39z" />
    <glyph glyph-name="fraction" unicode="&#x2044;" horiz-adv-x="1083" 
d="M1185 1431q-2 -14 -12 -28l-969 -1384q-21 -29 -49 -29q-57 0 -50 53q2 14 12 28l969 1384q21 29 50 29q57 0 49 -53z" />
    <glyph glyph-name="Euro" unicode="&#x20ac;" horiz-adv-x="1253" 
d="M1332 1198q0 -59 -59 -59q-36 0 -53 32q-102 204 -304 204q-150 0 -271.5 -106.5t-142.5 -256.5l-8 -60h351q54 0 54 -54t-54 -54h-366l-29 -204h351q54 0 54 -54t-54 -54h-366l-10 -70q-3 -24 -3 -47q0 -131 89.5 -223.5t225.5 -92.5q113 0 203 63q64 44 149 151
q18 22 46 22q59 0 59 -59q0 -19 -12 -36q-173 -249 -445 -249q-186 0 -313 122.5t-127 302.5q0 32 4 64l8 52h-101q-54 0 -54 54t54 54h116l29 204h-101q-54 0 -54 54t54 54h116l6 42q30 215 184 352t358 137q140 0 252.5 -71.5t158.5 -188.5q5 -14 5 -25z" />
    <glyph glyph-name="trademark" unicode="&#x2122;" horiz-adv-x="1157" 
d="M1247 1411l-77 -550q-7 -47 -53 -47q-48 0 -41 47l45 317l63 196h-36q-29 -63 -76 -152q-11 -14 -57 -86q-22 -32 -64 -32q-43 0 -55 32q-13 36 -33 86q-11 24 -35 152h-36l9 -196l-45 -317q-7 -47 -53 -47q-48 0 -41 47l77 550q7 48 55 48h35q29 0 38 -22l57 -143
l18 -99h36l45 99l99 143q15 22 43 22h43q46 0 39 -48zM652 1419q0 -39 -39 -39h-109l-73 -519q-7 -47 -55 -47q-47 0 -40 47l73 519h-99q-39 0 -39 39t39 39h303q39 0 39 -39z" />
    <glyph glyph-name="uni2126" unicode="&#x2126;" horiz-adv-x="1290" 
d="M1265 1036l-61 -432q-36 -257 -280 -344l-22 -152h175q54 0 54 -54t-54 -54h-235q-25 0 -41.5 19t-12.5 44l30 212q5 39 54 62q180 85 203 249l66 468q3 22 3 44q0 114 -77 191t-195 77h-25q-129 0 -233.5 -91.5t-122.5 -220.5l-66 -468q-3 -22 -3 -42q0 -79 49 -135
q22 -27 86 -72q42 -29 38 -62l-30 -212q-4 -25 -25.5 -44t-46.5 -19h-219q-54 0 -54 54t54 54h189l22 152q-83 40 -134.5 126t-51.5 179q0 20 3 39l61 432q28 201 165 321q133 117 319 117h25q167 0 282 -110t115 -271q0 -28 -4 -57z" />
    <glyph glyph-name="partialdiff" unicode="&#x2202;" horiz-adv-x="1039" 
d="M1035 1122l-109 -770q-20 -147 -130.5 -249.5t-254.5 -102.5h-39q-134 0 -227.5 88.5t-93.5 218.5q0 22 3 45l46 321q22 159 130 255.5t256 96.5h279l16 115q2 16 2 32q0 83 -55 138.5t-140 55.5h-141q-54 0 -54 54t54 54h141q134 0 227 -88.5t93 -217.5q0 -23 -3 -46z
M880 917h-264q-94 0 -169.5 -66t-88.5 -160l-50 -357q-2 -16 -2 -32q0 -83 55.5 -138.5t140.5 -55.5h39q94 0 169 66t88 160z" />
    <glyph glyph-name="uni2206" unicode="&#x2206;" horiz-adv-x="1290" 
d="M1162 174l-15 -111q-9 -63 -72 -63h-868q-26 0 -42 18.5t-12 44.5l15 111q2 4 5 14l561 1242q20 44 66 44h96q47 0 55 -44l211 -1242q1 -5 0 -14zM1061 159l-63 233l-108 638l-21 363h-57l-123 -363l-288 -638l-136 -233l-9 -69l255 36h296l245 -36z" />
    <glyph glyph-name="product" unicode="&#x220f;" horiz-adv-x="1142" 
d="M1288 1420q0 -54 -54 -54h-136l-184 -1312q-9 -63 -72 -63t-54 63l184 1312h-418l-184 -1312q-9 -63 -72 -63t-54 63l184 1312h-120q-54 0 -54 54t54 54h926q54 0 54 -54z" />
    <glyph glyph-name="summation" unicode="&#x2211;" horiz-adv-x="1022" 
d="M1105 1420q0 -54 -54 -54h-469l-154 18l-6 -45l142 -166l280 -352q14 -17 10 -41l-15 -113q-4 -25 -22 -42l-367 -337l-186 -141l-7 -48l160 9h442q54 0 54 -54t-54 -54h-652q-25 0 -41.5 19t-12.5 44l13 90q3 24 21 42l316 304l239 196l11 83l-160 166l-253 335
q-14 18 -10 42l12 90q4 25 25.5 44t46.5 19h637q54 0 54 -54z" />
    <glyph glyph-name="minus" unicode="&#x2212;" horiz-adv-x="1102" 
d="M1102 647q0 -63 -63 -63h-795q-63 0 -63 63t63 63h795q63 0 63 -63z" />
    <glyph glyph-name="radical" unicode="&#x221a;" horiz-adv-x="1290" 
d="M1403 1422q0 -17 -8 -31l-748 -1352q-6 -12 -28 -25.5t-35 -13.5h-69q-10 0 -28 11.5t-22 19.5l-283 626q-6 14 -6 28q0 62 62 62q42 0 57 -37l153 -354l83 -266h54l102 265l597 1094q20 35 57 35q62 0 62 -62z" />
    <glyph glyph-name="infinity" unicode="&#x221e;" horiz-adv-x="1677" 
d="M1605 830l-52 -367q-17 -120 -93 -195q-82 -81 -207 -81q-151 0 -216 123q-4 7 -43 92l-49 162h-54l-72 -162l-70 -92q-101 -123 -243 -123q-106 0 -180 70t-74 171q0 17 2 35l52 367q16 119 94 195q83 81 205 81q154 0 218 -121q4 -8 51 -106l40 -150h54l67 150l76 106
q99 121 241 121q106 0 180.5 -70t74.5 -171q0 -17 -2 -35zM1481 848q2 11 2 21q0 55 -37 92t-94 37q-80 0 -134 -67q-12 -14 -220 -284l140 -285q36 -67 115 -67q63 0 113 44t59 106zM860 647l-139 284q-36 67 -116 67q-62 0 -112 -44t-59 -106l-56 -403q-2 -11 -2 -21
q0 -55 37 -92t93 -37q80 0 135 67q12 14 219 285z" />
    <glyph glyph-name="integral" unicode="&#x222b;" horiz-adv-x="743" 
d="M915 1614q0 -54 -54 -54h-73q-54 0 -100 -43.5t-54 -99.5l-216 -1535q-16 -119 -94 -189.5t-187 -70.5h-75q-54 0 -54 54t54 54h75q56 0 100.5 39.5t52.5 94.5l217 1544q17 120 94.5 190t186.5 70h73q54 0 54 -54z" />
    <glyph glyph-name="approxequal" unicode="&#x2248;" horiz-adv-x="1475" 
d="M1462 1053q-3 -23 -24 -41l-256 -226q-70 -62 -154 -62q-81 0 -130 58l-163 194q-22 27 -50 27q-35 0 -66 -27l-257 -227q-20 -18 -42 -18q-24 0 -39.5 18t-12.5 42q3 23 24 41l256 226q70 62 153 62q74 0 119 -53l164 -194q27 -32 60 -32q34 0 65 27l257 226
q21 19 44 19q24 0 39.5 -18t12.5 -42zM1384 499q-3 -22 -23 -40l-256 -227q-70 -62 -155 -62q-80 0 -130 59l-163 194q-21 26 -50 26q-36 0 -66 -26l-257 -228q-20 -18 -42 -18q-24 0 -39.5 18.5t-12.5 42.5q4 22 24 40l256 227q69 61 154 61q75 0 118 -52l164 -195
q27 -32 60 -32q36 0 65 26l257 228q21 19 45 19q23 0 38.5 -18.5t12.5 -42.5z" />
    <glyph glyph-name="notequal" unicode="&#x2260;" horiz-adv-x="1105" 
d="M1046 827q0 -63 -63 -63h-629q-63 0 -63 63t63 63h350l216 375q16 28 48 28q55 0 55 -55q0 -15 -8 -28l-114 -194l-114 -126l13 -36l148 36h35q63 0 63 -63zM995 465q0 -63 -63 -63h-350l-215 -375q-16 -28 -48 -28q-55 0 -55 55q0 15 7 28l115 194l113 126l-12 36
l-149 -36h-35q-63 0 -63 63t63 63h629q63 0 63 -63z" />
    <glyph glyph-name="lessequal" unicode="&#x2264;" horiz-adv-x="922" 
d="M912 1254q0 -29 -22 -47l-245 -202l-224 -139l-8 -54l173 -155l178 -188q19 -20 19 -45q0 -61 -61 -61q-28 0 -47 22l-353 410q-16 18 -12 44t24 44l475 416q19 16 42 16q61 0 61 -61zM739 54q0 -54 -54 -54h-431q-54 0 -54 54t54 54h431q54 0 54 -54z" />
    <glyph glyph-name="greaterequal" unicode="&#x2265;" horiz-adv-x="922" 
d="M849 839q-4 -26 -24 -44l-474 -416q-19 -16 -42 -16q-61 0 -61 61q0 29 22 48l250 205l218 145l8 54l-183 149l-172 188q-16 17 -16 41q0 61 62 61q28 0 44 -19l356 -413q16 -18 12 -44zM739 54q0 -54 -54 -54h-431q-54 0 -54 54t54 54h431q54 0 54 -54z" />
    <glyph glyph-name="lozenge" unicode="&#x25ca;" horiz-adv-x="1290" 
d="M1277 792l-15 -110q-3 -17 -10 -29l-526 -803q-22 -34 -62 -34h-92q-38 0 -51 34l-300 803q-6 16 -4 29l15 110q2 13 12 29l526 803q23 35 61 35h92q39 0 52 -35l300 -803q5 -12 2 -29zM1149 777l-180 525l-61 276h-70l-140 -276l-342 -525l-11 -80l194 -525l63 -275h70
l138 275l328 525z" />
    <glyph glyph-name="uniF8FF" unicode="&#xf8ff;" horiz-adv-x="3362" 
d="M3062 0h-2296l-466 466v1008h2762v-1474zM2920 1038v67q0 143 -102 211q-76 51 -201 51h-216v-143h216q57 0 94 -28q44 -33 44 -91v-67q0 -56 -44 -89q-23 -18 -43 -23q-30 -8 -51 -8h-216v-142h216q121 0 201 53q102 68 102 209zM2341 776v70q0 142 -100 209
q-79 53 -200 53h-14q-23 0 -49 7q-87 23 -87 110v142h-165v-142q0 -140 101 -208q79 -53 200 -53h14q55 0 93 -29q43 -33 43 -89v-70h164zM1690 999v143h-315v-143h315zM1560 1224v143h-115q-57 0 -102 -10q-56 -12 -98 -41q-102 -69 -102 -211v-329h165v329q0 59 43 91
q21 16 43.5 22t50.5 6h115z" />
    <glyph glyph-name="uniFB01" unicode="&#xfb01;" horiz-adv-x="1040" 
d="M1025 1043l-139 -989q-9 -63 -72 -63t-54 63l132 944h-359l-132 -944q-9 -63 -65 -63q-70 0 -61 63l132 944h-153q-54 0 -54 54t54 54h168l33 234q45 319 358 319q54 0 54 -54t-54 -54q-88 0 -152.5 -53.5t-76.5 -139.5l-36 -252h422q63 0 55 -63z" />
    <glyph glyph-name="uniFB02" unicode="&#xfb02;" horiz-adv-x="1157" 
d="M1174 1596l-205 -1460q-6 -46 30 -46q54 0 54 -54t-54 -54q-155 0 -155 144q0 14 2 28l196 1397h-229q-88 0 -152.5 -53.5t-76.5 -139.5l-36 -252h154q54 0 54 -54t-54 -54h-169l-132 -944q-9 -63 -65 -63q-70 0 -61 63l132 944h-153q-54 0 -54 54t54 54h168l33 234
q45 319 358 319h307q25 0 41.5 -19t12.5 -44z" />
    </font>
</defs>
</svg>
