<?xml version="1.0" standalone="no"?>
<!DOCTYPE svg PUBLIC "-//W3C//DTD SVG 1.1//EN" "http://www.w3.org/Graphics/SVG/1.1/DTD/svg11.dtd" >
<svg xmlns="http://www.w3.org/2000/svg" xmlns:xlink="http://www.w3.org/1999/xlink" version="1.1">
<metadata>
Created by FontForge 20200427 at Tue May 24 20:04:09 2016
 By www
Copyright (c) Fabrizio Schiavi - http://www.fsd.it/, 2002. All rights reserved.
</metadata>
<defs>
<font id="SysTTW00-Regular" horiz-adv-x="1066" >
  <font-face 
    font-family="SysTTW00-Regular"
    font-weight="400"
    font-stretch="normal"
    units-per-em="2048"
    panose-1="2 0 5 0 0 0 0 2 0 4"
    ascent="1638"
    descent="-410"
    x-height="1105"
    cap-height="1483"
    bbox="-112 -431 2951 2071"
    underline-thickness="102"
    underline-position="-256"
    unicode-range="U+000D-FB02"
  />
<missing-glyph horiz-adv-x="500" 
d="M63 0v1638h768v-1638h-768zM191 128h512v1382h-512v-1382z" />
    <glyph glyph-name=".notdef" horiz-adv-x="500" 
d="M63 0v1638h768v-1638h-768zM191 128h512v1382h-512v-1382z" />
    <glyph glyph-name="glyph1" horiz-adv-x="0" 
 />
    <glyph glyph-name="glyph1" horiz-adv-x="0" 
 />
    <glyph glyph-name="uni000D" unicode="&#xd;" horiz-adv-x="520" 
 />
    <glyph glyph-name="space" unicode=" " horiz-adv-x="520" 
 />
    <glyph glyph-name="exclam" unicode="!" horiz-adv-x="540" 
d="M333 643q0 -63 -63 -63t-63 63v768q0 63 63 63t63 -63v-768zM353 63q0 -82 -83 -82t-83 82v58q0 83 83 83t83 -83v-58z" />
    <glyph glyph-name="quotedbl" unicode="&#x22;" horiz-adv-x="827" 
d="M629 875q0 -54 -54 -54t-54 54v536q0 54 54 54t54 -54v-536zM306 875q0 -54 -54 -54t-54 54v536q0 54 54 54t54 -54v-536z" />
    <glyph glyph-name="numbersign" unicode="#" horiz-adv-x="1290" 
d="M1291 1197q0 -63 -63 -63h-251l-128 -339l-78 -103l18 -27l113 45h141q63 0 63 -63t-63 -63h-275l-67 -175q-16 -41 -57 -41q-64 0 -64 61q0 14 4 25l13 34l82 105l-18 27l-130 -36h-128l-66 -175q-16 -41 -57 -41q-65 0 -65 61q0 10 5 25l10 34l82 105l-18 27l-129 -36
h-102q-63 0 -63 63t63 63h254l124 328l82 105l-18 27l-130 -36h-128q-63 0 -63 63t63 63h279l66 174q16 41 57 41q66 0 66 -61q0 -12 -5 -25l-17 -44l-77 -103l18 -27l112 45h145l66 174q16 41 56 41q66 0 66 -61q0 -12 -4 -25l-16 -44l-77 -103l18 -27l112 45h116
q63 0 63 -63zM889 1143l-18 27l-129 -36h-129l-131 -339l-77 -103l18 -27l112 45h146l127 328z" />
    <glyph glyph-name="dollar" unicode="$" horiz-adv-x="1154" 
d="M1073 336q0 -139 -98.5 -237.5t-237.5 -98.5h-74v-120q0 -54 -54 -54t-54 54v120h-393q-54 0 -54 54t54 54h393v615l-303 216q-119 85 -119 237q0 124 87.5 211t211.5 87h123v122q0 54 54 54t54 -54v-122h293q54 0 54 -54t-54 -54h-293v-566l268 -190q142 -101 142 -274z
M573 877l-18 153v336h-123q-70 0 -121.5 -58.5t-51.5 -131.5q0 -88 66 -135l102 -73l110 -109zM947 336q0 109 -89 172l-71 49l-106 107l-36 -18l18 -187v-351h74q85 0 148 71q62 68 62 157z" />
    <glyph glyph-name="percent" unicode="%" horiz-adv-x="1475" 
d="M737 1121q0 -115 -80.5 -195.5t-195.5 -80.5t-196 81t-81 195v77q0 114 81 195t196 81t195.5 -80.5t80.5 -195.5v-77zM1279 1421q0 -17 -11 -32l-975 -1367q-16 -22 -42 -22q-57 0 -57 53q0 17 11 32l975 1367q16 23 43 23q56 0 56 -54zM1291 274q0 -115 -82 -194.5
t-196 -79.5t-195 79.5t-81 194.5v77q0 115 80.5 195.5t195.5 80.5t196.5 -81t81.5 -195v-77zM611 1103v113q0 62 -44 106t-106 44t-106.5 -44t-44.5 -106v-113q0 -62 44.5 -106t106.5 -44t106 44t44 106zM1165 256v113q0 62 -44.5 106t-107.5 44q-62 0 -106 -44t-44 -106
v-113q0 -62 43.5 -105t106.5 -43t107.5 43t44.5 105z" />
    <glyph glyph-name="ampersand" unicode="&#x26;" horiz-adv-x="1368" 
d="M1260 55q0 -26 -20 -44.5t-45 -18.5q-28 0 -48 23l-207 250q-254 -277 -443 -277q-146 0 -249.5 102.5t-103.5 248.5q0 133 113 262q69 77 239 205l-105 129q-61 75 -61 172v100q0 114 81 195t196 81t195.5 -80.5t80.5 -195.5v-100q0 -149 -209 -320l269 -327
q88 116 197 256q20 22 46 22t45.5 -19t19.5 -45q0 -23 -17 -42q-22 -25 -118 -153l-111 -89v-36l126 -125l114 -135q15 -18 15 -39zM757 1107v118q0 62 -44 106t-106 44t-106.5 -44t-44.5 -106v-118q0 -55 32 -93l28 -33l62 -116h45q29 46 81 120q53 64 53 122zM877 354v36
l-91 73l-103 126l-72 130h-54q-29 -33 -94 -96q-193 -157 -193 -284q0 -96 67 -170.5t160 -74.5q90 0 277 180z" />
    <glyph glyph-name="quotesingle" unicode="'" horiz-adv-x="553" 
d="M330 875q0 -54 -54 -54t-54 54v536q0 54 54 54t54 -54v-536z" />
    <glyph glyph-name="parenleft" unicode="(" horiz-adv-x="822" 
d="M660 -125q0 -55 -55 -55q-22 0 -38 16q-378 371 -378 901t378 902q16 16 38 16q55 0 55 -55q0 -21 -17 -38q-346 -340 -346 -825t346 -824q17 -17 17 -38z" />
    <glyph glyph-name="parenright" unicode=")" horiz-adv-x="822" 
d="M633 737q0 -530 -378 -901q-16 -16 -38 -16q-55 0 -55 55q0 21 17 38q346 339 346 824t-346 825q-17 17 -17 38q0 55 55 55q22 0 38 -16q378 -372 378 -902z" />
    <glyph glyph-name="asterisk" unicode="*" horiz-adv-x="1180" 
d="M1046 1007q0 -63 -61 -63q-2 0 -169 6l-146 27l-14 -28l96 -114l89 -140q9 -14 9 -34q0 -26 -19.5 -44t-45.5 -18q-35 0 -53 33l-79 146l-49 141h-33l-45 -141l-77 -146q-17 -33 -53 -33q-26 0 -46 18.5t-20 44.5q0 19 9 33l89 140l97 114l-15 28l-146 -27l-166 -6h-3
q-60 0 -60 63t60 63q4 0 3 0l166 -6l146 -27l13 29l-105 107l-98 134q-11 15 -11 36q0 26 19.5 45t45.5 19q33 0 51 -29l88 -142l58 -136h33l64 136l88 142q18 29 50 29q26 0 46 -19t20 -45q0 -20 -12 -36l-99 -134l-103 -107l12 -29l146 27l167 6h2q61 0 61 -63z" />
    <glyph glyph-name="plus" unicode="+" horiz-adv-x="1102" 
d="M1003 647q0 -54 -54 -54h-344v-344q0 -54 -54 -54t-54 54v344h-344q-54 0 -54 54t54 54h344v344q0 54 54 54t54 -54v-344h344q54 0 54 -54z" />
    <glyph glyph-name="comma" unicode="," horiz-adv-x="534" 
d="M384 67q0 -19 -10 -34l-215 -318q-15 -22 -42 -22q-50 0 -50 50q0 14 6 25l185 297v88q0 63 63 63t63 -63v-86z" />
    <glyph glyph-name="hyphen" unicode="-" horiz-adv-x="805" 
d="M688 647q0 -54 -54 -54h-463q-54 0 -54 54t54 54h463q54 0 54 -54z" />
    <glyph glyph-name="period" unicode="." horiz-adv-x="549" 
d="M369 85q0 -44 -28.5 -68.5t-66.5 -24.5q-37 0 -64 23q-30 26 -30 70v58q0 44 30 71q27 24 64 24t65 -24q30 -27 30 -71v-58z" />
    <glyph glyph-name="slash" unicode="/" horiz-adv-x="894" 
d="M795 1422q0 -9 -6 -23l-586 -1367q-14 -32 -47 -32q-57 0 -57 52q0 12 5 24l586 1366q14 33 48 33q57 0 57 -53z" />
    <glyph glyph-name="zero" unicode="0" 
d="M922 380q0 -161 -114 -274.5t-275 -113.5t-275 113.5t-114 274.5v714q0 161 114 275t275 114t275 -114t114 -275v-714zM796 362v750q0 109 -77 186t-186 77t-186 -77t-77 -186v-750q0 -109 77 -186t186 -77t186 77t77 186z" />
    <glyph glyph-name="one" unicode="1" 
d="M725 63q0 -63 -63 -63t-63 63l-1 1144l27 186h-36l-114 -159l-194 -202q-19 -20 -44 -20t-44.5 19.5t-19.5 44.5q0 24 20 44l335 335q19 19 44 19h90q25 0 44 -19t19 -44v-1348z" />
    <glyph glyph-name="two" unicode="2" 
d="M938 54q0 -54 -54 -54h-693q-25 0 -44 19t-19 44v90q0 21 13 38l600 788q37 49 37 129q0 118 -68.5 188t-171.5 70h-347q-54 0 -54 54t54 54h347q152 0 259 -107t107 -259q0 -124 -63 -205l-436 -561l-183 -193v-58l231 17h431q54 0 54 -54z" />
    <glyph glyph-name="three" unicode="3" 
d="M906 384q0 -159 -112.5 -271.5t-271.5 -112.5h-328q-54 0 -54 54t54 54h328q107 0 182.5 75.5t75.5 182.5v92q0 107 -75.5 182t-182.5 75h-121q-54 0 -54 54t54 54h121q107 0 182.5 77.5t75.5 190.5q0 120 -75 197.5t-183 77.5h-328q-54 0 -54 54t54 54h328
q159 0 271.5 -112t112.5 -271q0 -128 -77 -231q-35 -47 -142 -73v-36q58 -19 137 -65q82 -104 82 -237v-65z" />
    <glyph glyph-name="four" unicode="4" 
d="M1042 485q0 -54 -54 -54h-173v-368q0 -63 -63 -63t-63 63v368h-553q-25 0 -44 19t-19 44v72q0 17 11 35l526 845q4 7 24 17.5t28 10.5h90q25 0 44 -19t19 -44v-872h173q54 0 54 -54zM707 1383h-36l-80 -187l-307 -501l-112 -130v-44l193 18h324v647z" />
    <glyph glyph-name="five" unicode="5" 
d="M925 384q0 -159 -113 -271.5t-272 -112.5h-345q-54 0 -54 54t54 54h345q107 0 183 75.5t76 182.5v101q0 106 -76 181.5t-183 75.5h-291q-25 0 -44 19t-19 44v624q0 25 19 44t44 19h577q54 0 54 -54t-54 -54h-514v-534h228q159 0 272 -112t113 -271v-65z" />
    <glyph glyph-name="six" unicode="6" 
d="M943 374q0 -159 -112.5 -271t-271.5 -112h-32q-159 0 -271.5 112t-112.5 271v530q0 239 153.5 404.5t387.5 165.5h150q54 0 54 -54t-54 -54h-150q-181 0 -300 -130q-115 -127 -115 -314v-93h290q159 0 271.5 -113t112.5 -272v-70zM817 356v106q0 107 -75.5 183t-182.5 76
h-290v-365q0 -107 75.5 -182.5t182.5 -75.5h32q107 0 182.5 75.5t75.5 182.5z" />
    <glyph glyph-name="seven" unicode="7" 
d="M938 1283q0 -10 -4 -20l-488 -1224q-16 -39 -56 -39q-66 0 -66 61q0 11 6 26l431 1059l97 173l-8 68l-180 -21h-488q-54 0 -54 54t54 54h693q63 0 63 -63v-128z" />
    <glyph glyph-name="eight" unicode="8" 
d="M968 384q0 -159 -112.5 -271.5t-271.5 -112.5h-102q-159 0 -271.5 112.5t-112.5 271.5v38q0 197 199 323q36 23 121 51v30q-50 24 -129 71q-132 105 -132 254q0 141 104.5 241.5t246.5 100.5h60q142 0 241.5 -100t99.5 -242q0 -149 -132 -254q-27 -22 -129 -71v-30
q41 -13 121 -51q199 -126 199 -323v-38zM783 1151q0 101 -62.5 167.5t-152.5 66.5h-60q-91 0 -158 -67t-67 -167q0 -97 82 -167l138 -117h60l138 117q82 70 82 167zM842 366v56q0 133 -125 220q-39 27 -154 110h-60q-48 -35 -154 -110q-125 -87 -125 -220v-56
q0 -107 75.5 -182.5t182.5 -75.5h102q107 0 182.5 75.5t75.5 182.5z" />
    <glyph glyph-name="nine" unicode="9" 
d="M923 571q0 -236 -167.5 -403.5t-403.5 -167.5h-120q-54 0 -54 54t54 54h120q184 0 314.5 130.5t130.5 314.5v92h-290q-159 0 -271.5 113t-112.5 272v70q0 159 112.5 271.5t271.5 112.5h32q159 0 271.5 -112.5t112.5 -271.5v-529zM797 753v365q0 107 -75.5 182.5
t-182.5 75.5h-32q-107 0 -182.5 -75.5t-75.5 -182.5v-106q0 -107 75.5 -183t182.5 -76h290z" />
    <glyph glyph-name="colon" unicode=":" horiz-adv-x="553" 
d="M374 963q0 -44 -28.5 -69.5t-65.5 -25.5t-66 25.5t-29 69.5v58q0 44 30 70q27 24 65 24q37 0 65.5 -25t28.5 -69v-58zM374 85q0 -44 -28.5 -68.5t-65.5 -24.5q-38 0 -65 23q-30 26 -30 70v58q0 44 30 71q28 24 65 24t64 -24q30 -27 30 -71v-58z" />
    <glyph glyph-name="semicolon" unicode=";" horiz-adv-x="534" 
d="M383 963q0 -44 -29 -69.5t-66 -25.5t-64 24q-30 27 -30 71v58q0 44 30 70q27 24 64 24q38 0 66.5 -25t28.5 -69v-58zM384 67q0 -19 -10 -34l-215 -318q-15 -22 -42 -22q-50 0 -50 50q0 14 6 25l185 297v88q0 63 63 63t63 -63v-86z" />
    <glyph glyph-name="less" unicode="&#x3c;" horiz-adv-x="922" 
d="M731 237q0 -25 -20 -45t-45 -20q-24 0 -44 20l-412 412q-18 18 -18 44t18 44l412 412q20 20 44 20q25 0 45 -20t20 -45t-20 -43l-209 -192l-193 -149v-54l188 -145l214 -196q20 -18 20 -43z" />
    <glyph glyph-name="equal" unicode="=" horiz-adv-x="1106" 
d="M921 827q0 -54 -54 -54h-629q-54 0 -54 54t54 54h629q54 0 54 -54zM921 465q0 -54 -54 -54h-629q-54 0 -54 54t54 54h629q54 0 54 -54z" />
    <glyph glyph-name="greater" unicode="&#x3e;" horiz-adv-x="922" 
d="M731 648q0 -25 -19 -44l-412 -412q-20 -20 -44 -20q-25 0 -44.5 20t-19.5 45q0 26 19 43l214 196l188 145v54l-193 149l-209 192q-19 17 -19 43q0 25 19.5 45t44.5 20q24 0 44 -20l412 -412q19 -19 19 -44z" />
    <glyph glyph-name="question" unicode="?" horiz-adv-x="946" 
d="M846 1108q0 -146 -90 -254l-274 -329q-21 -25 -48 -25q-54 0 -54 54q0 18 15 37l254 325q71 91 71 192q0 115 -71 188q-68 70 -170 70h-375q-54 0 -54 54t54 54h375q152 0 259.5 -107t107.5 -259zM515 63q0 -82 -83 -82t-83 82v58q0 83 83 83t83 -83v-58z" />
    <glyph glyph-name="at" unicode="@" horiz-adv-x="1684" 
d="M1484 63q0 -25 -19 -44t-44 -19h-579q-128 0 -218 90t-90 218v306q0 128 90 218t218 90t218 -90t90 -218v-506h208v578q0 214 -150.5 364.5t-364.5 150.5t-365.5 -150.5t-151.5 -364.5v-441q0 -214 151.5 -364.5t365.5 -150.5h223q54 0 54 -54t-54 -54h-223
q-266 0 -454.5 188t-188.5 453v405q0 266 188.5 453.5t454.5 187.5t453.5 -187.5t187.5 -453.5v-605zM1024 108v524q0 75 -53.5 128.5t-128.5 53.5q-76 0 -129 -53.5t-53 -128.5v-342q0 -75 53 -128.5t129 -53.5h182z" />
    <glyph glyph-name="A" unicode="A" horiz-adv-x="1219" 
d="M1147 51q0 -59 -66 -59q-46 0 -59 43l-139 466h-547l-140 -466q-13 -43 -58 -43q-66 0 -66 59q0 9 4 22l419 1357q5 15 24.5 29.5t35.5 14.5h108q16 0 36 -14.5t25 -29.5l419 -1357q4 -13 4 -22zM859 627l-51 124l-84 282l-81 360h-68l-80 -360l-85 -282l-51 -124l14 -36
l162 18h149l161 -18z" />
    <glyph glyph-name="B" unicode="B" horiz-adv-x="1159" 
d="M1019 384q0 -159 -113 -271.5t-272 -112.5h-382q-25 0 -44 19t-19 44v1348q0 25 19 44t44 19h362q154 0 261.5 -103.5t107.5 -255.5q0 -117 -87 -208q-36 -38 -144 -86v-40q41 -11 73 -21q77 -26 95 -45q99 -108 99 -236v-95zM857 1115q0 102 -71.5 178.5t-171.5 76.5
h-299v-519h299q99 0 172 82q71 79 71 182zM893 362v128q0 106 -76 181.5t-183 75.5h-319v-639h319q107 0 183 74t76 180z" />
    <glyph glyph-name="C" unicode="C" horiz-adv-x="995" 
d="M923 54q0 -54 -54 -54h-236q-202 0 -345.5 143.5t-143.5 345.5v496q0 202 143.5 345.5t345.5 143.5h218q54 0 54 -54t-54 -54h-218q-150 0 -256.5 -106.5t-106.5 -256.5v-532q0 -150 106.5 -256.5t256.5 -106.5h236q54 0 54 -54z" />
    <glyph glyph-name="D" unicode="D" horiz-adv-x="1202" 
d="M1067 577q0 -239 -169 -408t-408 -169h-238q-25 0 -44 19t-19 44v1348q0 25 19 44t44 19h238q239 0 408 -169t169 -408v-320zM941 559v356q0 187 -132 319t-319 132h-175v-1258h175q187 0 319 132t132 319z" />
    <glyph glyph-name="E" unicode="E" horiz-adv-x="1035" 
d="M935 54q0 -54 -54 -54h-629q-25 0 -44 19t-19 44v1348q0 25 19 44t44 19h629q54 0 54 -54t-54 -54h-566v-480h521q54 0 54 -54t-54 -54h-521v-670h566q54 0 54 -54z" />
    <glyph glyph-name="F" unicode="F" horiz-adv-x="1025" 
d="M917 1420q0 -54 -54 -54h-548v-489h503q54 0 54 -54t-54 -54h-503v-715q0 -62 -63 -62t-63 62v1357q0 25 19 44t44 19h611q54 0 54 -54z" />
    <glyph glyph-name="G" unicode="G" horiz-adv-x="1255" 
d="M1066 63q0 -25 -19 -44t-44 -19h-424q-173 0 -295 122t-122 295v568q0 202 143.5 345.5t345.5 143.5h361q54 0 54 -54t-54 -54h-361q-150 0 -256.5 -106.5t-106.5 -256.5v-604q0 -120 85.5 -205.5t205.5 -85.5h361v594h-246q-54 0 -54 54t54 54h309q25 0 44 -19t19 -44
v-684z" />
    <glyph glyph-name="H" unicode="H" horiz-adv-x="1243" 
d="M1054 54q0 -62 -63 -62t-63 62v720h-613v-720q0 -62 -63 -62t-63 62v1366q0 63 63 63t63 -63v-538h613v538q0 63 63 63t63 -63v-1366z" />
    <glyph glyph-name="I" unicode="I" horiz-adv-x="504" 
d="M315 54q0 -62 -63 -62t-63 62v1366q0 63 63 63t63 -63v-1366z" />
    <glyph glyph-name="J" unicode="J" horiz-adv-x="756" 
d="M567 283q0 -117 -83 -200t-201 -83h-229q-54 0 -54 54t54 54h229q65 0 111.5 46t46.5 111v1165q0 63 63 63t63 -63v-1147z" />
    <glyph glyph-name="K" unicode="K" horiz-adv-x="1122" 
d="M1023 57q0 -26 -19.5 -45.5t-44.5 -19.5q-26 0 -45 21l-590 692h-9v-651q0 -62 -63 -62t-63 62v1376q0 63 63 63t63 -63v-647h9l108 127l483 563q19 22 45 22q25 0 44 -19.5t19 -45.5q0 -24 -17 -43l-439 -503l-149 -122v-38l137 -106l451 -518q17 -20 17 -43z" />
    <glyph glyph-name="L" unicode="L" horiz-adv-x="881" 
d="M837 54q0 -54 -54 -54h-531q-25 0 -44 19t-19 44v1367q0 63 63 63t63 -63v-1322h468q54 0 54 -54z" />
    <glyph glyph-name="M" unicode="M" horiz-adv-x="1454" 
d="M1265 54q0 -62 -63 -62t-63 62v994l27 319h-54l-116 -237l-216 -345q-20 -32 -53 -32t-53 32l-216 345l-116 237h-54l27 -319v-994q0 -62 -63 -62t-63 62v1357q0 26 18.5 44.5t44.5 18.5h90q34 0 53 -29l204 -312l101 -229h54l101 229l204 312q19 29 53 29h90
q26 0 44.5 -18.5t18.5 -44.5v-1357z" />
    <glyph glyph-name="N" unicode="N" horiz-adv-x="1345" 
d="M1156 63q0 -25 -19 -44t-44 -19h-90q-12 0 -32 12.5t-25 22.5l-465 959l-148 374h-54l36 -425v-889q0 -65 -63 -65t-63 65v1357q0 63 63 63h90q12 0 32 -12.5t25 -22.5l440 -907l173 -426h54l-36 436v878q0 63 63 63t63 -63v-1357z" />
    <glyph glyph-name="O" unicode="O" horiz-adv-x="1163" 
d="M1019 370q0 -153 -108.5 -261.5t-261.5 -108.5h-135q-153 0 -261.5 108.5t-108.5 261.5v734q0 153 108.5 261.5t261.5 108.5h135q153 0 261.5 -108.5t108.5 -261.5v-734zM893 352v770q0 101 -71.5 172.5t-172.5 71.5h-135q-101 0 -172.5 -71.5t-71.5 -172.5v-770
q0 -101 71.5 -172.5t172.5 -71.5h135q101 0 172.5 71.5t71.5 172.5z" />
    <glyph glyph-name="P" unicode="P" horiz-adv-x="1093" 
d="M983 966q0 -159 -112.5 -272t-271.5 -113h-284v-527q0 -62 -63 -62t-63 62v1357q0 25 19 44t44 19h347q159 0 271.5 -112t112.5 -271v-125zM857 948v161q0 107 -75.5 182t-182.5 75h-284v-677h284q107 0 182.5 76t75.5 183z" />
    <glyph glyph-name="Q" unicode="Q" horiz-adv-x="1190" 
d="M1046 370q0 -153 -108.5 -261.5t-261.5 -108.5h-18v-134q0 -63 -63 -63t-63 63v134h-18q-153 0 -261.5 108.5t-108.5 261.5v666q0 182 128 310t310 128h25q182 0 310.5 -128t128.5 -310v-666zM920 352v702q0 129 -91.5 220.5t-221.5 91.5h-25q-129 0 -220.5 -91.5
t-91.5 -220.5v-702q0 -101 71.5 -172.5t172.5 -71.5h18v211q0 63 63 63t63 -63v-211h18q101 0 172.5 71.5t71.5 172.5z" />
    <glyph glyph-name="R" unicode="R" horiz-adv-x="1120" 
d="M1003 52q0 -26 -19.5 -43.5t-45.5 -17.5q-36 0 -53 32l-361 683h-209v-652q0 -62 -63 -62t-63 62v1357q0 25 19 44t44 19h391q159 0 261 -115q96 -109 96 -268q0 -119 -68.5 -218.5t-180.5 -140.5q-25 -9 -58 -9q-23 0 -45 3l-19 -33l80 -90l285 -518q9 -16 9 -33z
M874 1091q0 114 -65.5 194.5t-165.5 80.5h-328v-552h301q105 0 181.5 84t76.5 193z" />
    <glyph glyph-name="S" unicode="S" horiz-adv-x="1010" 
d="M930 336q0 -139 -99 -237.5t-238 -98.5h-431q-54 0 -54 54t54 54h431q91 0 149 59q62 63 62 169q0 91 -68 154l-514 475q-89 82 -89 211q0 124 87.5 211t211.5 87h362q54 0 54 -54t-54 -54h-362q-73 0 -122 -51q-51 -54 -51 -139q0 -73 51 -120l512 -474
q108 -100 108 -246z" />
    <glyph glyph-name="T" unicode="T" horiz-adv-x="976" 
d="M922 1420q0 -54 -54 -54h-317v-1312q0 -62 -63 -62t-63 62v1312h-317q-54 0 -54 54t54 54h760q54 0 54 -54z" />
    <glyph glyph-name="U" unicode="U" horiz-adv-x="1256" 
d="M1067 398q0 -169 -119 -287.5t-287 -118.5h-65q-168 0 -287.5 119t-119.5 287v1032q0 63 63 63t63 -63v-1050q0 -116 82.5 -198.5t198.5 -82.5h65q116 0 198 82.5t82 198.5v1050q0 63 63 63t63 -63v-1032z" />
    <glyph glyph-name="V" unicode="V" horiz-adv-x="1182" 
d="M1092 1423q0 -9 -3 -20l-383 -1357q-4 -16 -24.5 -31t-36.5 -15h-108q-16 0 -36.5 15t-24.5 31l-383 1357q-3 11 -3 20q0 60 66 60q45 0 58 -46l254 -933l98 -423h50l99 425l252 931q12 46 60 46q65 0 65 -60z" />
    <glyph glyph-name="W" unicode="W" horiz-adv-x="1954" 
d="M1846 1423q0 -7 -2 -16l-287 -1358q-4 -18 -24 -33.5t-38 -15.5h-108q-17 0 -36.5 15.5t-23.5 31.5l-271 1016l-46 321h-66l-47 -321l-270 -1016q-4 -16 -24 -31.5t-37 -15.5h-108q-18 0 -37.5 15.5t-23.5 33.5l-287 1358q-2 9 -2 16q0 60 65 60q50 0 60 -49l199 -946
l50 -407h63l70 409l247 928q4 16 23.5 31.5t36.5 15.5h108q17 0 37.5 -15.5t24.5 -31.5l246 -928l70 -409h63l50 407l200 946q10 49 60 49q65 0 65 -60z" />
    <glyph glyph-name="X" unicode="X" horiz-adv-x="1153" 
d="M1045 52q0 -26 -20.5 -43.5t-46.5 -17.5q-34 0 -52 31l-246 428l-75 193h-58l-76 -195l-245 -426q-18 -31 -52 -31q-26 0 -46 17.5t-20 43.5q0 17 10 34l377 629q5 9 31 22q-25 13 -31 23l-377 627q-10 17 -10 34q0 26 20 44t46 18q34 0 52 -31l254 -442l67 -179h58
l67 179l254 442q18 31 52 31q26 0 46.5 -18t20.5 -44q0 -16 -11 -34l-377 -627q-6 -10 -31 -23q26 -13 31 -22l377 -629q11 -18 11 -34z" />
    <glyph glyph-name="Y" unicode="Y" horiz-adv-x="1080" 
d="M1008 1421q0 -14 -6 -28l-350 -789q-10 -23 -49 -35v-515q0 -62 -63 -62t-63 62v515q-39 12 -49 35l-350 789q-6 14 -6 28q0 26 20.5 44t46.5 18q38 0 54 -38l255 -599l58 -189h67l59 189l254 599q16 38 55 38q26 0 46.5 -18t20.5 -44z" />
    <glyph glyph-name="Z" unicode="Z" horiz-adv-x="1012" 
d="M912 54q0 -54 -54 -54h-696q-25 0 -44 19t-19 44v90q5 26 8 31l577 1036l84 108v47l-145 -9h-455q-54 0 -54 54t54 54h645q25 0 44 -19t19 -44v-90q-5 -25 -8 -30l-578 -1037l-83 -99v-47h651q54 0 54 -54z" />
    <glyph glyph-name="bracketleft" unicode="[" horiz-adv-x="692" 
d="M552 -134q0 -49 -49 -49h-251q-25 0 -44 19t-19 44v1716q0 25 19 44t44 19h251q49 0 49 -49t-49 -49h-206v-1646h206q49 0 49 -49z" />
    <glyph glyph-name="backslash" unicode="\" horiz-adv-x="894" 
d="M795 52q0 -52 -57 -52q-34 0 -48 32l-586 1367q-5 12 -5 23q0 53 57 53q33 0 47 -33l586 -1366q6 -14 6 -24z" />
    <glyph glyph-name="bracketright" unicode="]" horiz-adv-x="692" 
d="M503 -120q0 -25 -19 -44t-44 -19h-251q-49 0 -49 49t49 49h206v1646h-206q-49 0 -49 49t49 49h251q25 0 44 -19t19 -44v-1716z" />
    <glyph glyph-name="asciicircum" unicode="^" horiz-adv-x="1064" 
d="M975 614q0 -26 -20.5 -43.5t-46.5 -17.5q-42 0 -57 38l-183 452l-112 350h-54l-109 -350l-181 -452q-16 -39 -55 -39q-26 0 -46.5 18t-20.5 44q0 14 5 26l333 795q5 12 25.5 25.5t33.5 13.5h90q13 0 33 -13.5t25 -25.5l333 -795q7 -17 7 -26z" />
    <glyph glyph-name="underscore" unicode="_" horiz-adv-x="922" 
d="M985 -120q0 -63 -63 -63h-922q-62 0 -62 63t62 63h922q63 0 63 -63z" />
    <glyph glyph-name="grave" unicode="`" horiz-adv-x="737" 
d="M576 1372q0 -45 -46 -45q-15 0 -31 9l-294 163q-28 16 -28 45q0 57 54 57q15 0 28 -8l288 -175q29 -18 29 -46z" />
    <glyph glyph-name="a" unicode="a" horiz-adv-x="987" 
d="M844 54q0 -62 -63 -62t-63 62v33l27 64l-22 10l-70 -113q-124 -56 -250 -56q-301 0 -301 314q0 179 141 272q119 78 299 78h176v149q0 80 -56 136.5t-136 56.5h-240q-54 0 -54 54t54 54h240q132 0 225 -93.5t93 -225.5v-733zM718 247v301h-176q-140 0 -227 -66t-87 -176
q0 -207 175 -207q234 0 315 148z" />
    <glyph glyph-name="b" unicode="b" horiz-adv-x="1039" 
d="M904 311q0 -152 -103 -241q-91 -78 -220 -78q-120 0 -229 105q-30 29 -55 121l-36 -9l27 -97v-58q0 -62 -63 -62t-63 62v1357q0 66 63 66t63 -66v-402l-27 -94l36 -18q13 44 53 116q102 102 231 102t220 -79q103 -89 103 -241v-484zM778 293v520q0 94 -60 146
q-54 48 -137 48q-105 0 -190.5 -70.5t-102.5 -169.5v-419q17 -100 103 -174.5t190 -74.5q83 0 137 48q60 52 60 146z" />
    <glyph glyph-name="c" unicode="c" horiz-adv-x="814" 
d="M733 54q0 -54 -54 -54h-192q-146 0 -249 103t-103 249v402q0 146 103 249t249 103h192q54 0 54 -54t-54 -54h-192q-94 0 -160 -66t-66 -160v-438q0 -94 66 -160t160 -66h192q54 0 54 -54z" />
    <glyph glyph-name="d" unicode="d" horiz-adv-x="1039" 
d="M877 54q0 -62 -63 -62t-63 62v58l27 97l-36 9q-11 -45 -54 -121q-109 -105 -230 -105q-129 0 -220 78q-103 89 -103 241v484q0 152 103 241q91 79 220 79t231 -102q25 -25 53 -116l36 18l-27 94v402q0 66 63 66t63 -66v-1357zM751 348v419q-17 99 -102.5 169.5
t-190.5 70.5q-83 0 -137 -48q-60 -52 -60 -146v-520q0 -94 60 -146q54 -48 137 -48q104 0 190 74.5t103 174.5z" />
    <glyph glyph-name="e" unicode="e" horiz-adv-x="1002" 
d="M877 597q0 -25 -19 -44t-44 -19h-553v-200q0 -94 66 -160t160 -66h300q54 0 54 -54t-54 -54h-300q-146 0 -249 103t-103 249v411q0 146 103 249t249 103h39q146 0 248.5 -103t102.5 -249v-166zM751 642v139q0 94 -65.5 160t-159.5 66h-39q-94 0 -160 -66t-66 -160v-139
h490z" />
    <glyph glyph-name="f" unicode="f" horiz-adv-x="676" 
d="M640 1605q0 -54 -54 -54q-80 0 -136.5 -56.5t-56.5 -136.5v-252h160q54 0 54 -54t-54 -54h-160v-944q0 -62 -63 -62t-63 62v944h-159q-54 0 -54 54t54 54h159v234q0 132 93.5 225.5t225.5 93.5q54 0 54 -54z" />
    <glyph glyph-name="g" unicode="g" horiz-adv-x="1048" 
d="M949 -49q0 -139 -83 -224q-94 -95 -271 -95h-123q-151 0 -242 82q-83 75 -83 180v63q0 67 56 139q25 32 116 73v21q-37 6 -100 31q-75 53 -75 154q0 60 54 118q14 15 78 42l1 18q-25 16 -70 65q-45 75 -45 155v32q0 133 96 219q92 82 223 82h405q54 0 54 -54t-54 -54h-54
l-132 32l-10 -27q41 -25 107 -81q44 -58 44 -135v-23q0 -122 -87 -202.5t-222 -80.5h-78q-46 0 -108 34q-76 -65 -76 -140q0 -115 97 -115h264q134 0 222 -73q96 -78 96 -208v-28zM715 746v59q0 80 -56 136.5t-136 56.5h-42q-84 0 -138.5 -49.5t-54.5 -125.5v-68
q0 -68 49.5 -117t116.5 -49h78q89 0 139 49q44 44 44 108zM823 -58v37q0 74 -54 123.5t-138 49.5h-186q-58 0 -109 -44q-63 -54 -63 -142v-81q0 -50 42 -91q55 -54 157 -54h123q228 0 228 202z" />
    <glyph glyph-name="h" unicode="h" horiz-adv-x="1039" 
d="M904 54q0 -62 -63 -62t-63 62v759q0 94 -60 146q-54 48 -137 48q-104 0 -190 -74.5t-103 -174.5v-704q0 -62 -63 -62t-63 62v1357q0 66 63 66t63 -66v-420l-27 -103l36 -9q9 29 18 53q22 58 45 79q112 104 221 104q129 0 220 -79q103 -89 103 -241v-741z" />
    <glyph glyph-name="i" unicode="i" horiz-adv-x="457" 
d="M295 1354q0 -63 -63 -63t-63 63v57q0 63 63 63t63 -63v-57zM288 54q0 -62 -63 -62t-63 62v998q0 63 63 63t63 -63v-998z" />
    <glyph glyph-name="j" unicode="j" horiz-adv-x="515" 
d="M353 1354q0 -63 -63 -63t-63 63v57q0 63 63 63t63 -63v-57zM346 -49q0 -132 -93.5 -225.5t-225.5 -93.5q-53 0 -53 54t53 54q80 0 136.5 56.5t56.5 136.5v1119q0 63 63 63t63 -63v-1101z" />
    <glyph glyph-name="k" unicode="k" horiz-adv-x="944" 
d="M882 56q0 -26 -20 -45t-45 -19q-24 0 -44 20l-462 484h-23v-442q0 -62 -63 -62t-63 62v1357q0 63 63 63t63 -63v-812h21l442 494q20 22 46 22t46 -19.5t20 -44.5q0 -23 -18 -42l-311 -327l-139 -104v-58l152 -106l316 -314q19 -19 19 -44z" />
    <glyph glyph-name="l" unicode="l" horiz-adv-x="494" 
d="M378 36q0 -53 -54 -53q-73 0 -119 52q-43 50 -43 119v1266q0 63 63 63t63 -63v-1284q0 -46 36 -46q54 0 54 -54z" />
    <glyph glyph-name="m" unicode="m" horiz-adv-x="1592" 
d="M1449 54q0 -62 -63 -62t-63 62v759q0 94 -60 146q-54 48 -137 48q-75 0 -149 -61q-66 -55 -109 -138v-754q0 -62 -63 -62t-63 62v759q0 94 -60 146q-54 48 -137 48q-75 0 -148 -61q-66 -54 -109 -138v-754q0 -62 -63 -62t-63 62v995q0 66 63 66t63 -66v-49l-27 -105
l36 -7q13 46 56 124q97 103 192 103q155 0 242 -119q18 -25 18 -116v-10h36q12 47 47 119q111 126 238 126q129 0 220 -79q103 -89 103 -241v-741z" />
    <glyph glyph-name="n" unicode="n" horiz-adv-x="1048" 
d="M904 54q0 -62 -63 -62t-63 62v759q0 94 -60 146q-54 48 -137 48q-105 0 -190.5 -70.5t-102.5 -169.5v-713q0 -62 -63 -62t-63 62v995q0 66 63 66t63 -66v-49l-27 -103l36 -9q9 29 18 53q22 58 45 79q102 95 221 95q129 0 220 -79q103 -89 103 -241v-741z" />
    <glyph glyph-name="o" unicode="o" horiz-adv-x="1012" 
d="M877 352q0 -146 -102.5 -249t-248.5 -103h-39q-146 0 -249 103t-103 249v411q0 146 103 249t249 103h39q146 0 248.5 -103t102.5 -249v-411zM751 334v447q0 94 -65.5 160t-159.5 66h-39q-94 0 -160 -66t-66 -160v-447q0 -94 66 -160t160 -66h39q94 0 159.5 66t65.5 160z
" />
    <glyph glyph-name="p" unicode="p" horiz-adv-x="1039" 
d="M904 311q0 -152 -103 -241q-91 -78 -220 -78t-231 101q-25 25 -53 116l-36 -18l27 -94v-410q0 -66 -63 -66t-63 66v1365q0 63 63 63t63 -63v-58l-27 -97l36 -9q11 45 55 121q109 106 229 106q129 0 220 -79q103 -89 103 -241v-484zM778 293v520q0 94 -60 146
q-54 48 -137 48q-104 0 -190 -74.5t-103 -174.5v-419q17 -99 102.5 -169.5t190.5 -70.5q83 0 137 48q60 52 60 146z" />
    <glyph glyph-name="q" unicode="q" horiz-adv-x="1039" 
d="M877 -313q0 -66 -63 -66t-63 66v410l27 94l-36 18q-13 -44 -53 -116q-102 -101 -231 -101t-220 78q-103 89 -103 241v484q0 152 103 241q91 79 220 79q121 0 230 -106q30 -29 54 -121l36 9l-27 97v58q0 63 63 63t63 -63v-1365zM751 339v419q-17 100 -103 174.5t-190 74.5
q-83 0 -137 -48q-60 -52 -60 -146v-520q0 -94 60 -146q54 -48 137 -48q105 0 190.5 70.5t102.5 169.5z" />
    <glyph glyph-name="r" unicode="r" horiz-adv-x="701" 
d="M684 1052q0 -63 -63 -63h-40q-107 0 -191 -61q-86 -64 -102 -161v-704q0 -63 -63 -63t-63 63v986q0 66 63 66t63 -66v-40l-27 -114l36 -9q15 52 62 133q102 96 222 96h40q63 0 63 -63z" />
    <glyph glyph-name="s" unicode="s" horiz-adv-x="785" 
d="M696 260q0 -108 -76 -184t-184 -76h-301q-54 0 -54 54t54 54h301q59 0 97 38q42 42 42 114q0 57 -40 95l-362 343q-70 66 -70 170q0 99 70 168.5t169 69.5h265q54 0 54 -54t-54 -54h-265q-49 0 -83.5 -35.5t-34.5 -94.5q0 -50 33 -81l362 -342q77 -73 77 -185z" />
    <glyph glyph-name="t" unicode="t" horiz-adv-x="643" 
d="M589 1052q0 -54 -54 -54h-151v-944q0 -62 -63 -62t-63 62v944h-150q-54 0 -54 54t54 54h150v305q0 63 63 63t63 -63v-305h151q54 0 54 -54z" />
    <glyph glyph-name="u" unicode="u" 
d="M904 57q0 -65 -63 -65t-63 65v49l27 103l-36 9q-9 -29 -18 -53q-22 -58 -45 -79q-102 -94 -221 -94q-129 0 -220 78q-103 89 -103 241v741q0 63 63 63t63 -63v-759q0 -94 60 -146q54 -48 137 -48q105 0 190.5 70.5t102.5 169.5v713q0 63 63 63t63 -63v-995z" />
    <glyph glyph-name="v" unicode="v" horiz-adv-x="958" 
d="M895 1055q0 -9 -4 -22l-307 -989q-5 -15 -24.5 -29.5t-35.5 -14.5h-90q-16 0 -36 14.5t-25 29.5l-306 989q-4 13 -4 22q0 60 66 60q45 0 58 -44l213 -741l51 -249h56l50 251l213 739q13 44 59 44q66 0 66 -60z" />
    <glyph glyph-name="w" unicode="w" horiz-adv-x="1534" 
d="M1444 1055q0 -10 -2 -18l-244 -989q-4 -17 -24 -32.5t-37 -15.5h-90q-18 0 -38 16t-24 33l-163 729l-27 247h-56l-26 -247l-164 -729q-4 -17 -24 -33t-38 -16h-90q-17 0 -37 15.5t-24 32.5l-244 989q-2 8 -2 18q0 60 65 60q48 0 59 -48l159 -689l41 -297h56l38 293
l153 683q4 17 24 33t37 16h90q18 0 38 -16t24 -33l152 -683l39 -293h56l40 297l158 689q11 48 61 48q64 0 64 -60z" />
    <glyph glyph-name="x" unicode="x" horiz-adv-x="922" 
d="M859 54q0 -26 -20 -44t-46 -18q-33 0 -51 29l-201 333l-60 149h-38l-61 -149l-201 -333q-18 -29 -51 -29q-26 0 -46.5 18t-20.5 44q0 16 12 35l311 484l-284 444q-12 19 -12 35q0 26 20.5 44.5t46.5 18.5q33 0 51 -30l181 -303l54 -138h38l52 136l182 305q18 30 51 30
q26 0 46 -18.5t20 -44.5q0 -18 -11 -35l-285 -444l312 -484q11 -17 11 -35z" />
    <glyph glyph-name="y" unicode="y" horiz-adv-x="949" 
d="M886 1055q0 -10 -5 -24l-480 -1357q-15 -42 -57 -42q-66 0 -66 60q0 11 5 24l177 459h-16q-14 0 -34 13.5t-25 26.5l-317 814q-5 13 -5 26q0 61 66 61q41 0 56 -41l206 -552l63 -267h61l63 267l184 550q14 42 58 42q66 0 66 -60z" />
    <glyph glyph-name="z" unicode="z" horiz-adv-x="915" 
d="M815 54q0 -54 -54 -54h-612q-25 0 -43.5 18.5t-18.5 43.5v91q0 21 12 37l411 561l182 192v64l-170 -10h-355q-54 0 -54 54t54 54h567q25 0 43.5 -18.5t18.5 -43.5v-90q0 -21 -12 -37l-450 -615l-153 -148v-55l157 10h423q54 0 54 -54z" />
    <glyph glyph-name="braceleft" unicode="{" horiz-adv-x="815" 
d="M666 -136q0 -49 -49 -49h-56q-99 0 -169 69.5t-70 167.5v514q0 47 -32.5 79.5t-79.5 32.5q-58 0 -58 58t58 58q47 0 79.5 33t32.5 80v513q0 99 70 169t169 70h56q49 0 49 -49t-49 -49h-74q-47 0 -80 -33t-33 -80v-536q0 -57 -25 -107q-12 -24 -114 -42v-54q30 -5 52 -10
q54 -14 62 -30q25 -49 25 -108v-537q0 -46 33 -78.5t80 -32.5h74q49 0 49 -49z" />
    <glyph glyph-name="bar" unicode="|" horiz-adv-x="553" 
d="M338 -368q0 -54 -54 -54t-54 54v2211q0 54 54 54t54 -54v-2211z" />
    <glyph glyph-name="braceright" unicode="}" horiz-adv-x="815" 
d="M663 736q0 -58 -58 -58q-47 0 -79.5 -32.5t-32.5 -79.5v-514q0 -98 -70 -167.5t-169 -69.5h-56q-49 0 -49 49t49 49h74q47 0 80 32.5t33 78.5v537q0 59 25 108q12 24 114 40v54q-30 5 -52 11q-54 15 -62 31q-25 50 -25 107v536q0 47 -33 80t-80 33h-74q-49 0 -49 49
t49 49h56q99 0 169 -70t70 -169v-513q0 -47 32.5 -80t79.5 -33q58 0 58 -58z" />
    <glyph glyph-name="asciitilde" unicode="~" horiz-adv-x="1291" 
d="M1106 778q0 -93 -66 -159t-159 -66q-114 0 -184 97l-210 292q-27 38 -78 38q-43 0 -80 -29.5t-37 -69.5v-265q0 -54 -54 -54t-54 54v265q0 93 66 159t159 66q115 0 180 -91l209 -292q32 -44 83 -44q43 0 80 29.5t37 69.5v265q0 54 54 54t54 -54v-265z" />
    <glyph glyph-name="uni00A0" unicode="&#xa0;" horiz-adv-x="553" 
 />
    <glyph glyph-name="exclamdown" unicode="&#xa1;" horiz-adv-x="540" 
d="M353 985q0 -83 -83 -83t-83 83v58q0 83 83 83t83 -83v-58zM333 -304q0 -63 -63 -63t-63 63v767q0 63 63 63t63 -63v-767z" />
    <glyph glyph-name="cent" unicode="&#xa2;" horiz-adv-x="958" 
d="M877 258q0 -54 -54 -54h-159v-150q0 -62 -63 -62t-63 62v150h-51q-146 0 -249 103t-103 249v178q0 146 103 249t249 103h51v151q0 63 63 63t63 -63v-151h159q54 0 54 -54t-54 -54h-336q-94 0 -160 -66t-66 -160v-214q0 -94 66 -160t160 -66h336q54 0 54 -54z" />
    <glyph glyph-name="sterling" unicode="&#xa3;" horiz-adv-x="1048" 
d="M976 54q0 -54 -54 -54h-796q-54 0 -54 54t54 54h157v673h-157q-54 0 -54 54t54 54h157v96q0 202 143.5 345.5t345.5 143.5h150q54 0 54 -54t-54 -54h-150q-150 0 -256.5 -106.5t-106.5 -256.5v-114h328q54 0 54 -54t-54 -54h-328v-673h513q54 0 54 -54z" />
    <glyph glyph-name="currency" unicode="&#xa4;" horiz-adv-x="1253" 
d="M1163 277q0 -9 -6 -21q-62 -120 -177 -191q-118 -73 -257 -73q-202 0 -345.5 143t-143.5 345v52h-108q-54 0 -54 54t54 54h108v204h-108q-54 0 -54 54t54 54h108v42q0 202 143.5 345.5t345.5 143.5q140 0 256 -72t178 -192q6 -12 6 -22q0 -23 -18.5 -40.5t-42.5 -17.5
q-36 0 -57 40q-46 89 -132 142.5t-190 53.5q-150 0 -256.5 -106.5t-106.5 -256.5v-60h359q54 0 54 -54t-54 -54h-359v-204h359q54 0 54 -54t-54 -54h-359v-70q0 -150 106.5 -256.5t256.5 -106.5q104 0 190 53.5t132 142.5q21 40 57 40q24 0 42.5 -17.5t18.5 -40.5z" />
    <glyph glyph-name="yen" unicode="&#xa5;" horiz-adv-x="1067" 
d="M995 1420q0 -21 -17 -41l-381 -441v-94h288q54 0 54 -54t-54 -54h-288v-201h288q54 0 54 -54t-54 -54h-288v-373q0 -62 -63 -62t-63 62v373h-288q-54 0 -54 54t54 54h288v201h-288q-54 0 -54 54t54 54h288v94l-383 441q-16 18 -16 41q0 26 20 45.5t46 19.5q27 0 46 -23
l201 -242l122 -199h54l121 199l202 242q19 23 46 23q25 0 45 -19.5t20 -45.5z" />
    <glyph glyph-name="brokenbar" unicode="&#xa6;" horiz-adv-x="553" 
d="M339 984q0 -63 -63 -63t-63 63v859q0 63 63 63t63 -63v-859zM339 -368q0 -63 -63 -63t-63 63v858q0 63 63 63t63 -63v-858z" />
    <glyph glyph-name="section" unicode="&#xa7;" horiz-adv-x="1099" 
d="M937 584q0 -154 -126 -243q103 -86 103 -228q0 -123 -87 -209.5t-211 -86.5h-353q-54 0 -54 54t54 54h353q75 0 123.5 48t48.5 140q0 110 -88 151l-373 175q-74 35 -119.5 107.5t-45.5 159.5q0 154 126 243q-104 87 -104 227q0 124 87.5 211t211.5 87h353q54 0 54 -54
t-54 -54h-353q-75 0 -122 -48q-51 -52 -51 -142q0 -108 89 -150l373 -176q74 -35 119.5 -107t45.5 -159zM811 584q0 108 -93 153l-192 92l-113 104h-45l-60 -129q-20 -43 -20 -98q0 -108 94 -153l175 -83l129 -114h45l47 107q33 54 33 121z" />
    <glyph glyph-name="dieresis" unicode="&#xa8;" horiz-adv-x="968" 
d="M749 1408q0 -63 -63 -63h-58q-63 0 -63 63t63 63h58q63 0 63 -63zM402 1408q0 -63 -63 -63h-57q-63 0 -63 63t63 63h57q63 0 63 -63z" />
    <glyph glyph-name="copyright" unicode="&#xa9;" horiz-adv-x="1843" 
d="M1659 737q0 -305 -216 -521t-521 -216t-521.5 216t-216.5 521t216.5 521t521.5 216t521 -216t216 -521zM1551 737q0 261 -184 445t-445 184t-445.5 -184.5t-184.5 -444.5t184.5 -444.5t445.5 -184.5t445 184t184 445zM1262 496q0 -19 -13 -35q-133 -167 -329 -167
q-182 0 -304 129t-122 314t122 314t304 129q196 0 329 -167q13 -16 13 -35q0 -55 -56 -55q-24 0 -41 22q-100 126 -245 126q-135 0 -219 -98q-81 -94 -81 -236t81 -236q84 -98 219 -98q144 0 245 127q16 20 40 20q57 0 57 -54z" />
    <glyph glyph-name="ordfeminine" unicode="&#xaa;" horiz-adv-x="870" 
d="M735 616q0 -63 -63 -63t-63 63v21l27 91l-27 9q-21 -38 -44 -69q-55 -74 -107 -98q-38 -17 -94 -17q-256 0 -256 263q0 151 133 227q102 58 244 58h124v120q0 60 -42.5 102.5t-102.5 42.5h-181q-54 0 -54 54t54 54h181q112 0 191.5 -79.5t79.5 -191.5v-587zM609 824v169
h-124q-108 0 -178 -49q-73 -49 -73 -128q0 -155 130 -155q84 0 142 43q49 35 103 120z" />
    <glyph glyph-name="guillemotleft" unicode="&#xab;" horiz-adv-x="1079" 
d="M935 239q0 -22 -17 -38.5t-39 -16.5q-21 0 -38 17l-314 316q-15 15 -15 37q0 24 15 39l314 312q17 17 38 17q22 0 39 -16.5t17 -38.5q0 -21 -17 -37l-159 -150l-134 -108v-36l125 -100l168 -160q17 -16 17 -37zM567 239q0 -22 -17 -38.5t-39 -16.5q-21 0 -38 17l-314 316
q-15 15 -15 37q0 24 15 39l314 312q17 17 38 17q22 0 39 -16.5t17 -38.5q0 -21 -17 -37l-159 -150l-134 -108v-36l125 -100l168 -160q17 -16 17 -37z" />
    <glyph glyph-name="logicalnot" unicode="&#xac;" horiz-adv-x="904" 
d="M778 281q0 -59 -59 -59q-58 0 -58 59v308h-513q-58 0 -58 58q0 59 58 59h571q23 0 41 -18t18 -41v-366z" />
    <glyph glyph-name="registered" unicode="&#xae;" horiz-adv-x="918" 
d="M890 1062q0 -178 -126.5 -304t-304.5 -126t-304.5 126t-126.5 304t126.5 304.5t304.5 126.5t304.5 -126.5t126.5 -304.5zM812 1062q0 146 -103.5 249.5t-249.5 103.5t-249.5 -103.5t-103.5 -249.5t103.5 -249t249.5 -103t249.5 103t103.5 249zM639 1160q0 -102 -101 -131
l-5 -20l59 -59l45 -78q7 -11 7 -23q0 -44 -49 -44q-26 0 -39 24l-99 185h-75v-163q0 -46 -45 -46q-46 0 -46 46v410q0 46 46 46h156q61 0 103.5 -43t42.5 -104zM548 1160q0 24 -16.5 44.5t-38.5 20.5h-111v-130h111q22 0 38.5 20.5t16.5 44.5z" />
    <glyph glyph-name="macron" unicode="&#xaf;" horiz-adv-x="958" 
d="M778 1487q0 -54 -54 -54h-490q-54 0 -54 54t54 54h490q54 0 54 -54z" />
    <glyph glyph-name="degree" unicode="&#xb0;" horiz-adv-x="1106" 
d="M873 1160q0 -132 -93.5 -225.5t-226.5 -93.5q-132 0 -225.5 93.5t-93.5 225.5q0 133 93.5 226.5t225.5 93.5t226 -94t94 -226zM765 1160q0 88 -62 150t-150 62t-149.5 -62t-61.5 -150t61.5 -149.5t149.5 -61.5t150 61.5t62 149.5z" />
    <glyph glyph-name="plusminus" unicode="&#xb1;" horiz-adv-x="1093" 
d="M994 134q0 -49 -50 -49h-796q-49 0 -49 49q0 50 49 50h349v414h-349q-49 0 -49 49q0 50 49 50h349v348q0 49 49 49q50 0 50 -49v-348h348q50 0 50 -50q0 -49 -50 -49h-348v-414h348q50 0 50 -50z" />
    <glyph glyph-name="uni00B2" unicode="&#xb2;" horiz-adv-x="718" 
d="M628 607q0 -54 -54 -54h-421q-63 0 -63 63v53q0 21 13 38l367 467q16 20 16 60q0 59 -33 95.5t-83 36.5h-217q-54 0 -54 54t54 54h217q100 0 171 -69.5t71 -170.5q0 -85 -43 -138l-214 -263l-168 -154v-45l205 27h182q54 0 54 -54z" />
    <glyph glyph-name="uni00B3" unicode="&#xb3;" horiz-adv-x="628" 
d="M538 805q0 -104 -74 -178t-178 -74h-187q-54 0 -54 54t54 54h187q52 0 89 37t37 89v68q0 52 -37 88.5t-89 36.5h-66q-54 0 -54 54t54 54h66q54 0 90 36t36 99q0 66 -37 106q-35 37 -89 37h-187q-54 0 -54 54t54 54h187q105 0 178.5 -69.5t73.5 -172.5q0 -58 -38 -107
q-29 -37 -110 -68v-45q28 -11 50 -24q54 -30 73 -62q25 -42 25 -80v-41z" />
    <glyph glyph-name="acute" unicode="&#xb4;" horiz-adv-x="737" 
d="M548 1499l-294 -163q-23 -12 -43 -7q-44 12 -32 55q6 22 26 34l288 175q20 12 42 6q41 -11 41 -55q0 -30 -28 -45z" />
    <glyph glyph-name="uni00B5" unicode="&#xb5;" 
d="M904 57q0 -65 -63 -65t-63 65v49l27 103l-36 9q-9 -29 -18 -53q-22 -58 -45 -79q-102 -94 -221 -94q-48 0 -95 12q-53 15 -102 129l-27 -9l27 -179v-258q0 -66 -63 -66t-63 66v1365q0 63 63 63t63 -63v-759q0 -94 60 -146q54 -48 137 -48q105 0 190.5 70.5t102.5 169.5
v713q0 63 63 63t63 -63v-995z" />
    <glyph glyph-name="paragraph" unicode="&#xb6;" horiz-adv-x="1158" 
d="M969 54q0 -62 -63 -62t-63 62v1312h-219v-1312q0 -62 -63 -62t-63 62v678q-148 7 -251 114t-103 256q0 154 109 263t263 109h390q25 0 44 -19t19 -44v-1357z" />
    <glyph glyph-name="periodcentered" unicode="&#xb7;" horiz-adv-x="549" 
d="M369 629q0 -44 -28.5 -69t-66.5 -25q-37 0 -64 24q-30 26 -30 70v58q0 44 30 70q27 24 64 24q38 0 66.5 -25t28.5 -69v-58z" />
    <glyph glyph-name="cedilla" unicode="&#xb8;" horiz-adv-x="722" 
d="M488 -84q0 -13 -9 -26l-162 -241q-14 -21 -36 -21q-47 0 -47 45q0 14 8 26l162 241q14 21 37 21q47 0 47 -45z" />
    <glyph glyph-name="uni00B9" unicode="&#xb9;" horiz-adv-x="645" 
d="M483 616q0 -63 -63 -63t-63 63v507l45 225l-54 22l-122 -180l-72 -81q-18 -20 -44 -20t-45.5 19.5t-19.5 45.5q0 23 20 43l258 258q19 19 44 19h53q25 0 44 -19t19 -44v-795z" />
    <glyph glyph-name="ordmasculine" unicode="&#xba;" horiz-adv-x="905" 
d="M770 845q0 -125 -88 -213t-213 -88h-33q-125 0 -213 88t-88 213v333q0 125 88 213.5t213 88.5h33q125 0 213 -88.5t88 -213.5v-333zM644 827v369q0 73 -51 124.5t-124 51.5h-33q-73 0 -124 -51.5t-51 -124.5v-369q0 -73 51 -124t124 -51h33q73 0 124 51t51 124z" />
    <glyph glyph-name="guillemotright" unicode="&#xbb;" horiz-adv-x="1079" 
d="M935 554q0 -22 -15 -37l-314 -316q-17 -17 -38 -17q-22 0 -39 16.5t-17 38.5q0 21 17 37l168 160l125 100v36l-134 108l-159 150q-17 16 -17 37q0 22 17 38.5t39 16.5q21 0 38 -17l314 -312q15 -15 15 -39zM567 554q0 -22 -15 -37l-314 -316q-17 -17 -37 -17
q-22 0 -39.5 16.5t-17.5 38.5q0 21 17 37l167 160l126 100v36l-135 108l-158 150q-17 16 -17 37q0 22 17.5 38.5t39.5 16.5q20 0 37 -17l314 -312q15 -15 15 -39z" />
    <glyph glyph-name="onequarter" unicode="&#xbc;" horiz-adv-x="1801" 
d="M1711 298q0 -54 -54 -54h-97v-190q0 -62 -63 -62t-63 62v190h-324q-25 0 -44 19t-19 44v53q0 20 10 35l334 499q19 28 53 28h53q25 0 44 -19t19 -44v-507h97q54 0 54 -54zM1327 1431q0 -14 -8 -28l-775 -1384q-16 -28 -45 -28q-57 0 -57 52q0 14 8 28l775 1384
q16 29 45 29q57 0 57 -53zM528 616q0 -63 -63 -63t-63 63v507l45 225l-54 22l-122 -180l-72 -81q-18 -20 -44 -20t-45.5 19.5t-19.5 45.5q0 23 20 43l258 258q19 19 44 19h53q25 0 44 -19t19 -44v-795zM1479 803l-45 9l-104 -214l-66 -107l-135 -139l18 -36l189 36h98v204z
" />
    <glyph glyph-name="onehalf" unicode="&#xbd;" horiz-adv-x="1835" 
d="M1745 54q0 -54 -54 -54h-421q-63 0 -63 63v53q0 22 13 39l367 466q16 20 16 60q0 59 -33 96t-83 37h-217q-54 0 -54 54t54 54h217q100 0 171 -70t71 -171q0 -84 -43 -137l-214 -263l-168 -155v-45l205 27h182q54 0 54 -54zM1327 1431q0 -14 -8 -28l-775 -1384
q-16 -28 -45 -28q-57 0 -57 52q0 14 8 28l775 1384q16 29 45 29q57 0 57 -53zM528 616q0 -63 -63 -63t-63 63v507l45 225l-54 22l-122 -180l-72 -81q-18 -20 -44 -20t-45.5 19.5t-19.5 45.5q0 23 20 43l258 258q19 19 44 19h53q25 0 44 -19t19 -44v-795z" />
    <glyph glyph-name="threequarters" unicode="&#xbe;" horiz-adv-x="1801" 
d="M1711 298q0 -54 -54 -54h-97v-190q0 -62 -63 -62t-63 62v190h-324q-25 0 -44 19t-19 44v53q0 20 10 35l334 499q19 28 53 28h53q25 0 44 -19t19 -44v-507h97q54 0 54 -54zM1327 1431q0 -14 -8 -28l-775 -1384q-16 -28 -45 -28q-57 0 -57 52q0 14 8 28l775 1384
q16 29 45 29q57 0 57 -53zM583 805q0 -104 -74 -178t-178 -74h-187q-54 0 -54 54t54 54h187q52 0 89 37t37 89v68q0 52 -37 88.5t-89 36.5h-66q-54 0 -54 54t54 54h66q54 0 90 36t36 99q0 66 -37 106q-35 37 -89 37h-187q-54 0 -54 54t54 54h187q105 0 178.5 -69.5
t73.5 -172.5q0 -58 -38 -107q-29 -37 -110 -68v-45q28 -11 50 -24q54 -30 73 -62q25 -42 25 -80v-41zM1479 803l-45 9l-104 -214l-66 -107l-135 -139l18 -36l189 36h98v204z" />
    <glyph glyph-name="questiondown" unicode="&#xbf;" horiz-adv-x="846" 
d="M597 985q0 -83 -83 -83t-83 83v58q0 83 83 83t83 -83v-58zM896 -313q0 -54 -54 -54h-375q-152 0 -259.5 107t-107.5 259q0 145 90 253l274 329q21 25 48 25q54 0 54 -54q0 -18 -15 -37l-254 -325q-71 -91 -71 -191q0 -115 71 -188q68 -70 170 -70h375q54 0 54 -54z" />
    <glyph glyph-name="Agrave" unicode="&#xc0;" horiz-adv-x="1219" 
d="M1147 51q0 -59 -66 -59q-46 0 -59 43l-139 466h-547l-140 -466q-13 -43 -58 -43q-66 0 -66 59q0 9 4 22l419 1357q5 15 24.5 29.5t35.5 14.5h108q16 0 36 -14.5t25 -29.5l419 -1357q4 -13 4 -22zM859 627l-51 124l-84 282l-81 360h-68l-80 -360l-85 -282l-51 -124l14 -36
l162 18h149l161 -18zM716 1742q0 -45 -46 -45q-15 0 -31 9l-294 163q-28 16 -28 45q0 57 54 57q15 0 28 -8l288 -175q29 -18 29 -46z" />
    <glyph glyph-name="Aacute" unicode="&#xc1;" horiz-adv-x="1219" 
d="M1147 51q0 -59 -66 -59q-46 0 -59 43l-139 466h-547l-140 -466q-13 -43 -58 -43q-66 0 -66 59q0 9 4 22l419 1357q5 15 24.5 29.5t35.5 14.5h108q16 0 36 -14.5t25 -29.5l419 -1357q4 -13 4 -22zM859 627l-51 124l-84 282l-81 360h-68l-80 -360l-85 -282l-51 -124l14 -36
l162 18h149l161 -18zM838 1879l-294 -163q-23 -12 -43 -7q-44 12 -32 55q6 22 26 34l288 175q20 12 42 6q41 -11 41 -55q0 -30 -28 -45z" />
    <glyph glyph-name="Acircumflex" unicode="&#xc2;" horiz-adv-x="1219" 
d="M913 1751q0 -45 -45 -45q-22 0 -41 18l-110 107l-84 117h-18l-85 -117l-110 -107q-19 -18 -40 -18q-45 0 -45 45q0 22 17 40l233 243q16 17 39 17t39 -17l233 -243q17 -18 17 -40zM1147 51q0 -59 -66 -59q-46 0 -59 43l-139 466h-547l-140 -466q-13 -43 -58 -43
q-66 0 -66 59q0 9 4 22l419 1357q5 15 24.5 29.5t35.5 14.5h108q16 0 36 -14.5t25 -29.5l419 -1357q4 -13 4 -22zM859 627l-51 124l-84 282l-81 360h-68l-80 -360l-85 -282l-51 -124l14 -36l162 18h149l161 -18z" />
    <glyph glyph-name="Atilde" unicode="&#xc3;" horiz-adv-x="1219" 
d="M1147 51q0 -59 -66 -59q-46 0 -59 43l-139 466h-547l-140 -466q-13 -43 -58 -43q-66 0 -66 59q0 9 4 22l419 1357q5 15 24.5 29.5t35.5 14.5h108q16 0 36 -14.5t25 -29.5l419 -1357q4 -13 4 -22zM859 627l-51 124l-84 282l-81 360h-68l-80 -360l-85 -282l-51 -124l14 -36
l162 18h149l161 -18zM931 1916q0 -10 -4 -20l-34 -81q-49 -116 -146 -116q-61 0 -101 37q-19 17 -64 85q-33 49 -70 49q-41 0 -69 -67l-35 -85q-11 -27 -38 -27q-48 0 -48 45q0 8 5 20l36 83q52 121 149 121q61 0 101 -37q18 -17 64 -85q33 -49 70 -49t52 34l49 113
q11 25 36 25q8 0 21 -6q26 -12 26 -39z" />
    <glyph glyph-name="Adieresis" unicode="&#xc4;" horiz-adv-x="1219" 
d="M888 1798q0 -63 -63 -63h-58q-63 0 -63 63t63 63h58q63 0 63 -63zM541 1798q0 -63 -63 -63h-57q-63 0 -63 63t63 63h57q63 0 63 -63zM1147 51q0 -59 -66 -59q-46 0 -59 43l-139 466h-547l-140 -466q-13 -43 -58 -43q-66 0 -66 59q0 9 4 22l419 1357q5 15 24.5 29.5
t35.5 14.5h108q16 0 36 -14.5t25 -29.5l419 -1357q4 -13 4 -22zM859 627l-51 124l-84 282l-81 360h-68l-80 -360l-85 -282l-51 -124l14 -36l162 18h149l161 -18z" />
    <glyph glyph-name="Aring" unicode="&#xc5;" horiz-adv-x="1219" 
d="M828 1869q0 -84 -59.5 -143.5t-143.5 -59.5t-143 59.5t-59 143.5t59 143t143 59t143.5 -59t59.5 -143zM738 1869q0 46 -33 79t-80 33t-79.5 -32.5t-32.5 -79.5t33 -80t79 -33q47 0 80 33t33 80zM1147 51q0 -59 -66 -59q-46 0 -59 43l-139 466h-547l-140 -466
q-13 -43 -58 -43q-66 0 -66 59q0 9 4 22l419 1357q5 15 24.5 29.5t35.5 14.5h108q16 0 36 -14.5t25 -29.5l419 -1357q4 -13 4 -22zM859 627l-51 124l-84 282l-81 360h-68l-80 -360l-85 -282l-51 -124l14 -36l162 18h149l161 -18z" />
    <glyph glyph-name="AE" unicode="&#xc6;" horiz-adv-x="1585" 
d="M1485 54q0 -54 -54 -54h-612q-63 0 -63 63v429h-455l-168 -460q-15 -41 -57 -41q-66 0 -66 60q0 14 4 25l499 1357q5 13 25 27t34 14h859q54 0 54 -54t-54 -54h-549v-480h504q54 0 54 -54t-54 -54h-504v-670h549q54 0 54 -54zM756 600v766h-166l-99 -321l-153 -445h418z
" />
    <glyph glyph-name="Ccedilla" unicode="&#xc7;" horiz-adv-x="995" 
d="M923 54q0 -54 -54 -54h-236q-202 0 -345.5 143.5t-143.5 345.5v496q0 202 143.5 345.5t345.5 143.5h218q54 0 54 -54t-54 -54h-218q-150 0 -256.5 -106.5t-106.5 -256.5v-532q0 -150 106.5 -256.5t256.5 -106.5h236q54 0 54 -54zM668 -84q0 -13 -9 -26l-162 -241
q-14 -21 -36 -21q-47 0 -47 45q0 14 8 26l162 241q14 21 37 21q47 0 47 -45z" />
    <glyph glyph-name="Egrave" unicode="&#xc8;" horiz-adv-x="1035" 
d="M935 54q0 -54 -54 -54h-629q-25 0 -44 19t-19 44v1348q0 25 19 44t44 19h629q54 0 54 -54t-54 -54h-566v-480h521q54 0 54 -54t-54 -54h-521v-670h566q54 0 54 -54zM676 1742q0 -45 -46 -45q-15 0 -31 9l-294 163q-28 16 -28 45q0 57 54 57q15 0 28 -8l288 -175
q29 -18 29 -46z" />
    <glyph glyph-name="Eacute" unicode="&#xc9;" horiz-adv-x="1035" 
d="M935 54q0 -54 -54 -54h-629q-25 0 -44 19t-19 44v1348q0 25 19 44t44 19h629q54 0 54 -54t-54 -54h-566v-480h521q54 0 54 -54t-54 -54h-521v-670h566q54 0 54 -54zM748 1879l-294 -163q-23 -12 -43 -7q-44 12 -32 55q6 22 26 34l288 175q20 12 42 6q41 -11 41 -55
q0 -30 -28 -45z" />
    <glyph glyph-name="Ecircumflex" unicode="&#xca;" horiz-adv-x="1035" 
d="M935 54q0 -54 -54 -54h-629q-25 0 -44 19t-19 44v1348q0 25 19 44t44 19h629q54 0 54 -54t-54 -54h-566v-480h521q54 0 54 -54t-54 -54h-521v-670h566q54 0 54 -54zM843 1751q0 -45 -45 -45q-22 0 -41 18l-110 107l-84 117h-18l-85 -117l-110 -107q-19 -18 -40 -18
q-45 0 -45 45q0 22 17 40l233 243q16 17 39 17t39 -17l233 -243q17 -18 17 -40z" />
    <glyph glyph-name="Edieresis" unicode="&#xcb;" horiz-adv-x="1035" 
d="M816 1798q0 -63 -63 -63h-58q-63 0 -63 63t63 63h58q63 0 63 -63zM469 1798q0 -63 -63 -63h-57q-63 0 -63 63t63 63h57q63 0 63 -63zM935 54q0 -54 -54 -54h-629q-25 0 -44 19t-19 44v1348q0 25 19 44t44 19h629q54 0 54 -54t-54 -54h-566v-480h521q54 0 54 -54t-54 -54
h-521v-670h566q54 0 54 -54z" />
    <glyph glyph-name="Igrave" unicode="&#xcc;" horiz-adv-x="504" 
d="M315 54q0 -62 -63 -62t-63 62v1366q0 63 63 63t63 -63v-1366zM357 1742q0 -45 -46 -45q-15 0 -31 9l-294 163q-28 16 -28 45q0 57 54 57q15 0 28 -8l288 -175q29 -18 29 -46z" />
    <glyph glyph-name="Iacute" unicode="&#xcd;" horiz-adv-x="511" 
d="M315 54q0 -62 -63 -62t-63 62v1366q0 63 63 63t63 -63v-1366zM519 1879l-294 -163q-23 -12 -43 -7q-44 12 -32 55q6 22 26 34l288 175q20 12 42 6q41 -11 41 -55q0 -30 -28 -45z" />
    <glyph glyph-name="Icircumflex" unicode="&#xce;" horiz-adv-x="454" 
d="M517 1751q0 -45 -45 -45q-22 0 -41 18l-110 107l-84 117h-18l-85 -117l-110 -107q-19 -18 -40 -18q-45 0 -45 45q0 22 17 40l233 243q16 17 39 17t39 -17l233 -243q17 -18 17 -40zM315 54q0 -62 -63 -62t-63 62v1366q0 63 63 63t63 -63v-1366z" />
    <glyph glyph-name="Idieresis" unicode="&#xcf;" horiz-adv-x="454" 
d="M493 1798q0 -63 -63 -63h-58q-63 0 -63 63t63 63h58q63 0 63 -63zM146 1798q0 -63 -63 -63h-57q-63 0 -63 63t63 63h57q63 0 63 -63zM316 54q0 -62 -63 -62t-63 62v1366q0 63 63 63t63 -63v-1366z" />
    <glyph glyph-name="Eth" unicode="&#xd0;" horiz-adv-x="1201" 
d="M1057 577q0 -239 -169 -408t-408 -169h-228q-25 0 -44 19t-19 44v1348q0 25 19 44t44 19h228q239 0 408 -169t169 -408v-320zM931 559v356q0 187 -132 319t-319 132h-165v-480h242q54 0 54 -54t-54 -54h-242v-670h165q187 0 319 132t132 319z" />
    <glyph glyph-name="Ntilde" unicode="&#xd1;" horiz-adv-x="1345" 
d="M1156 63q0 -25 -19 -44t-44 -19h-90q-12 0 -32 12.5t-25 22.5l-465 959l-148 374h-54l36 -425v-889q0 -65 -63 -65t-63 65v1357q0 63 63 63h90q12 0 32 -12.5t25 -22.5l440 -907l173 -426h54l-36 436v878q0 63 63 63t63 -63v-1357zM1001 1906q0 -10 -4 -20l-34 -81
q-49 -116 -146 -116q-61 0 -101 37q-19 17 -64 85q-33 49 -70 49q-41 0 -69 -67l-35 -85q-11 -27 -38 -27q-48 0 -48 45q0 8 5 20l36 83q52 121 149 121q61 0 101 -37q18 -17 64 -85q33 -49 70 -49t52 34l49 113q11 25 36 25q8 0 21 -6q26 -12 26 -39z" />
    <glyph glyph-name="Ograve" unicode="&#xd2;" horiz-adv-x="1163" 
d="M1019 370q0 -153 -108.5 -261.5t-261.5 -108.5h-135q-153 0 -261.5 108.5t-108.5 261.5v734q0 153 108.5 261.5t261.5 108.5h135q153 0 261.5 -108.5t108.5 -261.5v-734zM893 352v770q0 101 -71.5 172.5t-172.5 71.5h-135q-101 0 -172.5 -71.5t-71.5 -172.5v-770
q0 -101 71.5 -172.5t172.5 -71.5h135q101 0 172.5 71.5t71.5 172.5zM736 1742q0 -45 -46 -45q-15 0 -31 9l-294 163q-28 16 -28 45q0 57 54 57q15 0 28 -8l288 -175q29 -18 29 -46z" />
    <glyph glyph-name="Oacute" unicode="&#xd3;" horiz-adv-x="1163" 
d="M1019 370q0 -153 -108.5 -261.5t-261.5 -108.5h-135q-153 0 -261.5 108.5t-108.5 261.5v734q0 153 108.5 261.5t261.5 108.5h135q153 0 261.5 -108.5t108.5 -261.5v-734zM893 352v770q0 101 -71.5 172.5t-172.5 71.5h-135q-101 0 -172.5 -71.5t-71.5 -172.5v-770
q0 -101 71.5 -172.5t172.5 -71.5h135q101 0 172.5 71.5t71.5 172.5zM818 1879l-294 -163q-23 -12 -43 -7q-44 12 -32 55q6 22 26 34l288 175q20 12 42 6q41 -11 41 -55q0 -30 -28 -45z" />
    <glyph glyph-name="Ocircumflex" unicode="&#xd4;" horiz-adv-x="1163" 
d="M882 1751q0 -45 -45 -45q-22 0 -41 18l-110 107l-84 117h-18l-85 -117l-110 -107q-19 -18 -40 -18q-45 0 -45 45q0 22 17 40l233 243q16 17 39 17t39 -17l233 -243q17 -18 17 -40zM1019 370q0 -153 -108.5 -261.5t-261.5 -108.5h-135q-153 0 -261.5 108.5t-108.5 261.5
v734q0 153 108.5 261.5t261.5 108.5h135q153 0 261.5 -108.5t108.5 -261.5v-734zM893 352v770q0 101 -71.5 172.5t-172.5 71.5h-135q-101 0 -172.5 -71.5t-71.5 -172.5v-770q0 -101 71.5 -172.5t172.5 -71.5h135q101 0 172.5 71.5t71.5 172.5z" />
    <glyph glyph-name="Otilde" unicode="&#xd5;" horiz-adv-x="1163" 
d="M1019 370q0 -153 -108.5 -261.5t-261.5 -108.5h-135q-153 0 -261.5 108.5t-108.5 261.5v734q0 153 108.5 261.5t261.5 108.5h135q153 0 261.5 -108.5t108.5 -261.5v-734zM893 352v770q0 101 -71.5 172.5t-172.5 71.5h-135q-101 0 -172.5 -71.5t-71.5 -172.5v-770
q0 -101 71.5 -172.5t172.5 -71.5h135q101 0 172.5 71.5t71.5 172.5zM886 1916q0 -10 -4 -20l-34 -81q-49 -116 -146 -116q-61 0 -101 37q-19 17 -64 85q-33 49 -70 49q-41 0 -69 -67l-35 -85q-11 -27 -38 -27q-48 0 -48 45q0 8 5 20l36 83q52 121 149 121q61 0 101 -37
q18 -17 64 -85q33 -49 70 -49t52 34l49 113q11 25 36 25q8 0 21 -6q26 -12 26 -39z" />
    <glyph glyph-name="Odieresis" unicode="&#xd6;" horiz-adv-x="1163" 
d="M857 1798q0 -63 -63 -63h-58q-63 0 -63 63t63 63h58q63 0 63 -63zM510 1798q0 -63 -63 -63h-57q-63 0 -63 63t63 63h57q63 0 63 -63zM1019 370q0 -153 -108.5 -261.5t-261.5 -108.5h-135q-153 0 -261.5 108.5t-108.5 261.5v734q0 153 108.5 261.5t261.5 108.5h135
q153 0 261.5 -108.5t108.5 -261.5v-734zM893 352v770q0 101 -71.5 172.5t-172.5 71.5h-135q-101 0 -172.5 -71.5t-71.5 -172.5v-770q0 -101 71.5 -172.5t172.5 -71.5h135q101 0 172.5 71.5t71.5 172.5z" />
    <glyph glyph-name="multiply" unicode="&#xd7;" horiz-adv-x="920" 
d="M856 315q0 -25 -18 -45q-10 -9 -22.5 -13.5t-24.5 -4.5q-11 0 -21.5 3.5t-19.5 12.5l-170 178l-103 140h-35l-104 -142l-168 -176q-18 -18 -41 -18q-12 0 -24 5.5t-21 14.5q-9 10 -15 21.5t-6 23.5q0 23 21 41l174 168l141 105v35l-139 104q-67 63 -103 97.5t-53 50.5
l-22 22q-11 9 -15 19.5t-4 21.5q0 12 6 24t15 21q8 9 20.5 14.5t24.5 5.5q11 0 21.5 -4.5t19.5 -15.5l22 -22q17 -16 51 -52t97 -102l102 -139h37l103 139l170 176q9 11 19.5 14.5t21.5 3.5q12 0 23.5 -5t21.5 -13q9 -9 13.5 -21t4.5 -24q0 -11 -3.5 -22.5t-14.5 -20.5
l-176 -168l-140 -102v-37l140 -103l176 -168q11 -9 14.5 -20.5t3.5 -22.5z" />
    <glyph glyph-name="Oslash" unicode="&#xd8;" horiz-adv-x="1163" 
d="M1019 370q0 -153 -108.5 -261.5t-261.5 -108.5h-135q-153 0 -261.5 108.5t-108.5 261.5v734q0 153 108.5 261.5t261.5 108.5h135q153 0 261.5 -108.5t108.5 -261.5v-734zM893 1125q-11 97 -80 160t-164 63h-135q-101 0 -172.5 -71.5t-71.5 -172.5v-372l-27 -230l45 -18
l93 126q1 1 512 515zM920 981l-45 18l-106 -147q-499 -507 -498 -506q9 -93 79 -156.5t164 -63.5h135q101 0 172.5 71.5t71.5 172.5v413z" />
    <glyph glyph-name="Ugrave" unicode="&#xd9;" horiz-adv-x="1256" 
d="M1067 398q0 -169 -119 -287.5t-287 -118.5h-65q-168 0 -287.5 119t-119.5 287v1032q0 63 63 63t63 -63v-1050q0 -116 82.5 -198.5t198.5 -82.5h65q116 0 198 82.5t82 198.5v1050q0 63 63 63t63 -63v-1032zM706 1742q0 -45 -46 -45q-15 0 -31 9l-294 163q-28 16 -28 45
q0 57 54 57q15 0 28 -8l288 -175q29 -18 29 -46z" />
    <glyph glyph-name="Uacute" unicode="&#xda;" horiz-adv-x="1256" 
d="M1067 398q0 -169 -119 -287.5t-287 -118.5h-65q-168 0 -287.5 119t-119.5 287v1032q0 63 63 63t63 -63v-1050q0 -116 82.5 -198.5t198.5 -82.5h65q116 0 198 82.5t82 198.5v1050q0 63 63 63t63 -63v-1032zM868 1879l-294 -163q-23 -12 -43 -7q-44 12 -32 55q6 22 26 34
l288 175q20 12 42 6q41 -11 41 -55q0 -30 -28 -45z" />
    <glyph glyph-name="Ucircumflex" unicode="&#xdb;" horiz-adv-x="1256" 
d="M917 1751q0 -45 -45 -45q-22 0 -41 18l-110 107l-84 117h-18l-85 -117l-110 -107q-19 -18 -40 -18q-45 0 -45 45q0 22 17 40l233 243q16 17 39 17t39 -17l233 -243q17 -18 17 -40zM1067 398q0 -169 -119 -287.5t-287 -118.5h-65q-168 0 -287.5 119t-119.5 287v1032
q0 63 63 63t63 -63v-1050q0 -116 82.5 -198.5t198.5 -82.5h65q116 0 198 82.5t82 198.5v1050q0 63 63 63t63 -63v-1032z" />
    <glyph glyph-name="Udieresis" unicode="&#xdc;" horiz-adv-x="1256" 
d="M909 1798q0 -63 -63 -63h-58q-63 0 -63 63t63 63h58q63 0 63 -63zM562 1798q0 -63 -63 -63h-57q-63 0 -63 63t63 63h57q63 0 63 -63zM1067 398q0 -169 -119 -287.5t-287 -118.5h-65q-168 0 -287.5 119t-119.5 287v1032q0 63 63 63t63 -63v-1050q0 -116 82.5 -198.5
t198.5 -82.5h65q116 0 198 82.5t82 198.5v1050q0 63 63 63t63 -63v-1032z" />
    <glyph glyph-name="Yacute" unicode="&#xdd;" horiz-adv-x="1080" 
d="M1008 1421q0 -14 -6 -28l-350 -789q-10 -23 -49 -35v-515q0 -62 -63 -62t-63 62v515q-39 12 -49 35l-350 789q-6 14 -6 28q0 26 20.5 44t46.5 18q38 0 54 -38l255 -599l58 -189h67l59 189l254 599q16 38 55 38q26 0 46.5 -18t20.5 -44zM848 1879l-294 -163
q-23 -12 -43 -7q-44 12 -32 55q6 22 26 34l288 175q20 12 42 6q41 -11 41 -55q0 -30 -28 -45z" />
    <glyph glyph-name="Thorn" unicode="&#xde;" horiz-adv-x="1063" 
d="M973 714q0 -159 -112.5 -272t-271.5 -113h-274v-275q0 -62 -63 -62t-63 62v1366q0 63 63 63t63 -63v-198h274q159 0 271.5 -112t112.5 -271v-125zM847 696v161q0 107 -75.5 182t-182.5 75h-274v-677h274q107 0 182.5 76t75.5 183z" />
    <glyph glyph-name="germandbls" unicode="&#xdf;" horiz-adv-x="1224" 
d="M1135 260q0 -108 -76 -184t-184 -76h-292q-54 0 -54 54t54 54h292q57 0 95.5 41.5t38.5 110.5q0 58 -39 95l-358 343q-70 67 -70 170q0 99 70 168.5t169 69.5h66v82q0 74 -52.5 126t-126.5 52h-175q-74 0 -126 -52t-52 -126v-1134q0 -62 -63 -62t-63 62v1116
q0 126 89 215t215 89h175q126 0 215.5 -89t89.5 -215v-109q0 -25 -19 -44t-44 -19h-129q-49 0 -81 -34.5t-32 -95.5q0 -49 33 -81l358 -342q76 -73 76 -185z" />
    <glyph glyph-name="agrave" unicode="&#xe0;" horiz-adv-x="987" 
d="M844 54q0 -62 -63 -62t-63 62v33l27 64l-22 10l-70 -113q-124 -56 -250 -56q-301 0 -301 314q0 179 141 272q119 78 299 78h176v149q0 80 -56 136.5t-136 56.5h-240q-54 0 -54 54t54 54h240q132 0 225 -93.5t93 -225.5v-733zM718 247v301h-176q-140 0 -227 -66t-87 -176
q0 -207 175 -207q234 0 315 148zM646 1372q0 -45 -46 -45q-15 0 -31 9l-294 163q-28 16 -28 45q0 57 54 57q15 0 28 -8l288 -175q29 -18 29 -46z" />
    <glyph glyph-name="aacute" unicode="&#xe1;" horiz-adv-x="987" 
d="M844 54q0 -62 -63 -62t-63 62v33l27 64l-22 10l-70 -113q-124 -56 -250 -56q-301 0 -301 314q0 179 141 272q119 78 299 78h176v149q0 80 -56 136.5t-136 56.5h-240q-54 0 -54 54t54 54h240q132 0 225 -93.5t93 -225.5v-733zM718 247v301h-176q-140 0 -227 -66t-87 -176
q0 -207 175 -207q234 0 315 148zM698 1499l-294 -163q-23 -12 -43 -7q-44 12 -32 55q6 22 26 34l288 175q20 12 42 6q41 -11 41 -55q0 -30 -28 -45z" />
    <glyph glyph-name="acircumflex" unicode="&#xe2;" horiz-adv-x="987" 
d="M844 54q0 -62 -63 -62t-63 62v33l27 64l-22 10l-70 -113q-124 -56 -250 -56q-301 0 -301 314q0 179 141 272q119 78 299 78h176v149q0 80 -56 136.5t-136 56.5h-240q-54 0 -54 54t54 54h240q132 0 225 -93.5t93 -225.5v-733zM718 247v301h-176q-140 0 -227 -66t-87 -176
q0 -207 175 -207q234 0 315 148zM787 1381q0 -45 -45 -45q-22 0 -41 18l-110 107l-84 117h-18l-85 -117l-110 -107q-19 -18 -40 -18q-45 0 -45 45q0 22 17 40l233 243q16 17 39 17t39 -17l233 -243q17 -18 17 -40z" />
    <glyph glyph-name="atilde" unicode="&#xe3;" horiz-adv-x="987" 
d="M844 54q0 -62 -63 -62t-63 62v33l27 64l-22 10l-70 -113q-124 -56 -250 -56q-301 0 -301 314q0 179 141 272q119 78 299 78h176v149q0 80 -56 136.5t-136 56.5h-240q-54 0 -54 54t54 54h240q132 0 225 -93.5t93 -225.5v-733zM718 247v301h-176q-140 0 -227 -66t-87 -176
q0 -207 175 -207q234 0 315 148zM802 1586q0 -10 -4 -20l-34 -81q-49 -116 -146 -116q-61 0 -101 37q-19 17 -64 85q-33 49 -70 49q-41 0 -69 -67l-35 -85q-11 -27 -38 -27q-48 0 -48 45q0 8 5 20l36 83q52 121 149 121q61 0 101 -37q18 -17 64 -85q33 -49 70 -49t52 34
l49 113q11 25 36 25q8 0 21 -6q26 -12 26 -39z" />
    <glyph glyph-name="adieresis" unicode="&#xe4;" horiz-adv-x="987" 
d="M844 54q0 -62 -63 -62t-63 62v33l27 64l-22 10l-70 -113q-124 -56 -250 -56q-301 0 -301 314q0 179 141 272q119 78 299 78h176v149q0 80 -56 136.5t-136 56.5h-240q-54 0 -54 54t54 54h240q132 0 225 -93.5t93 -225.5v-733zM718 247v301h-176q-140 0 -227 -66t-87 -176
q0 -207 175 -207q234 0 315 148zM740 1408q0 -63 -63 -63h-58q-63 0 -63 63t63 63h58q63 0 63 -63zM393 1408q0 -63 -63 -63h-57q-63 0 -63 63t63 63h57q63 0 63 -63z" />
    <glyph glyph-name="aring" unicode="&#xe5;" horiz-adv-x="987" 
d="M844 54q0 -62 -63 -62t-63 62v33l27 64l-22 10l-70 -113q-124 -56 -250 -56q-301 0 -301 314q0 179 141 272q119 78 299 78h176v149q0 80 -56 136.5t-136 56.5h-240q-54 0 -54 54t54 54h240q132 0 225 -93.5t93 -225.5v-733zM718 247v301h-176q-140 0 -227 -66t-87 -176
q0 -207 175 -207q234 0 315 148zM708 1509q0 -84 -59.5 -143.5t-143.5 -59.5t-143 59.5t-59 143.5t59 143t143 59t143.5 -59t59.5 -143zM618 1509q0 46 -33 79t-80 33t-79.5 -32.5t-32.5 -79.5t33 -80t79 -33q47 0 80 33t33 80z" />
    <glyph glyph-name="ae" unicode="&#xe6;" horiz-adv-x="1532" 
d="M1407 602q0 -25 -19 -44t-44 -19h-527v-205q0 -94 66 -160t160 -66h265q54 0 54 -54t-54 -54h-265q-100 0 -194 71q-36 27 -68 125h-54q-9 -29 -19 -53q-26 -56 -56 -78q-91 -65 -186 -65h-45q-143 0 -227 75q-92 81 -92 235q0 178 157 267q121 70 292 70h140v158
q0 80 -56 136.5t-136 56.5h-204q-54 0 -54 54t54 54h204q72 0 146 -45q57 -34 91 -139h45q12 30 24 55q30 58 59 78q88 60 179 60h12q146 0 249 -103t103 -249v-161zM1281 647v134q0 94 -66 160t-160 66h-12q-94 0 -160 -66t-66 -160v-134h464zM691 352v187h-140
q-136 0 -227 -60q-96 -64 -96 -169q0 -202 193 -202h45q92 0 158.5 74.5t66.5 169.5z" />
    <glyph glyph-name="ccedilla" unicode="&#xe7;" horiz-adv-x="814" 
d="M733 54q0 -54 -54 -54h-192q-146 0 -249 103t-103 249v402q0 146 103 249t249 103h192q54 0 54 -54t-54 -54h-192q-94 0 -160 -66t-66 -160v-438q0 -94 66 -160t160 -66h192q54 0 54 -54zM608 -84q0 -13 -9 -26l-162 -241q-14 -21 -36 -21q-47 0 -47 45q0 14 8 26
l162 241q14 21 37 21q47 0 47 -45z" />
    <glyph glyph-name="egrave" unicode="&#xe8;" horiz-adv-x="1002" 
d="M877 597q0 -25 -19 -44t-44 -19h-553v-200q0 -94 66 -160t160 -66h300q54 0 54 -54t-54 -54h-300q-146 0 -249 103t-103 249v411q0 146 103 249t249 103h39q146 0 248.5 -103t102.5 -249v-166zM751 642v139q0 94 -65.5 160t-159.5 66h-39q-94 0 -160 -66t-66 -160v-139
h490zM666 1372q0 -45 -46 -45q-15 0 -31 9l-294 163q-28 16 -28 45q0 57 54 57q15 0 28 -8l288 -175q29 -18 29 -46z" />
    <glyph glyph-name="eacute" unicode="&#xe9;" horiz-adv-x="1002" 
d="M877 597q0 -25 -19 -44t-44 -19h-553v-200q0 -94 66 -160t160 -66h300q54 0 54 -54t-54 -54h-300q-146 0 -249 103t-103 249v411q0 146 103 249t249 103h39q146 0 248.5 -103t102.5 -249v-166zM751 642v139q0 94 -65.5 160t-159.5 66h-39q-94 0 -160 -66t-66 -160v-139
h490zM728 1499l-294 -163q-23 -12 -43 -7q-44 12 -32 55q6 22 26 34l288 175q20 12 42 6q41 -11 41 -55q0 -30 -28 -45z" />
    <glyph glyph-name="ecircumflex" unicode="&#xea;" horiz-adv-x="1002" 
d="M798 1381q0 -45 -45 -45q-22 0 -41 18l-110 107l-84 117h-18l-85 -117l-110 -107q-19 -18 -40 -18q-45 0 -45 45q0 22 17 40l233 243q16 17 39 17t39 -17l233 -243q17 -18 17 -40zM877 597q0 -25 -19 -44t-44 -19h-553v-200q0 -94 66 -160t160 -66h300q54 0 54 -54
t-54 -54h-300q-146 0 -249 103t-103 249v411q0 146 103 249t249 103h39q146 0 248.5 -103t102.5 -249v-166zM751 642v139q0 94 -65.5 160t-159.5 66h-39q-94 0 -160 -66t-66 -160v-139h490z" />
    <glyph glyph-name="edieresis" unicode="&#xeb;" horiz-adv-x="1002" 
d="M877 597q0 -25 -19 -44t-44 -19h-553v-200q0 -94 66 -160t160 -66h300q54 0 54 -54t-54 -54h-300q-146 0 -249 103t-103 249v411q0 146 103 249t249 103h39q146 0 248.5 -103t102.5 -249v-166zM751 642v139q0 94 -65.5 160t-159.5 66h-39q-94 0 -160 -66t-66 -160v-139
h490zM759 1408q0 -63 -63 -63h-58q-63 0 -63 63t63 63h58q63 0 63 -63zM412 1408q0 -63 -63 -63h-57q-63 0 -63 63t63 63h57q63 0 63 -63z" />
    <glyph glyph-name="igrave" unicode="&#xec;" horiz-adv-x="450" 
d="M288 54q0 -62 -63 -62t-63 62v998q0 63 63 63t63 -63v-998zM287 1372q0 -45 -46 -45q-15 0 -31 9l-294 163q-28 16 -28 45q0 57 54 57q15 0 28 -8l288 -175q29 -18 29 -46z" />
    <glyph glyph-name="iacute" unicode="&#xed;" horiz-adv-x="452" 
d="M288 54q0 -62 -63 -62t-63 62v998q0 63 63 63t63 -63v-998zM489 1499l-294 -163q-23 -12 -43 -7q-44 12 -32 55q6 22 26 34l288 175q20 12 42 6q41 -11 41 -55q0 -30 -28 -45z" />
    <glyph glyph-name="icircumflex" unicode="&#xee;" horiz-adv-x="450" 
d="M515 1381q0 -45 -45 -45q-22 0 -41 18l-110 107l-84 117h-18l-85 -117l-110 -107q-19 -18 -40 -18q-45 0 -45 45q0 22 17 40l233 243q16 17 39 17t39 -17l233 -243q17 -18 17 -40zM288 54q0 -62 -63 -62t-63 62v998q0 63 63 63t63 -63v-998z" />
    <glyph glyph-name="idieresis" unicode="&#xef;" horiz-adv-x="508" 
d="M316 54q0 -62 -63 -62t-63 62v998q0 63 63 63t63 -63v-998zM474 1407q0 -70 -70 -70h-34q-70 0 -70 70t70 70h34q70 0 70 -70zM208 1407q0 -70 -70 -70h-34q-70 0 -70 70t70 70h34q70 0 70 -70z" />
    <glyph glyph-name="eth" unicode="&#xf0;" horiz-adv-x="1105" 
d="M997 1120h-120v-768q0 -146 -102.5 -249t-248.5 -103h-39q-146 0 -249 103t-103 249v182q0 146 103 249t249 103h264v234h-181q-54 0 -54 54t54 54h181v192q0 63 63 63t63 -63v-192h120q54 0 54 -54t-54 -54zM751 334v444h-264q-94 0 -160 -66t-66 -160v-218
q0 -94 66 -160t160 -66h39q94 0 159.5 66t65.5 160z" />
    <glyph glyph-name="ntilde" unicode="&#xf1;" horiz-adv-x="1048" 
d="M904 54q0 -62 -63 -62t-63 62v759q0 94 -60 146q-54 48 -137 48q-105 0 -190.5 -70.5t-102.5 -169.5v-713q0 -62 -63 -62t-63 62v995q0 66 63 66t63 -66v-49l-27 -103l36 -9q9 29 18 53q22 58 45 79q102 95 221 95q129 0 220 -79q103 -89 103 -241v-741zM827 1586
q0 -10 -4 -20l-34 -81q-49 -116 -146 -116q-61 0 -101 37q-19 17 -64 85q-33 49 -70 49q-41 0 -69 -67l-35 -85q-11 -27 -38 -27q-48 0 -48 45q0 8 5 20l36 83q52 121 149 121q61 0 101 -37q18 -17 64 -85q33 -49 70 -49t52 34l49 113q11 25 36 25q8 0 21 -6q26 -12 26 -39z
" />
    <glyph glyph-name="ograve" unicode="&#xf2;" horiz-adv-x="1012" 
d="M877 352q0 -146 -102.5 -249t-248.5 -103h-39q-146 0 -249 103t-103 249v411q0 146 103 249t249 103h39q146 0 248.5 -103t102.5 -249v-411zM751 334v447q0 94 -65.5 160t-159.5 66h-39q-94 0 -160 -66t-66 -160v-447q0 -94 66 -160t160 -66h39q94 0 159.5 66t65.5 160z
M666 1372q0 -45 -46 -45q-15 0 -31 9l-294 163q-28 16 -28 45q0 57 54 57q15 0 28 -8l288 -175q29 -18 29 -46z" />
    <glyph glyph-name="oacute" unicode="&#xf3;" horiz-adv-x="1012" 
d="M877 352q0 -146 -102.5 -249t-248.5 -103h-39q-146 0 -249 103t-103 249v411q0 146 103 249t249 103h39q146 0 248.5 -103t102.5 -249v-411zM751 334v447q0 94 -65.5 160t-159.5 66h-39q-94 0 -160 -66t-66 -160v-447q0 -94 66 -160t160 -66h39q94 0 159.5 66t65.5 160z
M728 1499l-294 -163q-23 -12 -43 -7q-44 12 -32 55q6 22 26 34l288 175q20 12 42 6q41 -11 41 -55q0 -30 -28 -45z" />
    <glyph glyph-name="ocircumflex" unicode="&#xf4;" horiz-adv-x="1012" 
d="M798 1381q0 -45 -45 -45q-22 0 -41 18l-110 107l-84 117h-18l-85 -117l-110 -107q-19 -18 -40 -18q-45 0 -45 45q0 22 17 40l233 243q16 17 39 17t39 -17l233 -243q17 -18 17 -40zM877 352q0 -146 -102.5 -249t-248.5 -103h-39q-146 0 -249 103t-103 249v411
q0 146 103 249t249 103h39q146 0 248.5 -103t102.5 -249v-411zM751 334v447q0 94 -65.5 160t-159.5 66h-39q-94 0 -160 -66t-66 -160v-447q0 -94 66 -160t160 -66h39q94 0 159.5 66t65.5 160z" />
    <glyph glyph-name="otilde" unicode="&#xf5;" horiz-adv-x="1012" 
d="M877 352q0 -146 -102.5 -249t-248.5 -103h-39q-146 0 -249 103t-103 249v411q0 146 103 249t249 103h39q146 0 248.5 -103t102.5 -249v-411zM751 334v447q0 94 -65.5 160t-159.5 66h-39q-94 0 -160 -66t-66 -160v-447q0 -94 66 -160t160 -66h39q94 0 159.5 66t65.5 160z
M811 1586q0 -10 -4 -20l-34 -81q-49 -116 -146 -116q-61 0 -101 37q-19 17 -64 85q-33 49 -70 49q-41 0 -69 -67l-35 -85q-11 -27 -38 -27q-48 0 -48 45q0 8 5 20l36 83q52 121 149 121q61 0 101 -37q18 -17 64 -85q33 -49 70 -49t52 34l49 113q11 25 36 25q8 0 21 -6
q26 -12 26 -39z" />
    <glyph glyph-name="odieresis" unicode="&#xf6;" horiz-adv-x="1012" 
d="M774 1408q0 -63 -63 -63h-58q-63 0 -63 63t63 63h58q63 0 63 -63zM427 1408q0 -63 -63 -63h-57q-63 0 -63 63t63 63h57q63 0 63 -63zM877 352q0 -146 -102.5 -249t-248.5 -103h-39q-146 0 -249 103t-103 249v411q0 146 103 249t249 103h39q146 0 248.5 -103t102.5 -249
v-411zM751 334v447q0 94 -65.5 160t-159.5 66h-39q-94 0 -160 -66t-66 -160v-447q0 -94 66 -160t160 -66h39q94 0 159.5 66t65.5 160z" />
    <glyph glyph-name="divide" unicode="&#xf7;" horiz-adv-x="1102" 
d="M645 963q0 -44 -28.5 -69.5t-65.5 -25.5t-66 25.5t-29 69.5v58q0 44 30 70q27 24 65 24q37 0 65.5 -25t28.5 -69v-58zM1003 551q0 -54 -54 -54h-796q-54 0 -54 54t54 54h796q54 0 54 -54zM645 85q0 -44 -28.5 -68.5t-65.5 -24.5q-38 0 -65 23q-30 26 -30 70v58
q0 44 30 71q28 24 65 24t64 -24q30 -27 30 -71v-58z" />
    <glyph glyph-name="oslash" unicode="&#xf8;" horiz-adv-x="1012" 
d="M877 352q0 -146 -103 -249t-249 -103h-38q-146 0 -249 103t-103 249v411q0 146 103 249t249 103h38q146 0 249 -103t103 -249v-411zM728 882q-63 125 -203 125h-38q-94 0 -160 -66t-66 -160v-238l-27 -204l27 -9l102 158zM778 779l-27 9l-100 -155l-368 -397
q62 -128 204 -128h38q94 0 160 66t66 160v265z" />
    <glyph glyph-name="ugrave" unicode="&#xf9;" 
d="M904 57q0 -65 -63 -65t-63 65v49l27 103l-36 9q-9 -29 -18 -53q-22 -58 -45 -79q-102 -94 -221 -94q-129 0 -220 78q-103 89 -103 241v741q0 63 63 63t63 -63v-759q0 -94 60 -146q54 -48 137 -48q105 0 190.5 70.5t102.5 169.5v713q0 63 63 63t63 -63v-995zM656 1372
q0 -45 -46 -45q-15 0 -31 9l-294 163q-28 16 -28 45q0 57 54 57q15 0 28 -8l288 -175q29 -18 29 -46z" />
    <glyph glyph-name="uacute" unicode="&#xfa;" 
d="M904 57q0 -65 -63 -65t-63 65v49l27 103l-36 9q-9 -29 -18 -53q-22 -58 -45 -79q-102 -94 -221 -94q-129 0 -220 78q-103 89 -103 241v741q0 63 63 63t63 -63v-759q0 -94 60 -146q54 -48 137 -48q105 0 190.5 70.5t102.5 169.5v713q0 63 63 63t63 -63v-995zM808 1499
l-294 -163q-23 -12 -43 -7q-44 12 -32 55q6 22 26 34l288 175q20 12 42 6q41 -11 41 -55q0 -30 -28 -45z" />
    <glyph glyph-name="ucircumflex" unicode="&#xfb;" 
d="M828 1381q0 -45 -45 -45q-22 0 -41 18l-110 107l-84 117h-18l-85 -117l-110 -107q-19 -18 -40 -18q-45 0 -45 45q0 22 17 40l233 243q16 17 39 17t39 -17l233 -243q17 -18 17 -40zM904 57q0 -65 -63 -65t-63 65v49l27 103l-36 9q-9 -29 -18 -53q-22 -58 -45 -79
q-102 -94 -221 -94q-129 0 -220 78q-103 89 -103 241v741q0 63 63 63t63 -63v-759q0 -94 60 -146q54 -48 137 -48q105 0 190.5 70.5t102.5 169.5v713q0 63 63 63t63 -63v-995z" />
    <glyph glyph-name="udieresis" unicode="&#xfc;" 
d="M804 1408q0 -63 -63 -63h-58q-63 0 -63 63t63 63h58q63 0 63 -63zM457 1408q0 -63 -63 -63h-57q-63 0 -63 63t63 63h57q63 0 63 -63zM904 57q0 -65 -63 -65t-63 65v49l27 103l-36 9q-9 -29 -18 -53q-22 -58 -45 -79q-102 -94 -221 -94q-129 0 -220 78q-103 89 -103 241
v741q0 63 63 63t63 -63v-759q0 -94 60 -146q54 -48 137 -48q105 0 190.5 70.5t102.5 169.5v713q0 63 63 63t63 -63v-995z" />
    <glyph glyph-name="yacute" unicode="&#xfd;" horiz-adv-x="949" 
d="M886 1055q0 -10 -5 -24l-480 -1357q-15 -42 -57 -42q-66 0 -66 60q0 11 5 24l177 459h-16q-14 0 -34 13.5t-25 26.5l-317 814q-5 13 -5 26q0 61 66 61q41 0 56 -41l206 -552l63 -267h61l63 267l184 550q14 42 58 42q66 0 66 -60zM748 1599l-294 -163q-23 -12 -43 -7
q-44 12 -32 55q6 22 26 34l288 175q20 12 42 6q41 -11 41 -55q0 -30 -28 -45z" />
    <glyph glyph-name="thorn" unicode="&#xfe;" horiz-adv-x="1039" 
d="M904 311q0 -152 -103 -241q-91 -78 -220 -78t-231 101q-25 25 -53 116l-36 -18l27 -94v-410q0 -66 -63 -66t-63 66v1733q0 63 63 63t63 -63v-426l-27 -97l36 -9q11 45 55 121q109 106 229 106q129 0 220 -79q103 -89 103 -241v-484zM778 293v520q0 94 -60 146
q-54 48 -137 48q-104 0 -190 -74.5t-103 -174.5v-419q17 -99 102.5 -169.5t190.5 -70.5q83 0 137 48q60 52 60 146z" />
    <glyph glyph-name="ydieresis" unicode="&#xff;" horiz-adv-x="949" 
d="M739 1408q0 -63 -63 -63h-58q-63 0 -63 63t63 63h58q63 0 63 -63zM392 1408q0 -63 -63 -63h-57q-63 0 -63 63t63 63h57q63 0 63 -63zM886 1055q0 -10 -5 -24l-480 -1357q-15 -42 -57 -42q-66 0 -66 60q0 11 5 24l177 459h-16q-14 0 -34 13.5t-25 26.5l-317 814
q-5 13 -5 26q0 61 66 61q41 0 56 -41l206 -552l63 -267h61l63 267l184 550q14 42 58 42q66 0 66 -60z" />
    <glyph glyph-name="Amacron" unicode="&#x100;" horiz-adv-x="1219" 
d="M1147 51q0 -59 -66 -59q-46 0 -59 43l-139 466h-547l-140 -466q-13 -43 -58 -43q-66 0 -66 59q0 9 4 22l419 1357q5 15 24.5 29.5t35.5 14.5h108q16 0 36 -14.5t25 -29.5l419 -1357q4 -13 4 -22zM859 627l-51 124l-84 282l-81 360h-68l-80 -360l-85 -282l-51 -124l14 -36
l162 18h149l161 -18zM908 1797q0 -54 -54 -54h-490q-54 0 -54 54t54 54h490q54 0 54 -54v0z" />
    <glyph glyph-name="amacron" unicode="&#x101;" horiz-adv-x="987" 
d="M844 54q0 -62 -63 -62t-63 62v33l27 64l-22 10l-70 -113q-124 -56 -250 -56q-301 0 -301 314q0 179 141 272q119 78 299 78h176v149q0 80 -56 136.5t-136 56.5h-240q-54 0 -54 54t54 54h240q132 0 225 -93.5t93 -225.5v-733zM718 247v301h-176q-140 0 -227 -66t-87 -176
q0 -207 175 -207q234 0 315 148zM790 1408q0 -54 -54 -54h-490q-54 0 -54 54t54 54h490q54 0 54 -54v0z" />
    <glyph glyph-name="Aogonek" unicode="&#x104;" horiz-adv-x="1219" 
d="M1147 51q0 -59 -66 -59q-46 0 -59 43l-139 466h-547l-140 -466q-13 -43 -58 -43q-66 0 -66 59q0 9 4 22l419 1357q5 15 24.5 29.5t35.5 14.5h108q16 0 36 -14.5t25 -29.5l419 -1357q4 -13 4 -22zM859 627l-51 124l-84 282l-81 360h-68l-80 -360l-85 -282l-51 -124l14 -36
l162 18h149l161 -18zM810 -87q0 23 13 36t30 13q13 0 26 -9.5t19 -29.5q21 -75 72.5 -122t126.5 -64q20 -6 29.5 -19t9.5 -27q0 -17 -12.5 -30t-36.5 -13q1 0 -14.5 2t-40.5 10.5t-56.5 25t-62.5 46t-58.5 74t-44.5 107.5z" />
    <glyph glyph-name="aogonek" unicode="&#x105;" horiz-adv-x="987" 
d="M844 54q0 -62 -63 -62t-63 62v33l27 64l-22 10l-70 -113q-124 -56 -250 -56q-301 0 -301 314q0 179 141 272q119 78 299 78h176v149q0 80 -56 136.5t-136 56.5h-240q-54 0 -54 54t54 54h240q132 0 225 -93.5t93 -225.5v-733zM718 247v301h-176q-140 0 -227 -66t-87 -176
q0 -207 175 -207q234 0 315 148zM600 -87q0 23 13 36t30 13q13 0 26 -9.5t19 -29.5q21 -75 72.5 -122t126.5 -64q20 -6 29.5 -19t9.5 -27q0 -17 -12.5 -30t-36.5 -13q1 0 -14.5 2t-40.5 10.5t-56.5 25t-62.5 46t-58.5 74t-44.5 107.5z" />
    <glyph glyph-name="Cacute" unicode="&#x106;" horiz-adv-x="995" 
d="M923 54q0 -54 -54 -54h-236q-202 0 -345.5 143.5t-143.5 345.5v496q0 202 143.5 345.5t345.5 143.5h218q54 0 54 -54t-54 -54h-218q-150 0 -256.5 -106.5t-106.5 -256.5v-532q0 -150 106.5 -256.5t256.5 -106.5h236q54 0 54 -54zM845 1874l-294 -163q-23 -12 -43 -7
q-44 12 -32 55q6 22 26 34l288 175q20 12 42 6q41 -11 41 -55q0 -30 -28 -45z" />
    <glyph glyph-name="cacute" unicode="&#x107;" horiz-adv-x="814" 
d="M733 54q0 -54 -54 -54h-192q-146 0 -249 103t-103 249v402q0 146 103 249t249 103h192q54 0 54 -54t-54 -54h-192q-94 0 -160 -66t-66 -160v-438q0 -94 66 -160t160 -66h192q54 0 54 -54zM698 1499l-294 -163q-23 -12 -43 -7q-44 12 -32 55q6 22 26 34l288 175
q20 12 42 6q41 -11 41 -55q0 -30 -28 -45z" />
    <glyph glyph-name="Ccaron" unicode="&#x10c;" horiz-adv-x="995" 
d="M923 54q0 -54 -54 -54h-236q-202 0 -345.5 143.5t-143.5 345.5v496q0 202 143.5 345.5t345.5 143.5h218q54 0 54 -54t-54 -54h-218q-150 0 -256.5 -106.5t-106.5 -256.5v-532q0 -150 106.5 -256.5t256.5 -106.5h236q54 0 54 -54zM887 2007q0 -22 -17 -40l-233 -243
q-16 -17 -39 -17t-39 17l-233 243q-17 18 -17 40q0 45 45 45q21 0 40 -18l110 -106l85 -117h18l84 117l110 106q19 18 41 18q45 0 45 -45z" />
    <glyph glyph-name="ccaron" unicode="&#x10d;" horiz-adv-x="814" 
d="M733 54q0 -54 -54 -54h-192q-146 0 -249 103t-103 249v402q0 146 103 249t249 103h192q54 0 54 -54t-54 -54h-192q-94 0 -160 -66t-66 -160v-438q0 -94 66 -160t160 -66h192q54 0 54 -54zM748 1626q0 -22 -17 -40l-233 -243q-16 -17 -39 -17t-39 17l-233 243
q-17 18 -17 40q0 45 45 45q21 0 40 -18l110 -106l85 -117h18l84 117l110 106q19 18 41 18q45 0 45 -45z" />
    <glyph glyph-name="Dcaron" unicode="&#x10e;" horiz-adv-x="1202" 
d="M1067 577q0 -239 -169 -408t-408 -169h-238q-25 0 -44 19t-19 44v1348q0 25 19 44t44 19h238q239 0 408 -169t169 -408v-320zM941 559v356q0 187 -132 319t-319 132h-175v-1258h175q187 0 319 132t132 319zM851 2006q0 -22 -17 -40l-233 -243q-16 -17 -39 -17t-39 17
l-233 243q-17 18 -17 40q0 45 45 45q21 0 40 -18l110 -106l85 -117h18l84 117l110 106q19 18 41 18q45 0 45 -45z" />
    <glyph glyph-name="dcaron" unicode="&#x10f;" horiz-adv-x="1170" 
d="M877 54q0 -62 -63 -62t-63 62v58l27 97l-36 9q-11 -45 -54 -121q-109 -105 -230 -105q-129 0 -220 78q-103 89 -103 241v484q0 152 103 241q91 79 220 79t231 -102q25 -25 53 -116l36 18l-27 94v402q0 66 63 66t63 -66v-1357zM751 348v419q-17 99 -102.5 169.5
t-190.5 70.5q-83 0 -137 -48q-60 -52 -60 -146v-520q0 -94 60 -146q54 -48 137 -48q104 0 190 74.5t103 174.5zM1132 1463q21 -48 29.5 -88.5t8.5 -76.5q0 -52 -13 -92.5t-29 -68.5t-29 -42t-12 -13q-16 -13 -33 -13t-30 12.5t-13 30.5q0 7 2.5 15.5t8.5 16.5q29 39 44 78.5
t15 84.5q0 53 -23 107q-5 17 -5 25q0 20 12.5 32t28.5 12q29 0 38 -20v0z" />
    <glyph glyph-name="Emacron" unicode="&#x112;" horiz-adv-x="1035" 
d="M935 54q0 -54 -54 -54h-629q-25 0 -44 19t-19 44v1348q0 25 19 44t44 19h629q54 0 54 -54t-54 -54h-566v-480h521q54 0 54 -54t-54 -54h-521v-670h566q54 0 54 -54zM853 1797q0 -54 -54 -54h-490q-54 0 -54 54t54 54h490q54 0 54 -54v0z" />
    <glyph glyph-name="emacron" unicode="&#x113;" horiz-adv-x="1002" 
d="M877 597q0 -25 -19 -44t-44 -19h-553v-200q0 -94 66 -160t160 -66h300q54 0 54 -54t-54 -54h-300q-146 0 -249 103t-103 249v411q0 146 103 249t249 103h39q146 0 248.5 -103t102.5 -249v-166zM751 642v139q0 94 -65.5 160t-159.5 66h-39q-94 0 -160 -66t-66 -160v-139
h490zM804 1408q0 -54 -54 -54h-490q-54 0 -54 54t54 54h490q54 0 54 -54v0z" />
    <glyph glyph-name="Edotaccent" unicode="&#x116;" horiz-adv-x="1035" 
d="M935 54q0 -54 -54 -54h-629q-25 0 -44 19t-19 44v1348q0 25 19 44t44 19h629q54 0 54 -54t-54 -54h-566v-480h521q54 0 54 -54t-54 -54h-521v-670h566q54 0 54 -54zM639 1800q0 -44 -28.5 -69t-66.5 -25q-37 0 -64 24q-30 26 -30 70v58q0 44 30 70q27 24 64 24
q38 0 66.5 -25t28.5 -69v-58z" />
    <glyph glyph-name="edotaccent" unicode="&#x117;" horiz-adv-x="1002" 
d="M877 597q0 -25 -19 -44t-44 -19h-553v-200q0 -94 66 -160t160 -66h300q54 0 54 -54t-54 -54h-300q-146 0 -249 103t-103 249v411q0 146 103 249t249 103h39q146 0 248.5 -103t102.5 -249v-166zM751 642v139q0 94 -65.5 160t-159.5 66h-39q-94 0 -160 -66t-66 -160v-139
h490zM599 1411q0 -44 -28.5 -69t-66.5 -25q-37 0 -64 24q-30 26 -30 70v58q0 44 30 70q27 24 64 24q38 0 66.5 -25t28.5 -69v-58z" />
    <glyph glyph-name="Eogonek" unicode="&#x118;" horiz-adv-x="1035" 
d="M935 54q0 -54 -54 -54h-629q-25 0 -44 19t-19 44v1348q0 25 19 44t44 19h629q54 0 54 -54t-54 -54h-566v-480h521q54 0 54 -54t-54 -54h-521v-670h566q54 0 54 -54zM497 -87q0 23 13 36t30 13q13 0 26 -9.5t19 -29.5q21 -75 72.5 -122t126.5 -64q20 -6 29.5 -19t9.5 -27
q0 -17 -12.5 -30t-36.5 -13q1 0 -14.5 2t-40.5 10.5t-56.5 25t-62.5 46t-58.5 74t-44.5 107.5z" />
    <glyph glyph-name="eogonek" unicode="&#x119;" horiz-adv-x="1002" 
d="M877 597q0 -25 -19 -44t-44 -19h-553v-200q0 -94 66 -160t160 -66h300q54 0 54 -54t-54 -54h-300q-146 0 -249 103t-103 249v411q0 146 103 249t249 103h39q146 0 248.5 -103t102.5 -249v-166zM751 642v139q0 94 -65.5 160t-159.5 66h-39q-94 0 -160 -66t-66 -160v-139
h490zM467 -87q0 23 13 36t30 13q13 0 26 -9.5t19 -29.5q21 -75 72.5 -122t126.5 -64q20 -6 29.5 -19t9.5 -27q0 -17 -12.5 -30t-36.5 -13q1 0 -14.5 2t-40.5 10.5t-56.5 25t-62.5 46t-58.5 74t-44.5 107.5z" />
    <glyph glyph-name="Ecaron" unicode="&#x11a;" horiz-adv-x="1035" 
d="M935 54q0 -54 -54 -54h-629q-25 0 -44 19t-19 44v1348q0 25 19 44t44 19h629q54 0 54 -54t-54 -54h-566v-480h521q54 0 54 -54t-54 -54h-521v-670h566q54 0 54 -54zM847 2006q0 -22 -17 -40l-233 -243q-16 -17 -39 -17t-39 17l-233 243q-17 18 -17 40q0 45 45 45
q21 0 40 -18l110 -106l85 -117h18l84 117l110 106q19 18 41 18q45 0 45 -45z" />
    <glyph glyph-name="ecaron" unicode="&#x11b;" horiz-adv-x="1002" 
d="M877 597q0 -25 -19 -44t-44 -19h-553v-200q0 -94 66 -160t160 -66h300q54 0 54 -54t-54 -54h-300q-146 0 -249 103t-103 249v411q0 146 103 249t249 103h39q146 0 248.5 -103t102.5 -249v-166zM751 642v139q0 94 -65.5 160t-159.5 66h-39q-94 0 -160 -66t-66 -160v-139
h490zM797 1626q0 -22 -17 -40l-233 -243q-16 -17 -39 -17t-39 17l-233 243q-17 18 -17 40q0 45 45 45q21 0 40 -18l110 -106l85 -117h18l84 117l110 106q19 18 41 18q45 0 45 -45z" />
    <glyph glyph-name="Gcommaaccent" unicode="&#x122;" horiz-adv-x="1255" 
d="M1066 63q0 -25 -19 -44t-44 -19h-424q-173 0 -295 122t-122 295v568q0 202 143.5 345.5t345.5 143.5h361q54 0 54 -54t-54 -54h-361q-150 0 -256.5 -106.5t-106.5 -256.5v-604q0 -120 85.5 -205.5t205.5 -85.5h361v594h-246q-54 0 -54 54t54 54h309q25 0 44 -19t19 -44
v-684zM763 -87q-17 -63 -44.5 -107.5t-58.5 -74t-62.5 -46t-56.5 -25t-40.5 -10.5t-14.5 -2q-24 0 -36.5 13t-12.5 30q0 14 9.5 27t29.5 19q75 17 126.5 64t72.5 122q6 20 19 29.5t26 9.5q17 0 30 -13t13 -36z" />
    <glyph glyph-name="Imacron" unicode="&#x12a;" horiz-adv-x="504" 
d="M491 1787q0 -54 -54 -54h-370q-54 0 -54 54t54 54h370q54 0 54 -54v0zM315 54q0 -62 -63 -62t-63 62v1366q0 63 63 63t63 -63v-1366z" />
    <glyph glyph-name="imacron" unicode="&#x12b;" horiz-adv-x="450" 
d="M437 1407q0 -54 -54 -54h-316q-54 0 -54 54t54 54h316q54 0 54 -54v0zM288 54q0 -62 -63 -62t-63 62v998q0 63 63 63t63 -63v-998z" />
    <glyph glyph-name="Iogonek" unicode="&#x12e;" horiz-adv-x="504" 
d="M315 54q0 -62 -63 -62t-63 62v1366q0 63 63 63t63 -63v-1366zM227 -87q0 23 13 36t30 13q13 0 26 -9.5t19 -29.5q21 -75 72.5 -122t126.5 -64q20 -6 29.5 -19t9.5 -27q0 -17 -12.5 -30t-36.5 -13q1 0 -14.5 2t-40.5 10.5t-56.5 25t-62.5 46t-58.5 74t-44.5 107.5z" />
    <glyph glyph-name="iogonek" unicode="&#x12f;" horiz-adv-x="457" 
d="M295 1354q0 -63 -63 -63t-63 63v57q0 63 63 63t63 -63v-57zM288 54q0 -62 -63 -62t-63 62v998q0 63 63 63t63 -63v-998zM208 -87q0 23 13 36t30 13q13 0 26 -9.5t19 -29.5q21 -75 72.5 -122t126.5 -64q20 -6 29.5 -19t9.5 -27q0 -17 -12.5 -30t-36.5 -13q1 0 -14.5 2
t-40.5 10.5t-56.5 25t-62.5 46t-58.5 74t-44.5 107.5z" />
    <glyph glyph-name="dotlessi" unicode="&#x131;" horiz-adv-x="450" 
d="M288 54q0 -62 -63 -62t-63 62v998q0 63 63 63t63 -63v-998z" />
    <glyph glyph-name="Kcommaaccent" unicode="&#x136;" horiz-adv-x="1122" 
d="M1023 57q0 -26 -19.5 -45.5t-44.5 -19.5q-26 0 -45 21l-590 692h-9v-651q0 -62 -63 -62t-63 62v1376q0 63 63 63t63 -63v-647h9l108 127l483 563q19 22 45 22q25 0 44 -19.5t19 -45.5q0 -24 -17 -43l-439 -503l-149 -122v-38l137 -106l451 -518q17 -20 17 -43zM613 -87
q-17 -63 -44.5 -107.5t-58.5 -74t-62.5 -46t-56.5 -25t-40.5 -10.5t-14.5 -2q-24 0 -36.5 13t-12.5 30q0 14 9.5 27t29.5 19q75 17 126.5 64t72.5 122q6 20 19 29.5t26 9.5q17 0 30 -13t13 -36z" />
    <glyph glyph-name="Lacute" unicode="&#x139;" horiz-adv-x="881" 
d="M837 54q0 -54 -54 -54h-531q-25 0 -44 19t-19 44v1367q0 63 63 63t63 -63v-1322h468q54 0 54 -54zM588 1879l-294 -163q-23 -12 -43 -7q-44 12 -32 55q6 22 26 34l288 175q20 12 42 6q41 -11 41 -55q0 -30 -28 -45z" />
    <glyph glyph-name="lacute" unicode="&#x13a;" horiz-adv-x="494" 
d="M378 36q0 -53 -54 -53q-73 0 -119 52q-43 50 -43 119v1266q0 63 63 63t63 -63v-1284q0 -46 36 -46q54 0 54 -54zM568 1879l-294 -163q-23 -12 -43 -7q-44 12 -32 55q6 22 26 34l288 175q20 12 42 6q41 -11 41 -55q0 -30 -28 -45z" />
    <glyph glyph-name="Lcommaaccent" unicode="&#x13b;" horiz-adv-x="881" 
d="M837 54q0 -54 -54 -54h-531q-25 0 -44 19t-19 44v1367q0 63 63 63t63 -63v-1322h468q54 0 54 -54zM553 -87q-17 -63 -44.5 -107.5t-58.5 -74t-62.5 -46t-56.5 -25t-40.5 -10.5t-14.5 -2q-24 0 -36.5 13t-12.5 30q0 14 9.5 27t29.5 19q75 17 126.5 64t72.5 122
q6 20 19 29.5t26 9.5q17 0 30 -13t13 -36z" />
    <glyph glyph-name="lcommaaccent" unicode="&#x13c;" horiz-adv-x="494" 
d="M378 36q0 -53 -54 -53q-73 0 -119 52q-43 50 -43 119v1266q0 63 63 63t63 -63v-1284q0 -46 36 -46q54 0 54 -54zM264 -87q-17 -63 -44.5 -107.5t-58.5 -74t-62.5 -46t-56.5 -25t-40.5 -10.5t-14.5 -2q-24 0 -36.5 13t-12.5 30q0 14 9.5 27t29.5 19q75 17 126.5 64
t72.5 122q6 20 19 29.5t26 9.5q17 0 30 -13t13 -36z" />
    <glyph glyph-name="Lcaron" unicode="&#x13d;" horiz-adv-x="881" 
d="M837 54q0 -54 -54 -54h-531q-25 0 -44 19t-19 44v1367q0 63 63 63t63 -63v-1322h468q54 0 54 -54zM645 1463q21 -48 29.5 -88.5t8.5 -76.5q0 -52 -13 -92.5t-29 -68.5t-29 -42t-12 -13q-16 -13 -33 -13t-30 12.5t-13 30.5q0 7 2.5 15.5t8.5 16.5q29 39 44 78.5t15 84.5
q0 53 -23 107q-5 17 -5 25q0 20 12.5 32t28.5 12q29 0 38 -20v0z" />
    <glyph glyph-name="lcaron" unicode="&#x13e;" horiz-adv-x="587" 
d="M378 36q0 -53 -54 -53q-73 0 -119 52q-43 50 -43 119v1266q0 63 63 63t63 -63v-1284q0 -46 36 -46q54 0 54 -54zM549 1463q21 -48 29.5 -88.5t8.5 -76.5q0 -52 -13 -92.5t-29 -68.5t-29 -42t-12 -13q-16 -13 -33 -13t-30 12.5t-13 30.5q0 7 2.5 15.5t8.5 16.5
q29 39 44 78.5t15 84.5q0 53 -23 107q-5 17 -5 25q0 20 12.5 32t28.5 12q29 0 38 -20v0z" />
    <glyph glyph-name="Lslash" unicode="&#x141;" horiz-adv-x="1063" 
d="M973 54q0 -54 -54 -54h-531q-25 0 -44 19t-19 44v373l18 158l-36 18l-95 -130l-54 -45q-18 -15 -40 -15q-26 0 -45 20t-19 45q0 28 24 48l247 205v689q0 63 63 63t63 -63v-382l-18 -221l36 -18l121 151l225 187q18 15 40 15q26 0 45 -20t19 -45q0 -28 -24 -48l-444 -368
v-572h468q54 0 54 -54z" />
    <glyph glyph-name="lslash" unicode="&#x142;" horiz-adv-x="791" 
d="M711 1009l-256 -198v-675q0 -46 36 -46q54 0 54 -54q0 -53 -54 -53q-73 0 -119 52q-43 50 -43 119v417l27 152l-36 18l-105 -116l-58 -45q-19 -14 -39 -14q-26 0 -45 20t-19 45q0 28 25 48l250 194v547q0 63 63 63t63 -63v-302l-27 -166l36 -18l104 123l66 52
q18 14 39 14q25 0 44 -20t19 -45q0 -29 -25 -49z" />
    <glyph glyph-name="ncaron" unicode="&#x148;" horiz-adv-x="1048" 
d="M904 54q0 -62 -63 -62t-63 62v759q0 94 -60 146q-54 48 -137 48q-105 0 -190.5 -70.5t-102.5 -169.5v-713q0 -62 -63 -62t-63 62v995q0 66 63 66t63 -66v-49l-27 -103l36 -9q9 29 18 53q22 58 45 79q102 95 221 95q129 0 220 -79q103 -89 103 -241v-741zM837 1626
q0 -22 -17 -40l-233 -243q-16 -17 -39 -17t-39 17l-233 243q-17 18 -17 40q0 45 45 45q21 0 40 -18l110 -106l85 -117h18l84 117l110 106q19 18 41 18q45 0 45 -45z" />
    <glyph glyph-name="Omacron" unicode="&#x14c;" horiz-adv-x="1163" 
d="M881 1797q0 -54 -54 -54h-490q-54 0 -54 54t54 54h490q54 0 54 -54v0zM1019 370q0 -153 -108.5 -261.5t-261.5 -108.5h-135q-153 0 -261.5 108.5t-108.5 261.5v734q0 153 108.5 261.5t261.5 108.5h135q153 0 261.5 -108.5t108.5 -261.5v-734zM893 352v770
q0 101 -71.5 172.5t-172.5 71.5h-135q-101 0 -172.5 -71.5t-71.5 -172.5v-770q0 -101 71.5 -172.5t172.5 -71.5h135q101 0 172.5 71.5t71.5 172.5z" />
    <glyph glyph-name="omacron" unicode="&#x14d;" horiz-adv-x="1012" 
d="M805 1408q0 -54 -54 -54h-490q-54 0 -54 54t54 54h490q54 0 54 -54v0zM877 352q0 -146 -102.5 -249t-248.5 -103h-39q-146 0 -249 103t-103 249v411q0 146 103 249t249 103h39q146 0 248.5 -103t102.5 -249v-411zM751 334v447q0 94 -65.5 160t-159.5 66h-39
q-94 0 -160 -66t-66 -160v-447q0 -94 66 -160t160 -66h39q94 0 159.5 66t65.5 160z" />
    <glyph glyph-name="Ohungarumlaut" unicode="&#x150;" horiz-adv-x="1163" 
d="M1019 370q0 -153 -108.5 -261.5t-261.5 -108.5h-135q-153 0 -261.5 108.5t-108.5 261.5v734q0 153 108.5 261.5t261.5 108.5h135q153 0 261.5 -108.5t108.5 -261.5v-734zM893 352v770q0 101 -71.5 172.5t-172.5 71.5h-135q-101 0 -172.5 -71.5t-71.5 -172.5v-770
q0 -101 71.5 -172.5t172.5 -71.5h135q101 0 172.5 71.5t71.5 172.5zM1129 2004q0 -20 -17 -37l-260 -260q-17 -17 -38 -17q-55 0 -55 55q0 21 16 37l260 260q18 18 38 18q22 0 39 -17t17 -39zM750 2004q0 -21 -16 -37l-260 -260q-17 -17 -38 -17q-22 0 -39 16.5t-17 38.5
q0 20 17 37l260 260q18 18 38 18q22 0 38.5 -17t16.5 -39z" />
    <glyph glyph-name="ohungarumlaut" unicode="&#x151;" horiz-adv-x="1012" 
d="M877 352q0 -146 -102.5 -249t-248.5 -103h-39q-146 0 -249 103t-103 249v411q0 146 103 249t249 103h39q146 0 248.5 -103t102.5 -249v-411zM751 334v447q0 94 -65.5 160t-159.5 66h-39q-94 0 -160 -66t-66 -160v-447q0 -94 66 -160t160 -66h39q94 0 159.5 66t65.5 160z
M1029 1654q0 -20 -17 -37l-260 -260q-17 -17 -38 -17q-55 0 -55 55q0 21 16 37l260 260q18 18 38 18q22 0 39 -17t17 -39zM650 1654q0 -21 -16 -37l-260 -260q-17 -17 -38 -17q-22 0 -39 16.5t-17 38.5q0 20 17 37l260 260q18 18 38 18q22 0 38.5 -17t16.5 -39z" />
    <glyph glyph-name="OE" unicode="&#x152;" horiz-adv-x="1627" 
d="M1527 54q0 -54 -54 -54h-959q-153 0 -261.5 108.5t-108.5 261.5v734q0 153 108.5 261.5t261.5 108.5h959q54 0 54 -54t-54 -54h-548v-480h503q54 0 54 -54t-54 -54h-503v-670h548q54 0 54 -54zM799 108v1258h-285q-101 0 -172.5 -71.5t-71.5 -172.5v-770
q0 -101 71.5 -172.5t172.5 -71.5h285z" />
    <glyph glyph-name="oe" unicode="&#x153;" horiz-adv-x="1565" 
d="M1440 588q0 -25 -19 -44t-44 -19h-527v-191q0 -94 66 -160t160 -66h274q54 0 54 -54t-54 -54h-274q-98 0 -190 68q-50 37 -81 146h-36q-7 -31 -18 -57q-25 -62 -62 -89q-92 -68 -190 -68h-12q-146 0 -249 103t-103 249v411q0 146 103 249t249 103h12q93 0 183 -63
q51 -35 87 -151h36q10 33 22 59q28 64 59 87q92 68 190 68h12q146 0 249 -103t103 -249v-175zM1314 633v148q0 94 -66 160t-160 66h-12q-94 0 -160 -66t-66 -160v-148h464zM724 334v447q0 94 -65.5 160t-159.5 66h-12q-94 0 -160 -66t-66 -160v-447q0 -94 66 -160t160 -66
h12q94 0 159.5 66t65.5 160z" />
    <glyph glyph-name="Scaron" unicode="&#x160;" horiz-adv-x="1010" 
d="M797 2006q0 -22 -17 -40l-233 -243q-16 -17 -39 -17t-39 17l-233 243q-17 18 -17 40q0 45 45 45q21 0 40 -18l110 -106l85 -117h18l84 117l110 106q19 18 41 18q45 0 45 -45zM930 336q0 -139 -99 -237.5t-238 -98.5h-431q-54 0 -54 54t54 54h431q91 0 149 59
q62 63 62 169q0 91 -68 154l-514 475q-89 82 -89 211q0 124 87.5 211t211.5 87h362q54 0 54 -54t-54 -54h-362q-73 0 -122 -51q-51 -54 -51 -139q0 -73 51 -120l512 -474q108 -100 108 -246z" />
    <glyph glyph-name="scaron" unicode="&#x161;" horiz-adv-x="785" 
d="M703 1626q0 -22 -17 -40l-233 -243q-16 -17 -39 -17t-39 17l-233 243q-17 18 -17 40q0 45 45 45q21 0 40 -18l110 -106l85 -117h18l84 117l110 106q19 18 41 18q45 0 45 -45zM696 260q0 -108 -76 -184t-184 -76h-301q-54 0 -54 54t54 54h301q59 0 97 38q42 42 42 114
q0 57 -40 95l-362 343q-70 66 -70 170q0 99 70 168.5t169 69.5h265q54 0 54 -54t-54 -54h-265q-49 0 -83.5 -35.5t-34.5 -94.5q0 -50 33 -81l362 -342q77 -73 77 -185z" />
    <glyph glyph-name="tcaron" unicode="&#x165;" horiz-adv-x="643" 
d="M589 1052q0 -54 -54 -54h-151v-944q0 -62 -63 -62t-63 62v944h-150q-54 0 -54 54t54 54h150v305q0 63 63 63t63 -63v-305h151q54 0 54 -54zM631 1846q21 -48 29.5 -88.5t8.5 -76.5q0 -52 -13 -92.5t-29 -68.5t-29 -42t-12 -13q-16 -13 -33 -13t-30 12.5t-13 30.5
q0 7 2.5 15.5t8.5 16.5q29 39 44 78.5t15 84.5q0 53 -23 107q-5 17 -5 25q0 20 12.5 32t28.5 12q29 0 38 -20v0z" />
    <glyph glyph-name="Uhungarumlaut" unicode="&#x170;" horiz-adv-x="1256" 
d="M1067 398q0 -169 -119 -287.5t-287 -118.5h-65q-168 0 -287.5 119t-119.5 287v1032q0 63 63 63t63 -63v-1050q0 -116 82.5 -198.5t198.5 -82.5h65q116 0 198 82.5t82 198.5v1050q0 63 63 63t63 -63v-1032zM1149 2004q0 -20 -17 -37l-260 -260q-17 -17 -38 -17
q-55 0 -55 55q0 21 16 37l260 260q18 18 38 18q22 0 39 -17t17 -39zM770 2004q0 -21 -16 -37l-260 -260q-17 -17 -38 -17q-22 0 -39 16.5t-17 38.5q0 20 17 37l260 260q18 18 38 18q22 0 38.5 -17t16.5 -39z" />
    <glyph glyph-name="uhungarumlaut" unicode="&#x171;" 
d="M904 57q0 -65 -63 -65t-63 65v49l27 103l-36 9q-9 -29 -18 -53q-22 -58 -45 -79q-102 -94 -221 -94q-129 0 -220 78q-103 89 -103 241v741q0 63 63 63t63 -63v-759q0 -94 60 -146q54 -48 137 -48q105 0 190.5 70.5t102.5 169.5v713q0 63 63 63t63 -63v-995zM1048 1654
q0 -20 -17 -37l-260 -260q-17 -17 -38 -17q-55 0 -55 55q0 21 16 37l260 260q18 18 38 18q22 0 39 -17t17 -39zM669 1654q0 -21 -16 -37l-260 -260q-17 -17 -38 -17q-22 0 -39 16.5t-17 38.5q0 20 17 37l260 260q18 18 38 18q22 0 38.5 -17t16.5 -39z" />
    <glyph glyph-name="Ydieresis" unicode="&#x178;" horiz-adv-x="1080" 
d="M811 1798q0 -63 -63 -63h-58q-63 0 -63 63t63 63h58q63 0 63 -63zM464 1798q0 -63 -63 -63h-57q-63 0 -63 63t63 63h57q63 0 63 -63zM1008 1421q0 -14 -6 -28l-350 -789q-10 -23 -49 -35v-515q0 -62 -63 -62t-63 62v515q-39 12 -49 35l-350 789q-6 14 -6 28q0 26 20.5 44
t46.5 18q38 0 54 -38l255 -599l58 -189h67l59 189l254 599q16 38 55 38q26 0 46.5 -18t20.5 -44z" />
    <glyph glyph-name="Zacute" unicode="&#x179;" horiz-adv-x="1012" 
d="M912 54q0 -54 -54 -54h-696q-25 0 -44 19t-19 44v90q5 26 8 31l577 1036l84 108v47l-145 -9h-455q-54 0 -54 54t54 54h645q25 0 44 -19t19 -44v-90q-5 -25 -8 -30l-578 -1037l-83 -99v-47h651q54 0 54 -54zM748 1879l-294 -163q-23 -12 -43 -7q-44 12 -32 55q6 22 26 34
l288 175q20 12 42 6q41 -11 41 -55q0 -30 -28 -45z" />
    <glyph glyph-name="zacute" unicode="&#x17a;" horiz-adv-x="915" 
d="M815 54q0 -54 -54 -54h-612q-25 0 -43.5 18.5t-18.5 43.5v91q0 21 12 37l411 561l182 192v64l-170 -10h-355q-54 0 -54 54t54 54h567q25 0 43.5 -18.5t18.5 -43.5v-90q0 -21 -12 -37l-450 -615l-153 -148v-55l157 10h423q54 0 54 -54zM708 1499l-294 -163q-23 -12 -43 -7
q-44 12 -32 55q6 22 26 34l288 175q20 12 42 6q41 -11 41 -55q0 -30 -28 -45z" />
    <glyph glyph-name="Zcaron" unicode="&#x17d;" horiz-adv-x="1012" 
d="M802 2006q0 -22 -17 -40l-233 -243q-16 -17 -39 -17t-39 17l-233 243q-17 18 -17 40q0 45 45 45q21 0 40 -18l110 -106l85 -117h18l84 117l110 106q19 18 41 18q45 0 45 -45zM912 54q0 -54 -54 -54h-696q-25 0 -44 19t-19 44v90q5 26 8 31l577 1036l84 108v47l-145 -9
h-455q-54 0 -54 54t54 54h645q25 0 44 -19t19 -44v-90q-5 -25 -8 -30l-578 -1037l-83 -99v-47h651q54 0 54 -54z" />
    <glyph glyph-name="zcaron" unicode="&#x17e;" horiz-adv-x="915" 
d="M748 1626q0 -22 -17 -40l-233 -243q-16 -17 -39 -17t-39 17l-233 243q-17 18 -17 40q0 45 45 45q21 0 40 -18l110 -106l85 -117h18l84 117l110 106q19 18 41 18q45 0 45 -45zM815 54q0 -54 -54 -54h-612q-25 0 -43.5 18.5t-18.5 43.5v91q0 21 12 37l411 561l182 192v64
l-170 -10h-355q-54 0 -54 54t54 54h567q25 0 43.5 -18.5t18.5 -43.5v-90q0 -21 -12 -37l-450 -615l-153 -148v-55l157 10h423q54 0 54 -54z" />
    <glyph glyph-name="florin" unicode="&#x192;" horiz-adv-x="743" 
d="M689 1614q0 -54 -54 -54h-66q-55 0 -94.5 -43.5t-39.5 -99.5v-320h181q54 0 54 -54t-54 -54h-181v-1106q0 -108 -76 -184t-184 -76h-67q-54 0 -54 54t54 54h67q55 0 94.5 39.5t39.5 94.5v1124h-182q-54 0 -54 54t54 54h182v311q0 108 76 184t184 76h66q54 0 54 -54z" />
    <glyph glyph-name="circumflex" unicode="&#x2c6;" horiz-adv-x="956" 
d="M767 1381q0 -45 -45 -45q-22 0 -41 18l-110 107l-84 117h-18l-85 -117l-110 -107q-19 -18 -40 -18q-45 0 -45 45q0 22 17 40l233 243q16 17 39 17t39 -17l233 -243q17 -18 17 -40z" />
    <glyph glyph-name="caron" unicode="&#x2c7;" horiz-adv-x="956" 
d="M767 1626q0 -22 -17 -40l-233 -243q-16 -17 -39 -17t-39 17l-233 243q-17 18 -17 40q0 45 45 45q21 0 40 -18l110 -106l85 -117h18l84 117l110 106q19 18 41 18q45 0 45 -45z" />
    <glyph glyph-name="uni02C9" unicode="&#x2c9;" horiz-adv-x="958" 
d="M778 1487q0 -54 -54 -54h-490q-54 0 -54 54t54 54h490q54 0 54 -54v0z" />
    <glyph glyph-name="breve" unicode="&#x2d8;" horiz-adv-x="985" 
d="M804 1584q-14 -117 -103 -196.5t-209 -79.5t-208.5 79.5t-102.5 196.5q-7 61 54 61q47 0 53 -48q9 -77 67.5 -129t136.5 -52q79 0 137.5 52t67.5 129q6 48 53 48q61 0 54 -61z" />
    <glyph glyph-name="dotaccent" unicode="&#x2d9;" horiz-adv-x="549" 
d="M369 1470q0 -44 -28.5 -69t-66.5 -25q-37 0 -64 24q-30 26 -30 70v58q0 44 30 70q27 24 64 24q38 0 66.5 -25t28.5 -69v-58z" />
    <glyph glyph-name="ring" unicode="&#x2da;" horiz-adv-x="931" 
d="M668 1509q0 -84 -59.5 -143.5t-143.5 -59.5t-143 59.5t-59 143.5t59 143t143 59t143.5 -59t59.5 -143zM578 1509q0 46 -33 79t-80 33t-79.5 -32.5t-32.5 -79.5t33 -80t79 -33q47 0 80 33t33 80z" />
    <glyph glyph-name="ogonek" unicode="&#x2db;" horiz-adv-x="722" 
d="M227 -87q0 23 13 36t30 13q13 0 26 -9.5t19 -29.5q21 -75 72.5 -122t126.5 -64q20 -6 29.5 -19t9.5 -27q0 -17 -12.5 -30t-36.5 -13q1 0 -14.5 2t-40.5 10.5t-56.5 25t-62.5 46t-58.5 74t-44.5 107.5z" />
    <glyph glyph-name="tilde" unicode="&#x2dc;" horiz-adv-x="956" 
d="M752 1586q0 -10 -4 -20l-34 -81q-49 -116 -146 -116q-61 0 -101 37q-19 17 -64 85q-33 49 -70 49q-41 0 -69 -67l-35 -85q-11 -27 -38 -27q-48 0 -48 45q0 8 5 20l36 83q52 121 149 121q61 0 101 -37q18 -17 64 -85q33 -49 70 -49t52 34l49 113q11 25 36 25q8 0 21 -6
q26 -12 26 -39z" />
    <glyph glyph-name="hungarumlaut" unicode="&#x2dd;" horiz-adv-x="1109" 
d="M929 1654q0 -20 -17 -37l-260 -260q-17 -17 -38 -17q-55 0 -55 55q0 21 16 37l260 260q18 18 38 18q22 0 39 -17t17 -39zM550 1654q0 -21 -16 -37l-260 -260q-17 -17 -38 -17q-22 0 -39 16.5t-17 38.5q0 20 17 37l260 260q18 18 38 18q22 0 38.5 -17t16.5 -39z" />
    <glyph glyph-name="pi" unicode="&#x3c0;" horiz-adv-x="1843" 
d="M1659 737q0 -305 -216 -521t-521 -216t-521.5 216t-216.5 521t216.5 521t521.5 216t521 -216t216 -521zM1551 737q0 261 -184 445t-445 184t-445.5 -184.5t-184.5 -444.5t184.5 -444.5t445.5 -184.5t445 184t184 445zM1275 923q0 -103 -73 -176t-177 -73h-230v-321
q0 -63 -63 -63t-63 63v766q0 54 54 54h302q103 0 176.5 -73.5t73.5 -176.5zM1149 923q0 59 -41.5 100.5t-100.5 41.5h-212v-283h212q59 0 100.5 41t41.5 100z" />
    <glyph glyph-name="uni1206" unicode="&#x1206;" horiz-adv-x="559" 
d="M321 1463q21 -48 29.5 -88.5t8.5 -76.5q0 -52 -13 -92.5t-29 -68.5t-29 -42t-12 -13q-16 -13 -33 -13t-30 12.5t-13 30.5q0 7 2.5 15.5t8.5 16.5q29 39 44 78.5t15 84.5q0 53 -23 107q-5 17 -5 25q0 20 12.5 32t28.5 12q29 0 38 -20v0z" />
    <glyph glyph-name="endash" unicode="&#x2013;" horiz-adv-x="737" 
d="M746 647q0 -54 -54 -54h-647q-53 0 -53 54t53 54h647q54 0 54 -54z" />
    <glyph glyph-name="emdash" unicode="&#x2014;" horiz-adv-x="919" 
d="M928 647q0 -54 -54 -54h-829q-53 0 -53 54t53 54h829q54 0 54 -54z" />
    <glyph glyph-name="quoteleft" unicode="&#x2018;" horiz-adv-x="460" 
d="M367 983q0 -50 -50 -50q-34 0 -45 26l-187 429q-5 11 -5 25q0 58 62 58q40 0 54 -37l168 -434q3 -8 3 -17z" />
    <glyph glyph-name="quoteright" unicode="&#x2019;" horiz-adv-x="460" 
d="M380 1413q0 -14 -5 -25l-187 -429q-11 -26 -45 -26q-50 0 -50 50q0 9 3 17l168 434q14 37 54 37q62 0 62 -58z" />
    <glyph glyph-name="quotesinglbase" unicode="&#x201a;" horiz-adv-x="460" 
d="M380 222q0 -14 -5 -25l-187 -428q-11 -26 -45 -26q-50 0 -50 50q0 9 3 17l168 433q14 37 54 37q62 0 62 -58z" />
    <glyph glyph-name="quotedblleft" unicode="&#x201c;" horiz-adv-x="829" 
d="M736 983q0 -50 -50 -50q-34 0 -45 26l-187 429q-5 11 -5 25q0 58 62 58q40 0 54 -37l168 -434q3 -8 3 -17zM367 983q0 -50 -50 -50q-34 0 -45 26l-187 429q-5 11 -5 25q0 58 62 58q40 0 54 -37l168 -434q3 -8 3 -17z" />
    <glyph glyph-name="quotedblright" unicode="&#x201d;" horiz-adv-x="829" 
d="M749 1413q0 -14 -5 -25l-187 -429q-11 -26 -45 -26q-50 0 -50 50q0 9 3 17l168 434q14 37 54 37q62 0 62 -58zM380 1413q0 -14 -5 -25l-187 -429q-11 -26 -45 -26q-50 0 -50 50q0 9 3 17l168 434q14 37 54 37q62 0 62 -58z" />
    <glyph glyph-name="quotedblbase" unicode="&#x201e;" horiz-adv-x="829" 
d="M749 222q0 -14 -5 -25l-187 -428q-11 -26 -45 -26q-50 0 -50 50q0 9 3 17l168 433q14 37 54 37q62 0 62 -58zM380 222q0 -14 -5 -25l-187 -428q-11 -26 -45 -26q-50 0 -50 50q0 9 3 17l168 433q14 37 54 37q62 0 62 -58z" />
    <glyph glyph-name="dagger" unicode="&#x2020;" horiz-adv-x="922" 
d="M823 1024q0 -54 -54 -54h-245v-916q0 -62 -63 -62t-63 62v916h-245q-54 0 -54 54t54 54h245v342q0 63 63 63t63 -63v-342h245q54 0 54 -54z" />
    <glyph glyph-name="daggerdbl" unicode="&#x2021;" horiz-adv-x="922" 
d="M823 450q0 -54 -54 -54h-245v-342q0 -62 -63 -62t-63 62v342h-245q-54 0 -54 54t54 54h245v466h-245q-54 0 -54 54t54 54h245v342q0 63 63 63t63 -63v-342h245q54 0 54 -54t-54 -54h-245v-466h245q54 0 54 -54z" />
    <glyph glyph-name="bullet" unicode="&#x2022;" horiz-adv-x="1092" 
d="M894 737q0 -144 -102 -246t-246 -102t-246 102t-102 246t102 246t246 102t246 -102t102 -246z" />
    <glyph glyph-name="ellipsis" unicode="&#x2026;" horiz-adv-x="1282" 
d="M1096 63q0 -89 -90 -89t-90 89v58q0 90 90 90t90 -90v-58zM731 63q0 -93 -90 -93t-90 93v58q0 93 90 93t90 -93v-58zM365 63q0 -89 -90 -89t-90 89v58q0 90 90 90t90 -90v-58z" />
    <glyph glyph-name="perthousand" unicode="&#x2030;" horiz-adv-x="1903" 
d="M737 1121q0 -115 -80.5 -195.5t-195.5 -80.5t-196 81t-81 195v77q0 114 81 195t196 81t195.5 -80.5t80.5 -195.5v-77zM1718 274q0 -116 -77 -195t-191 -79q-65 0 -132 43q-26 17 -63 102h-54q-16 -39 -57 -96q-71 -49 -140 -49q-114 0 -190.5 79.5t-76.5 194.5v77
q0 115 76.5 195.5t190.5 80.5q64 0 130 -42q27 -17 67 -104h54q16 40 56 97q70 49 139 49q114 0 191 -80.5t77 -195.5v-77zM1279 1421q0 -17 -11 -32l-975 -1367q-16 -22 -42 -22q-57 0 -57 53q0 17 11 32l975 1367q16 23 43 23q56 0 56 -54zM1592 256v113q0 62 -44 106
t-107 44q-62 0 -106 -44t-44 -106v-113q0 -62 43.5 -105t106.5 -43t107 43t44 105zM611 1103v113q0 62 -44 106t-106 44t-106.5 -44t-44.5 -106v-113q0 -62 44.5 -106t106.5 -44t106 44t44 106zM1165 256v113q0 62 -44.5 106t-107.5 44q-62 0 -106 -44t-44 -106v-113
q0 -62 43.5 -105t106.5 -43t107.5 43t44.5 105z" />
    <glyph glyph-name="guilsinglleft" unicode="&#x2039;" horiz-adv-x="711" 
d="M567 239q0 -22 -17 -38.5t-39 -16.5q-21 0 -38 17l-314 316q-15 15 -15 37q0 24 15 39l314 312q17 17 38 17q22 0 39 -16.5t17 -38.5q0 -21 -17 -37l-159 -150l-134 -108v-36l125 -100l168 -160q17 -16 17 -37z" />
    <glyph glyph-name="guilsinglright" unicode="&#x203a;" horiz-adv-x="711" 
d="M567 554q0 -22 -15 -37l-314 -316q-17 -17 -38 -17q-22 0 -39 16.5t-17 38.5q0 21 17 37l167 160l126 100v36l-135 108l-158 150q-17 16 -17 37q0 22 17 38.5t39 16.5q21 0 38 -17l314 -312q15 -15 15 -39z" />
    <glyph glyph-name="fraction" unicode="&#x2044;" horiz-adv-x="1083" 
d="M984 1431q0 -14 -8 -28l-775 -1384q-16 -28 -45 -28q-57 0 -57 52q0 14 8 28l775 1384q16 29 45 29q57 0 57 -53z" />
    <glyph glyph-name="Euro" unicode="&#x20ac;" horiz-adv-x="1253" 
d="M1163 277q0 -9 -6 -21q-62 -120 -177 -191q-118 -73 -257 -73q-202 0 -345.5 143t-143.5 345v52h-108q-54 0 -54 54t54 54h108v204h-108q-54 0 -54 54t54 54h108v42q0 202 143.5 345.5t345.5 143.5q140 0 256 -72t178 -192q6 -12 6 -22q0 -23 -18.5 -40.5t-42.5 -17.5
q-36 0 -57 40q-46 89 -132 142.5t-190 53.5q-150 0 -256.5 -106.5t-106.5 -256.5v-60h359q54 0 54 -54t-54 -54h-359v-204h359q54 0 54 -54t-54 -54h-359v-70q0 -150 106.5 -256.5t256.5 -106.5q104 0 190 53.5t132 142.5q21 40 57 40q24 0 42.5 -17.5t18.5 -40.5z" />
    <glyph glyph-name="trademark" unicode="&#x2122;" horiz-adv-x="1157" 
d="M1049 861q0 -47 -46 -47q-48 0 -48 47v317l36 196h-36q-20 -63 -55 -152q-8 -14 -45 -86q-17 -32 -59 -32q-43 0 -60 32q-18 36 -45 86q-14 24 -56 152h-36l36 -196v-317q0 -47 -46 -47q-48 0 -48 47v550q0 48 48 48h38q29 0 41 -22l78 -143l32 -99h36l31 99l78 143
q12 22 40 22h40q46 0 46 -48v-550zM452 1420q0 -39 -39 -39l-103 1v-521q0 -47 -48 -47q-47 0 -47 47v521l-104 -1q-39 0 -39 39q0 38 39 38h302q39 0 39 -38z" />
    <glyph glyph-name="uni2126" unicode="&#x2126;" horiz-adv-x="1290" 
d="M1123 54q0 -54 -54 -54h-227q-25 0 -44 19t-19 44v212q0 33 46 62q79 51 107 82q61 68 61 167v468q0 129 -91.5 220.5t-221.5 91.5h-25q-129 0 -220.5 -91.5t-91.5 -220.5v-468q0 -99 60 -167q29 -32 107 -82q46 -29 46 -62v-212q0 -25 -19 -44t-44 -19h-227
q-54 0 -54 54t54 54h182v152q-98 37 -164.5 135t-66.5 209v432q0 182 128 310t310 128h25q182 0 310.5 -128t128.5 -310v-432q0 -111 -67 -209t-165 -135v-152h182q54 0 54 -54z" />
    <glyph glyph-name="partialdiff" unicode="&#x2202;" horiz-adv-x="1039" 
d="M877 352q0 -146 -102.5 -249t-248.5 -103h-39q-146 0 -249 103t-103 249v321q0 146 103 249t249 103h264v115q0 94 -65.5 160t-159.5 66h-149q-54 0 -54 54t54 54h149q146 0 248.5 -103t102.5 -249v-770zM751 334v583h-264q-94 0 -160 -66t-66 -160v-357q0 -94 66 -160
t160 -66h39q94 0 159.5 66t65.5 160z" />
    <glyph glyph-name="uni2206" unicode="&#x2206;" horiz-adv-x="1290" 
d="M1138 63q0 -26 -18.5 -44.5t-44.5 -18.5h-868q-26 0 -44.5 18.5t-18.5 44.5v111q1 4 3 14l386 1242q14 44 60 44h96q47 0 61 -44l386 -1242q2 -5 2 -14v-111zM1039 90v69l-99 233l-198 638l-72 363h-57l-72 -363l-198 -638l-100 -233v-69l250 36h296z" />
    <glyph glyph-name="product" unicode="&#x220f;" horiz-adv-x="1142" 
d="M1088 1420q0 -54 -54 -54h-128v-1312q0 -62 -63 -62t-63 62v1312h-418v-1312q0 -62 -63 -62t-63 62v1312h-128q-54 0 -54 54t54 54h926q54 0 54 -54z" />
    <glyph glyph-name="summation" unicode="&#x2211;" horiz-adv-x="1022" 
d="M905 54q0 -54 -54 -54h-644q-25 0 -44 19t-19 44v90q0 24 16 42l273 304l211 196v83l-184 166l-300 335q-16 18 -16 42v90q0 25 19 44t44 19h644q54 0 54 -54t-54 -54h-461l-156 18v-45l163 -153l330 -352q16 -17 16 -41v-113q0 -25 -16 -42l-319 -337l-165 -154v-48
l159 9h449q54 0 54 -54z" />
    <glyph glyph-name="minus" unicode="&#x2212;" horiz-adv-x="1102" 
d="M1012 647q0 -63 -63 -63h-796q-63 0 -63 63t63 63h796q63 0 63 -63z" />
    <glyph glyph-name="radical" unicode="&#x221a;" horiz-adv-x="1290" 
d="M1208 1422q0 -11 -6 -26l-560 -1357q-5 -12 -25 -25.5t-33 -13.5h-69q-10 0 -29.5 11.5t-24.5 19.5l-369 620q-10 17 -10 33q0 26 20 44.5t46 18.5q34 0 52 -32l205 -359l113 -266h54l72 265l441 1089q16 40 56 40q26 0 46.5 -18t20.5 -44z" />
    <glyph glyph-name="infinity" unicode="&#x221e;" horiz-adv-x="1677" 
d="M1488 463q0 -114 -81 -195t-195 -81q-146 0 -229 123q-5 7 -60 92l-57 162h-54l-59 -162l-58 -92q-83 -123 -230 -123q-114 0 -195 81t-81 195v367q0 114 81 195t195 81q149 0 230 -121q5 -8 65 -106l52 -150h54l50 150l67 106q81 121 229 121q114 0 195 -81t81 -195
v-367zM1362 445v403q0 62 -44 106t-106 44q-80 0 -125 -67q-10 -14 -180 -284l180 -285q45 -67 125 -67q62 0 106 44t44 106zM769 647l-179 284q-45 67 -125 67q-62 0 -106 -44t-44 -106v-403q0 -62 44 -106t106 -44q80 0 125 67q10 14 179 285z" />
    <glyph glyph-name="integral" unicode="&#x222b;" horiz-adv-x="743" 
d="M689 1614q0 -54 -54 -54h-66q-55 0 -94.5 -43.5t-39.5 -99.5v-1534q0 -108 -76 -184t-184 -76h-67q-54 0 -54 54t54 54h67q55 0 94.5 39.5t39.5 94.5v1543q0 108 76 184t184 76h66q54 0 54 -54z" />
    <glyph glyph-name="approxequal" unicode="&#x2248;" horiz-adv-x="1475" 
d="M1314 1053q0 -23 -18 -41l-224 -226q-61 -62 -146 -62q-81 0 -138 58l-190 194q-26 27 -54 27q-35 0 -62 -27l-225 -227q-18 -18 -40 -18q-24 0 -42 18t-18 42q0 23 18 41l224 226q61 62 145 62q74 0 126 -53l191 -194q31 -32 65 -32t61 27l225 226q19 19 42 19
q24 0 42 -18t18 -42zM1314 499q0 -22 -18 -40l-224 -227q-61 -62 -146 -62q-80 0 -138 59l-190 194q-25 26 -54 26q-36 0 -62 -26l-225 -228q-18 -18 -40 -18q-24 0 -42 18.5t-18 42.5q0 22 18 40l224 227q60 61 145 61q75 0 126 -52l191 -195q31 -32 65 -32q35 0 61 26
l225 228q19 19 42 19q24 0 42 -18.5t18 -42.5z" />
    <glyph glyph-name="notequal" unicode="&#x2260;" horiz-adv-x="1105" 
d="M930 827q0 -63 -63 -63h-629q-63 0 -63 63t63 63h351l160 370q14 33 47 33q57 0 57 -53q0 -12 -5 -23l-90 -201l-96 -126l18 -36l143 36h44q63 0 63 -63zM930 465q0 -63 -63 -63h-351l-160 -370q-14 -32 -47 -32q-57 0 -57 52q0 13 5 24l90 200l96 126l-18 36l-142 -36
h-45q-63 0 -63 63t63 63h629q63 0 63 -63z" />
    <glyph glyph-name="lessequal" unicode="&#x2264;" horiz-adv-x="922" 
d="M731 427q0 -25 -19.5 -44.5t-45.5 -19.5q-25 0 -44 19l-412 413q-18 18 -18 44t18 44l412 412q20 20 44 20q25 0 45 -20t20 -45t-20 -43l-209 -192l-203 -149v-54l198 -145l214 -196q20 -18 20 -44zM731 54q0 -54 -54 -54h-431q-54 0 -54 54t54 54h431q54 0 54 -54z" />
    <glyph glyph-name="greaterequal" unicode="&#x2265;" horiz-adv-x="922" 
d="M731 839q0 -26 -18 -44l-412 -413q-19 -19 -45 -19q-25 0 -44.5 19.5t-19.5 44.5q0 27 19 44l215 196l198 145v54l-204 149l-209 192q-19 17 -19 43q0 25 19.5 45t44.5 20t45 -20l412 -412q18 -18 18 -44zM731 54q0 -54 -54 -54h-431q-54 0 -54 54t54 54h431q54 0 54 -54
z" />
    <glyph glyph-name="uni24C5" unicode="&#x24c5;" horiz-adv-x="1843" 
d="M1659 737q0 -305 -216 -521t-521 -216t-521.5 216t-216.5 521t216.5 521t521.5 216t521 -216t216 -521zM1551 737q0 261 -184 445t-445 184t-445.5 -184.5t-184.5 -444.5t184.5 -444.5t445.5 -184.5t445 184t184 445zM1275 923q0 -103 -73 -176t-177 -73h-230v-321
q0 -63 -63 -63t-63 63v766q0 54 54 54h302q103 0 176.5 -73.5t73.5 -176.5zM1149 923q0 59 -41.5 100.5t-100.5 41.5h-212v-283h212q59 0 100.5 41t41.5 100z" />
    <glyph glyph-name="lozenge" unicode="&#x25ca;" horiz-adv-x="1290" 
d="M1166 682q0 -17 -6 -29l-413 -802q-17 -34 -57 -34h-92q-39 0 -56 34l-413 802q-8 16 -8 29v110q0 13 8 29l413 803q18 35 56 35h92q39 0 57 -35l413 -803q6 -12 6 -29v-110zM1040 697v80l-261 525l-100 276h-70l-101 -276l-261 -525v-80l261 -525l101 -274h70l100 274z
" />
    <glyph glyph-name="uniF6C3" unicode="&#xf6c3;" horiz-adv-x="780" 
d="M553 -87q-17 -63 -44.5 -107.5t-58.5 -74t-62.5 -46t-56.5 -25t-40.5 -10.5t-14.5 -2q-24 0 -36.5 13t-12.5 30q0 14 9.5 27t29.5 19q75 17 126.5 64t72.5 122q6 20 19 29.5t26 9.5q17 0 30 -13t13 -36z" />
    <glyph glyph-name="uniF8FF" unicode="&#xf8ff;" horiz-adv-x="3140" 
d="M2951 0h-2296l-466 466v1008h2762v-1474zM2809 1038v67q0 143 -102 211q-76 51 -201 51h-216v-143h216q57 0 94 -28q44 -33 44 -91v-67q0 -56 -44 -89q-23 -18 -43 -23q-30 -8 -51 -8h-216v-142h216q121 0 201 53q102 68 102 209zM2230 776v70q0 142 -100 209
q-79 53 -200 53h-14q-23 0 -49 7q-87 23 -87 110v142h-165v-142q0 -140 101 -208q79 -53 200 -53h14q55 0 93 -29q43 -33 43 -89v-70h164zM1579 999v143h-315v-143h315zM1449 1224v143h-115q-57 0 -102 -10q-56 -12 -98 -41q-102 -69 -102 -211v-329h165v329q0 59 43 91
q21 16 43.5 22t50.5 6h115z" />
    <glyph glyph-name="uniFB01" unicode="&#xfb01;" horiz-adv-x="1040" 
d="M878 54q0 -62 -63 -62t-63 62v944h-359v-944q0 -62 -63 -62t-63 62v944h-159q-54 0 -54 54t54 54h159v234q0 132 93.5 225.5t225.5 93.5q54 0 54 -54t-54 -54q-80 0 -136.5 -56.5t-56.5 -136.5v-252h422q63 0 63 -63v-989z" />
    <glyph glyph-name="uniFB02" unicode="&#xfb02;" horiz-adv-x="1157" 
d="M1040 36q0 -53 -54 -53q-73 0 -119 52q-43 50 -43 119v1397h-238q-80 0 -136.5 -56.5t-56.5 -136.5v-252h160q54 0 54 -54t-54 -54h-160v-944q0 -62 -63 -62t-63 62v944h-159q-54 0 -54 54t54 54h159v234q0 132 93 225.5t225 93.5h302q25 0 44 -19t19 -44v-1460
q0 -46 36 -46q54 0 54 -54z" />
    </font>
</defs>
</svg>
